<?xml version="1.0" encoding="us-ascii" standalone="no"?><svg xmlns="http://www.w3.org/2000/svg" xmlns:xlink="http://www.w3.org/1999/xlink" contentStyleType="text/css" height="430px" preserveAspectRatio="none" style="width:1244px;height:430px;background:#FFFFFF;" version="1.1" viewBox="0 0 1244 430" width="1244px" zoomAndPan="magnify"><defs/><g><!--cluster AutomatedSystem--><g id="cluster_AutomatedSystem"><path d="M8.5,6 L134.5,6 A3.75,3.75 0 0 1 137,8.5 L144,29.6094 L1234.5,29.6094 A2.5,2.5 0 0 1 1237,32.1094 L1237,420.5 A2.5,2.5 0 0 1 1234.5,423 L8.5,423 A2.5,2.5 0 0 1 6,420.5 L6,8.5 A2.5,2.5 0 0 1 8.5,6 " fill="none" style="stroke:#000000;stroke-width:1.5;"/><line style="stroke:#000000;stroke-width:1.5;" x1="6" x2="144" y1="29.6094" y2="29.6094"/><text fill="#000000" font-family="sans-serif" font-size="14" font-weight="bold" lengthAdjust="spacing" textLength="125" x="10" y="22.5332">AutomatedSystem</text></g><!--cluster ServicesRegistry--><g id="cluster_ServicesRegistry"><path d="M965.5,50 L1086.5,50 A3.75,3.75 0 0 1 1089,52.5 L1096,73.6094 L1210.5,73.6094 A2.5,2.5 0 0 1 1213,76.1094 L1213,272 A2.5,2.5 0 0 1 1210.5,274.5 L965.5,274.5 A2.5,2.5 0 0 1 963,272 L963,52.5 A2.5,2.5 0 0 1 965.5,50 " fill="none" style="stroke:#000000;stroke-width:1.5;"/><line style="stroke:#000000;stroke-width:1.5;" x1="963" x2="1096" y1="73.6094" y2="73.6094"/><text fill="#000000" font-family="sans-serif" font-size="14" font-weight="bold" lengthAdjust="spacing" textLength="120" x="967" y="66.5332">ServicesRegistry</text></g><!--cluster RSU--><g id="cluster_RSU"><path d="M719.5,55.5 L749.5,55.5 A3.75,3.75 0 0 1 752,58 L759,79.1094 L936.5,79.1094 A2.5,2.5 0 0 1 939,81.6094 L939,396.5 A2.5,2.5 0 0 1 936.5,399 L719.5,399 A2.5,2.5 0 0 1 717,396.5 L717,58 A2.5,2.5 0 0 1 719.5,55.5 " fill="none" style="stroke:#000000;stroke-width:1.5;"/><line style="stroke:#000000;stroke-width:1.5;" x1="717" x2="759" y1="79.1094" y2="79.1094"/><text fill="#000000" font-family="sans-serif" font-size="14" font-weight="bold" lengthAdjust="spacing" textLength="29" x="721" y="72.0332">RSU</text></g><!--cluster ServicesDiscovery--><g id="cluster_ServicesDiscovery"><path d="M459.5,50 L592.5,50 A3.75,3.75 0 0 1 595,52.5 L602,73.6094 L690.5,73.6094 A2.5,2.5 0 0 1 693,76.1094 L693,272 A2.5,2.5 0 0 1 690.5,274.5 L459.5,274.5 A2.5,2.5 0 0 1 457,272 L457,52.5 A2.5,2.5 0 0 1 459.5,50 " fill="none" style="stroke:#000000;stroke-width:1.5;"/><line style="stroke:#000000;stroke-width:1.5;" x1="457" x2="602" y1="73.6094" y2="73.6094"/><text fill="#000000" font-family="sans-serif" font-size="14" font-weight="bold" lengthAdjust="spacing" textLength="132" x="461" y="66.5332">ServicesDiscovery</text></g><!--cluster Vehicle--><g id="cluster_Vehicle"><path d="M32.5,55.5 L85.5,55.5 A3.75,3.75 0 0 1 88,58 L95,79.1094 L430.5,79.1094 A2.5,2.5 0 0 1 433,81.6094 L433,396.5 A2.5,2.5 0 0 1 430.5,399 L32.5,399 A2.5,2.5 0 0 1 30,396.5 L30,58 A2.5,2.5 0 0 1 32.5,55.5 " fill="none" style="stroke:#000000;stroke-width:1.5;"/><line style="stroke:#000000;stroke-width:1.5;" x1="30" x2="95" y1="79.1094" y2="79.1094"/><text fill="#000000" font-family="sans-serif" font-size="14" font-weight="bold" lengthAdjust="spacing" textLength="52" x="34" y="72.0332">Vehicle</text></g><!--class ServiceRegister--><g id="elem_ServiceRegister"><rect codeLine="8" fill="#F1F1F1" height="48" id="ServiceRegister" rx="2.5" ry="2.5" style="stroke:#181818;stroke-width:0.5;" width="132" x="1022" y="210.5"/><ellipse cx="1037" cy="226.5" fill="#ADD1B2" rx="11" ry="11" style="stroke:#181818;stroke-width:1.0;"/><path d="M1039.7656,222.375 Q1039.9219,222.1563 1040.1094,222.0469 Q1040.2969,221.9375 1040.5156,221.9375 Q1040.8906,221.9375 1041.125,222.2031 Q1041.3594,222.4531 1041.3594,223.0625 L1041.3594,224.5156 Q1041.3594,225.125 1041.125,225.3906 Q1040.8906,225.6563 1040.5156,225.6563 Q1040.1719,225.6563 1039.9688,225.4531 Q1039.7656,225.2656 1039.6563,224.75 Q1039.6094,224.3906 1039.4219,224.2031 Q1039.0938,223.8281 1038.4844,223.6094 Q1037.875,223.3906 1037.25,223.3906 Q1036.4844,223.3906 1035.8438,223.7188 Q1035.2188,224.0469 1034.7188,224.7969 Q1034.2344,225.5469 1034.2344,226.5781 L1034.2344,227.6719 Q1034.2344,228.9063 1035.125,229.7344 Q1036.0156,230.5469 1037.6094,230.5469 Q1038.5469,230.5469 1039.2031,230.2969 Q1039.5938,230.1406 1040.0156,229.7031 Q1040.2813,229.4375 1040.4219,229.3594 Q1040.5781,229.2813 1040.7813,229.2813 Q1041.1094,229.2813 1041.3594,229.5469 Q1041.625,229.7969 1041.625,230.1406 Q1041.625,230.4844 1041.2813,230.8906 Q1040.7813,231.4688 1039.9844,231.7969 Q1038.9063,232.25 1037.6094,232.25 Q1036.0938,232.25 1034.8906,231.625 Q1033.9063,231.125 1033.2188,230.0625 Q1032.5313,228.9844 1032.5313,227.7031 L1032.5313,226.5469 Q1032.5313,225.2188 1033.1406,224.0781 Q1033.7656,222.9219 1034.8594,222.3125 Q1035.9531,221.6875 1037.1875,221.6875 Q1037.9219,221.6875 1038.5625,221.8594 Q1039.2188,222.0156 1039.7656,222.375 Z " fill="#000000"/><text fill="#000000" font-family="sans-serif" font-size="14" lengthAdjust="spacing" textLength="100" x="1051" y="232.2285">ServiceRegister</text><line style="stroke:#181818;stroke-width:0.5;" x1="1023" x2="1153" y1="242.5" y2="242.5"/><line style="stroke:#181818;stroke-width:0.5;" x1="1023" x2="1153" y1="250.5" y2="250.5"/></g><!--class RegistrationRequestReceiver--><g id="elem_RegistrationRequestReceiver"><rect codeLine="11" fill="#F1F1F1" height="58.7031" id="RegistrationRequestReceiver" rx="2.5" ry="2.5" style="stroke:#181818;stroke-width:0.5;" width="217" x="979.5" y="86"/><ellipse cx="994.5" cy="107.3516" fill="#ADD1B2" rx="11" ry="11" style="stroke:#181818;stroke-width:1.0;"/><path d="M997.2656,103.2266 Q997.4219,103.0078 997.6094,102.8984 Q997.7969,102.7891 998.0156,102.7891 Q998.3906,102.7891 998.625,103.0547 Q998.8594,103.3047 998.8594,103.9141 L998.8594,105.3672 Q998.8594,105.9766 998.625,106.2422 Q998.3906,106.5078 998.0156,106.5078 Q997.6719,106.5078 997.4688,106.3047 Q997.2656,106.1172 997.1563,105.6016 Q997.1094,105.2422 996.9219,105.0547 Q996.5938,104.6797 995.9844,104.4609 Q995.375,104.2422 994.75,104.2422 Q993.9844,104.2422 993.3438,104.5703 Q992.7188,104.8984 992.2188,105.6484 Q991.7344,106.3984 991.7344,107.4297 L991.7344,108.5234 Q991.7344,109.7578 992.625,110.5859 Q993.5156,111.3984 995.1094,111.3984 Q996.0469,111.3984 996.7031,111.1484 Q997.0938,110.9922 997.5156,110.5547 Q997.7813,110.2891 997.9219,110.2109 Q998.0781,110.1328 998.2813,110.1328 Q998.6094,110.1328 998.8594,110.3984 Q999.125,110.6484 999.125,110.9922 Q999.125,111.3359 998.7813,111.7422 Q998.2813,112.3203 997.4844,112.6484 Q996.4063,113.1016 995.1094,113.1016 Q993.5938,113.1016 992.3906,112.4766 Q991.4063,111.9766 990.7188,110.9141 Q990.0313,109.8359 990.0313,108.5547 L990.0313,107.3984 Q990.0313,106.0703 990.6406,104.9297 Q991.2656,103.7734 992.3594,103.1641 Q993.4531,102.5391 994.6875,102.5391 Q995.4219,102.5391 996.0625,102.7109 Q996.7188,102.8672 997.2656,103.2266 Z " fill="#000000"/><text fill="#000000" font-family="sans-serif" font-size="12" font-style="italic" lengthAdjust="spacing" textLength="86" x="1058" y="103.457">&#171;ROS2 Server&#187;</text><text fill="#000000" font-family="sans-serif" font-size="14" lengthAdjust="spacing" textLength="185" x="1008.5" y="120.627">RegistrationRequestReceiver</text><line style="stroke:#181818;stroke-width:0.5;" x1="980.5" x2="1195.5" y1="128.7031" y2="128.7031"/><line style="stroke:#181818;stroke-width:0.5;" x1="980.5" x2="1195.5" y1="136.7031" y2="136.7031"/></g><!--class RSUServiceconfiguration--><g id="elem_RSUServiceconfiguration"><rect codeLine="20" fill="#F1F1F1" height="58.7031" id="RSUServiceconfiguration" rx="2.5" ry="2.5" style="stroke:#181818;stroke-width:0.5;" width="189" x="733.5" y="324"/><ellipse cx="748.5" cy="345.3516" fill="#F1F1F1" rx="11" ry="11" style="stroke:#181818;stroke-width:1.0;"/><path d="M746.6094,349.9141 Q746.3906,350.1797 746.25,350.2578 Q746.1094,350.3359 745.9219,350.3359 Q745.5313,350.3359 745.2813,350.0703 Q745.0469,349.8047 745.0469,349.2109 L745.0469,348.0547 Q745.0469,347.4453 745.2813,347.1953 Q745.5313,346.9297 745.9219,346.9297 Q746.2188,346.9297 746.4219,347.0859 Q746.625,347.2422 746.7344,347.6172 Q746.8438,347.9766 746.9531,348.1172 Q747.2031,348.3672 747.8125,348.6328 Q748.4219,348.8984 749.1563,348.8984 Q750.2969,348.8984 751.0156,348.3672 Q751.4844,348.0391 751.4844,347.5703 Q751.4844,347.2578 751.2656,346.9766 Q751.0469,346.6953 750.5313,346.5234 Q750.2031,346.3984 749.0469,346.1797 Q747.6563,345.9141 746.9375,345.5547 Q746.2188,345.1953 745.7969,344.5391 Q745.3906,343.8672 745.3906,343.0859 Q745.3906,341.8672 746.4063,340.9609 Q747.4375,340.0391 749.0781,340.0391 Q749.7344,340.0391 750.2813,340.1797 Q750.8438,340.3203 751.3125,340.6172 Q751.6406,340.3047 751.9688,340.3047 Q752.3438,340.3047 752.5781,340.5703 Q752.8125,340.8203 752.8125,341.4297 L752.8125,342.7109 Q752.8125,343.3203 752.5781,343.5859 Q752.3438,343.8359 751.9688,343.8359 Q751.6563,343.8359 751.4219,343.6484 Q751.2344,343.5078 751.1406,343.0859 Q751.0625,342.6641 750.9219,342.4766 Q750.6719,342.1641 750.1875,341.9609 Q749.7188,341.7422 749.0781,341.7422 Q748.1563,341.7422 747.625,342.1641 Q747.0938,342.5859 747.0938,343.0547 Q747.0938,343.3672 747.3125,343.6641 Q747.5313,343.9609 747.9531,344.1328 Q748.2344,344.2422 749.5313,344.5078 Q750.8438,344.7578 751.5469,345.0703 Q752.25,345.3672 752.7188,346.0234 Q753.1875,346.6797 753.1875,347.5859 Q753.1875,348.8516 752.2969,349.6016 Q751.1094,350.6016 749.2813,350.6016 Q748.5781,350.6016 747.9063,350.4297 Q747.25,350.2578 746.6094,349.9141 Z " fill="#000000"/><text fill="#000000" font-family="sans-serif" font-size="12" font-style="italic" lengthAdjust="spacing" textLength="111" x="785.5" y="341.457">&#171;Configuration File&#187;</text><text fill="#000000" font-family="sans-serif" font-size="14" lengthAdjust="spacing" textLength="157" x="762.5" y="358.627">RSUServiceconfiguration</text><line style="stroke:#181818;stroke-width:0.5;" x1="734.5" x2="921.5" y1="366.7031" y2="366.7031"/><line style="stroke:#181818;stroke-width:0.5;" x1="734.5" x2="921.5" y1="374.7031" y2="374.7031"/></g><!--class RSUService--><g id="elem_RSUService"><rect codeLine="23" fill="#F1F1F1" height="48" id="RSUService" rx="2.5" ry="2.5" style="stroke:#181818;stroke-width:0.5;" width="107" x="774.5" y="91.5"/><ellipse cx="789.5" cy="107.5" fill="#ADD1B2" rx="11" ry="11" style="stroke:#181818;stroke-width:1.0;"/><path d="M792.2656,103.375 Q792.4219,103.1563 792.6094,103.0469 Q792.7969,102.9375 793.0156,102.9375 Q793.3906,102.9375 793.625,103.2031 Q793.8594,103.4531 793.8594,104.0625 L793.8594,105.5156 Q793.8594,106.125 793.625,106.3906 Q793.3906,106.6563 793.0156,106.6563 Q792.6719,106.6563 792.4688,106.4531 Q792.2656,106.2656 792.1563,105.75 Q792.1094,105.3906 791.9219,105.2031 Q791.5938,104.8281 790.9844,104.6094 Q790.375,104.3906 789.75,104.3906 Q788.9844,104.3906 788.3438,104.7188 Q787.7188,105.0469 787.2188,105.7969 Q786.7344,106.5469 786.7344,107.5781 L786.7344,108.6719 Q786.7344,109.9063 787.625,110.7344 Q788.5156,111.5469 790.1094,111.5469 Q791.0469,111.5469 791.7031,111.2969 Q792.0938,111.1406 792.5156,110.7031 Q792.7813,110.4375 792.9219,110.3594 Q793.0781,110.2813 793.2813,110.2813 Q793.6094,110.2813 793.8594,110.5469 Q794.125,110.7969 794.125,111.1406 Q794.125,111.4844 793.7813,111.8906 Q793.2813,112.4688 792.4844,112.7969 Q791.4063,113.25 790.1094,113.25 Q788.5938,113.25 787.3906,112.625 Q786.4063,112.125 785.7188,111.0625 Q785.0313,109.9844 785.0313,108.7031 L785.0313,107.5469 Q785.0313,106.2188 785.6406,105.0781 Q786.2656,103.9219 787.3594,103.3125 Q788.4531,102.6875 789.6875,102.6875 Q790.4219,102.6875 791.0625,102.8594 Q791.7188,103.0156 792.2656,103.375 Z " fill="#000000"/><text fill="#000000" font-family="sans-serif" font-size="14" lengthAdjust="spacing" textLength="75" x="803.5" y="113.2285">RSUService</text><line style="stroke:#181818;stroke-width:0.5;" x1="775.5" x2="880.5" y1="123.5" y2="123.5"/><line style="stroke:#181818;stroke-width:0.5;" x1="775.5" x2="880.5" y1="131.5" y2="131.5"/></g><!--class RegistrationRequester--><g id="elem_RegistrationRequester"><rect codeLine="26" fill="#F1F1F1" height="58.7031" id="RegistrationRequester" rx="2.5" ry="2.5" style="stroke:#181818;stroke-width:0.5;" width="174" x="741" y="205"/><ellipse cx="756" cy="226.3516" fill="#ADD1B2" rx="11" ry="11" style="stroke:#181818;stroke-width:1.0;"/><path d="M758.7656,222.2266 Q758.9219,222.0078 759.1094,221.8984 Q759.2969,221.7891 759.5156,221.7891 Q759.8906,221.7891 760.125,222.0547 Q760.3594,222.3047 760.3594,222.9141 L760.3594,224.3672 Q760.3594,224.9766 760.125,225.2422 Q759.8906,225.5078 759.5156,225.5078 Q759.1719,225.5078 758.9688,225.3047 Q758.7656,225.1172 758.6563,224.6016 Q758.6094,224.2422 758.4219,224.0547 Q758.0938,223.6797 757.4844,223.4609 Q756.875,223.2422 756.25,223.2422 Q755.4844,223.2422 754.8438,223.5703 Q754.2188,223.8984 753.7188,224.6484 Q753.2344,225.3984 753.2344,226.4297 L753.2344,227.5234 Q753.2344,228.7578 754.125,229.5859 Q755.0156,230.3984 756.6094,230.3984 Q757.5469,230.3984 758.2031,230.1484 Q758.5938,229.9922 759.0156,229.5547 Q759.2813,229.2891 759.4219,229.2109 Q759.5781,229.1328 759.7813,229.1328 Q760.1094,229.1328 760.3594,229.3984 Q760.625,229.6484 760.625,229.9922 Q760.625,230.3359 760.2813,230.7422 Q759.7813,231.3203 758.9844,231.6484 Q757.9063,232.1016 756.6094,232.1016 Q755.0938,232.1016 753.8906,231.4766 Q752.9063,230.9766 752.2188,229.9141 Q751.5313,228.8359 751.5313,227.5547 L751.5313,226.3984 Q751.5313,225.0703 752.1406,223.9297 Q752.7656,222.7734 753.8594,222.1641 Q754.9531,221.5391 756.1875,221.5391 Q756.9219,221.5391 757.5625,221.7109 Q758.2188,221.8672 758.7656,222.2266 Z " fill="#000000"/><text fill="#000000" font-family="sans-serif" font-size="12" font-style="italic" lengthAdjust="spacing" textLength="82" x="800" y="222.457">&#171;ROS2 Client&#187;</text><text fill="#000000" font-family="sans-serif" font-size="14" lengthAdjust="spacing" textLength="142" x="770" y="239.627">RegistrationRequester</text><line style="stroke:#181818;stroke-width:0.5;" x1="742" x2="914" y1="247.7031" y2="247.7031"/><line style="stroke:#181818;stroke-width:0.5;" x1="742" x2="914" y1="255.7031" y2="255.7031"/></g><!--class ServiceDiscovery--><g id="elem_ServiceDiscovery"><rect codeLine="34" fill="#F1F1F1" height="48" id="ServiceDiscovery" rx="2.5" ry="2.5" style="stroke:#181818;stroke-width:0.5;" width="141" x="504.5" y="210.5"/><ellipse cx="519.5" cy="226.5" fill="#ADD1B2" rx="11" ry="11" style="stroke:#181818;stroke-width:1.0;"/><path d="M522.2656,222.375 Q522.4219,222.1563 522.6094,222.0469 Q522.7969,221.9375 523.0156,221.9375 Q523.3906,221.9375 523.625,222.2031 Q523.8594,222.4531 523.8594,223.0625 L523.8594,224.5156 Q523.8594,225.125 523.625,225.3906 Q523.3906,225.6563 523.0156,225.6563 Q522.6719,225.6563 522.4688,225.4531 Q522.2656,225.2656 522.1563,224.75 Q522.1094,224.3906 521.9219,224.2031 Q521.5938,223.8281 520.9844,223.6094 Q520.375,223.3906 519.75,223.3906 Q518.9844,223.3906 518.3438,223.7188 Q517.7188,224.0469 517.2188,224.7969 Q516.7344,225.5469 516.7344,226.5781 L516.7344,227.6719 Q516.7344,228.9063 517.625,229.7344 Q518.5156,230.5469 520.1094,230.5469 Q521.0469,230.5469 521.7031,230.2969 Q522.0938,230.1406 522.5156,229.7031 Q522.7813,229.4375 522.9219,229.3594 Q523.0781,229.2813 523.2813,229.2813 Q523.6094,229.2813 523.8594,229.5469 Q524.125,229.7969 524.125,230.1406 Q524.125,230.4844 523.7813,230.8906 Q523.2813,231.4688 522.4844,231.7969 Q521.4063,232.25 520.1094,232.25 Q518.5938,232.25 517.3906,231.625 Q516.4063,231.125 515.7188,230.0625 Q515.0313,228.9844 515.0313,227.7031 L515.0313,226.5469 Q515.0313,225.2188 515.6406,224.0781 Q516.2656,222.9219 517.3594,222.3125 Q518.4531,221.6875 519.6875,221.6875 Q520.4219,221.6875 521.0625,221.8594 Q521.7188,222.0156 522.2656,222.375 Z " fill="#000000"/><text fill="#000000" font-family="sans-serif" font-size="14" lengthAdjust="spacing" textLength="109" x="533.5" y="232.2285">ServiceDiscovery</text><line style="stroke:#181818;stroke-width:0.5;" x1="505.5" x2="644.5" y1="242.5" y2="242.5"/><line style="stroke:#181818;stroke-width:0.5;" x1="505.5" x2="644.5" y1="250.5" y2="250.5"/></g><!--class DiscoveryRequestReceiver--><g id="elem_DiscoveryRequestReceiver"><rect codeLine="37" fill="#F1F1F1" height="58.7031" id="DiscoveryRequestReceiver" rx="2.5" ry="2.5" style="stroke:#181818;stroke-width:0.5;" width="203" x="473.5" y="86"/><ellipse cx="488.5" cy="107.3516" fill="#ADD1B2" rx="11" ry="11" style="stroke:#181818;stroke-width:1.0;"/><path d="M491.2656,103.2266 Q491.4219,103.0078 491.6094,102.8984 Q491.7969,102.7891 492.0156,102.7891 Q492.3906,102.7891 492.625,103.0547 Q492.8594,103.3047 492.8594,103.9141 L492.8594,105.3672 Q492.8594,105.9766 492.625,106.2422 Q492.3906,106.5078 492.0156,106.5078 Q491.6719,106.5078 491.4688,106.3047 Q491.2656,106.1172 491.1563,105.6016 Q491.1094,105.2422 490.9219,105.0547 Q490.5938,104.6797 489.9844,104.4609 Q489.375,104.2422 488.75,104.2422 Q487.9844,104.2422 487.3438,104.5703 Q486.7188,104.8984 486.2188,105.6484 Q485.7344,106.3984 485.7344,107.4297 L485.7344,108.5234 Q485.7344,109.7578 486.625,110.5859 Q487.5156,111.3984 489.1094,111.3984 Q490.0469,111.3984 490.7031,111.1484 Q491.0938,110.9922 491.5156,110.5547 Q491.7813,110.2891 491.9219,110.2109 Q492.0781,110.1328 492.2813,110.1328 Q492.6094,110.1328 492.8594,110.3984 Q493.125,110.6484 493.125,110.9922 Q493.125,111.3359 492.7813,111.7422 Q492.2813,112.3203 491.4844,112.6484 Q490.4063,113.1016 489.1094,113.1016 Q487.5938,113.1016 486.3906,112.4766 Q485.4063,111.9766 484.7188,110.9141 Q484.0313,109.8359 484.0313,108.5547 L484.0313,107.3984 Q484.0313,106.0703 484.6406,104.9297 Q485.2656,103.7734 486.3594,103.1641 Q487.4531,102.5391 488.6875,102.5391 Q489.4219,102.5391 490.0625,102.7109 Q490.7188,102.8672 491.2656,103.2266 Z " fill="#000000"/><text fill="#000000" font-family="sans-serif" font-size="12" font-style="italic" lengthAdjust="spacing" textLength="86" x="545" y="103.457">&#171;ROS2 Server&#187;</text><text fill="#000000" font-family="sans-serif" font-size="14" lengthAdjust="spacing" textLength="171" x="502.5" y="120.627">DiscoveryRequestReceiver</text><line style="stroke:#181818;stroke-width:0.5;" x1="474.5" x2="675.5" y1="128.7031" y2="128.7031"/><line style="stroke:#181818;stroke-width:0.5;" x1="474.5" x2="675.5" y1="136.7031" y2="136.7031"/></g><!--class ConfigurationOfheMap--><g id="elem_ConfigurationOfheMap"><rect codeLine="46" fill="#F1F1F1" height="58.7031" id="ConfigurationOfheMap" rx="2.5" ry="2.5" style="stroke:#181818;stroke-width:0.5;" width="175" x="46.5" y="205"/><ellipse cx="61.5" cy="226.3516" fill="#F1F1F1" rx="11" ry="11" style="stroke:#181818;stroke-width:1.0;"/><path d="M59.6094,230.9141 Q59.3906,231.1797 59.25,231.2578 Q59.1094,231.3359 58.9219,231.3359 Q58.5313,231.3359 58.2813,231.0703 Q58.0469,230.8047 58.0469,230.2109 L58.0469,229.0547 Q58.0469,228.4453 58.2813,228.1953 Q58.5313,227.9297 58.9219,227.9297 Q59.2188,227.9297 59.4219,228.0859 Q59.625,228.2422 59.7344,228.6172 Q59.8438,228.9766 59.9531,229.1172 Q60.2031,229.3672 60.8125,229.6328 Q61.4219,229.8984 62.1563,229.8984 Q63.2969,229.8984 64.0156,229.3672 Q64.4844,229.0391 64.4844,228.5703 Q64.4844,228.2578 64.2656,227.9766 Q64.0469,227.6953 63.5313,227.5234 Q63.2031,227.3984 62.0469,227.1797 Q60.6563,226.9141 59.9375,226.5547 Q59.2188,226.1953 58.7969,225.5391 Q58.3906,224.8672 58.3906,224.0859 Q58.3906,222.8672 59.4063,221.9609 Q60.4375,221.0391 62.0781,221.0391 Q62.7344,221.0391 63.2813,221.1797 Q63.8438,221.3203 64.3125,221.6172 Q64.6406,221.3047 64.9688,221.3047 Q65.3438,221.3047 65.5781,221.5703 Q65.8125,221.8203 65.8125,222.4297 L65.8125,223.7109 Q65.8125,224.3203 65.5781,224.5859 Q65.3438,224.8359 64.9688,224.8359 Q64.6563,224.8359 64.4219,224.6484 Q64.2344,224.5078 64.1406,224.0859 Q64.0625,223.6641 63.9219,223.4766 Q63.6719,223.1641 63.1875,222.9609 Q62.7188,222.7422 62.0781,222.7422 Q61.1563,222.7422 60.625,223.1641 Q60.0938,223.5859 60.0938,224.0547 Q60.0938,224.3672 60.3125,224.6641 Q60.5313,224.9609 60.9531,225.1328 Q61.2344,225.2422 62.5313,225.5078 Q63.8438,225.7578 64.5469,226.0703 Q65.25,226.3672 65.7188,227.0234 Q66.1875,227.6797 66.1875,228.5859 Q66.1875,229.8516 65.2969,230.6016 Q64.1094,231.6016 62.2813,231.6016 Q61.5781,231.6016 60.9063,231.4297 Q60.25,231.2578 59.6094,230.9141 Z " fill="#000000"/><text fill="#000000" font-family="sans-serif" font-size="12" font-style="italic" lengthAdjust="spacing" textLength="111" x="91.5" y="222.457">&#171;Configuration File&#187;</text><text fill="#000000" font-family="sans-serif" font-size="14" lengthAdjust="spacing" textLength="143" x="75.5" y="239.627">ConfigurationOfheMap</text><line style="stroke:#181818;stroke-width:0.5;" x1="47.5" x2="220.5" y1="247.7031" y2="247.7031"/><line style="stroke:#181818;stroke-width:0.5;" x1="47.5" x2="220.5" y1="255.7031" y2="255.7031"/></g><!--class ConfigurationOfTheBaseQuery--><g id="elem_ConfigurationOfTheBaseQuery"><rect codeLine="49" fill="#F1F1F1" height="58.7031" id="ConfigurationOfTheBaseQuery" rx="2.5" ry="2.5" style="stroke:#181818;stroke-width:0.5;" width="228" x="189" y="324"/><ellipse cx="204" cy="345.3516" fill="#F1F1F1" rx="11" ry="11" style="stroke:#181818;stroke-width:1.0;"/><path d="M202.1094,349.9141 Q201.8906,350.1797 201.75,350.2578 Q201.6094,350.3359 201.4219,350.3359 Q201.0313,350.3359 200.7813,350.0703 Q200.5469,349.8047 200.5469,349.2109 L200.5469,348.0547 Q200.5469,347.4453 200.7813,347.1953 Q201.0313,346.9297 201.4219,346.9297 Q201.7188,346.9297 201.9219,347.0859 Q202.125,347.2422 202.2344,347.6172 Q202.3438,347.9766 202.4531,348.1172 Q202.7031,348.3672 203.3125,348.6328 Q203.9219,348.8984 204.6563,348.8984 Q205.7969,348.8984 206.5156,348.3672 Q206.9844,348.0391 206.9844,347.5703 Q206.9844,347.2578 206.7656,346.9766 Q206.5469,346.6953 206.0313,346.5234 Q205.7031,346.3984 204.5469,346.1797 Q203.1563,345.9141 202.4375,345.5547 Q201.7188,345.1953 201.2969,344.5391 Q200.8906,343.8672 200.8906,343.0859 Q200.8906,341.8672 201.9063,340.9609 Q202.9375,340.0391 204.5781,340.0391 Q205.2344,340.0391 205.7813,340.1797 Q206.3438,340.3203 206.8125,340.6172 Q207.1406,340.3047 207.4688,340.3047 Q207.8438,340.3047 208.0781,340.5703 Q208.3125,340.8203 208.3125,341.4297 L208.3125,342.7109 Q208.3125,343.3203 208.0781,343.5859 Q207.8438,343.8359 207.4688,343.8359 Q207.1563,343.8359 206.9219,343.6484 Q206.7344,343.5078 206.6406,343.0859 Q206.5625,342.6641 206.4219,342.4766 Q206.1719,342.1641 205.6875,341.9609 Q205.2188,341.7422 204.5781,341.7422 Q203.6563,341.7422 203.125,342.1641 Q202.5938,342.5859 202.5938,343.0547 Q202.5938,343.3672 202.8125,343.6641 Q203.0313,343.9609 203.4531,344.1328 Q203.7344,344.2422 205.0313,344.5078 Q206.3438,344.7578 207.0469,345.0703 Q207.75,345.3672 208.2188,346.0234 Q208.6875,346.6797 208.6875,347.5859 Q208.6875,348.8516 207.7969,349.6016 Q206.6094,350.6016 204.7813,350.6016 Q204.0781,350.6016 203.4063,350.4297 Q202.75,350.2578 202.1094,349.9141 Z " fill="#000000"/><text fill="#000000" font-family="sans-serif" font-size="12" font-style="italic" lengthAdjust="spacing" textLength="111" x="260.5" y="341.457">&#171;Configuration File&#187;</text><text fill="#000000" font-family="sans-serif" font-size="14" lengthAdjust="spacing" textLength="196" x="218" y="358.627">ConfigurationOfTheBaseQuery</text><line style="stroke:#181818;stroke-width:0.5;" x1="190" x2="416" y1="366.7031" y2="366.7031"/><line style="stroke:#181818;stroke-width:0.5;" x1="190" x2="416" y1="374.7031" y2="374.7031"/></g><!--class DiscoveryRequester--><g id="elem_DiscoveryRequester"><rect codeLine="52" fill="#F1F1F1" height="58.7031" id="DiscoveryRequester" rx="2.5" ry="2.5" style="stroke:#181818;stroke-width:0.5;" width="160" x="257" y="205"/><ellipse cx="272" cy="226.3516" fill="#ADD1B2" rx="11" ry="11" style="stroke:#181818;stroke-width:1.0;"/><path d="M274.7656,222.2266 Q274.9219,222.0078 275.1094,221.8984 Q275.2969,221.7891 275.5156,221.7891 Q275.8906,221.7891 276.125,222.0547 Q276.3594,222.3047 276.3594,222.9141 L276.3594,224.3672 Q276.3594,224.9766 276.125,225.2422 Q275.8906,225.5078 275.5156,225.5078 Q275.1719,225.5078 274.9688,225.3047 Q274.7656,225.1172 274.6563,224.6016 Q274.6094,224.2422 274.4219,224.0547 Q274.0938,223.6797 273.4844,223.4609 Q272.875,223.2422 272.25,223.2422 Q271.4844,223.2422 270.8438,223.5703 Q270.2188,223.8984 269.7188,224.6484 Q269.2344,225.3984 269.2344,226.4297 L269.2344,227.5234 Q269.2344,228.7578 270.125,229.5859 Q271.0156,230.3984 272.6094,230.3984 Q273.5469,230.3984 274.2031,230.1484 Q274.5938,229.9922 275.0156,229.5547 Q275.2813,229.2891 275.4219,229.2109 Q275.5781,229.1328 275.7813,229.1328 Q276.1094,229.1328 276.3594,229.3984 Q276.625,229.6484 276.625,229.9922 Q276.625,230.3359 276.2813,230.7422 Q275.7813,231.3203 274.9844,231.6484 Q273.9063,232.1016 272.6094,232.1016 Q271.0938,232.1016 269.8906,231.4766 Q268.9063,230.9766 268.2188,229.9141 Q267.5313,228.8359 267.5313,227.5547 L267.5313,226.3984 Q267.5313,225.0703 268.1406,223.9297 Q268.7656,222.7734 269.8594,222.1641 Q270.9531,221.5391 272.1875,221.5391 Q272.9219,221.5391 273.5625,221.7109 Q274.2188,221.8672 274.7656,222.2266 Z " fill="#000000"/><text fill="#000000" font-family="sans-serif" font-size="12" font-style="italic" lengthAdjust="spacing" textLength="82" x="309" y="222.457">&#171;ROS2 Client&#187;</text><text fill="#000000" font-family="sans-serif" font-size="14" lengthAdjust="spacing" textLength="128" x="286" y="239.627">DiscoveryRequester</text><line style="stroke:#181818;stroke-width:0.5;" x1="258" x2="416" y1="247.7031" y2="247.7031"/><line style="stroke:#181818;stroke-width:0.5;" x1="258" x2="416" y1="255.7031" y2="255.7031"/></g><!--class VehicleService--><g id="elem_VehicleService"><rect codeLine="55" fill="#F1F1F1" height="48" id="VehicleService" rx="2.5" ry="2.5" style="stroke:#181818;stroke-width:0.5;" width="125" x="172.5" y="91.5"/><ellipse cx="187.5" cy="107.5" fill="#ADD1B2" rx="11" ry="11" style="stroke:#181818;stroke-width:1.0;"/><path d="M190.2656,103.375 Q190.4219,103.1563 190.6094,103.0469 Q190.7969,102.9375 191.0156,102.9375 Q191.3906,102.9375 191.625,103.2031 Q191.8594,103.4531 191.8594,104.0625 L191.8594,105.5156 Q191.8594,106.125 191.625,106.3906 Q191.3906,106.6563 191.0156,106.6563 Q190.6719,106.6563 190.4688,106.4531 Q190.2656,106.2656 190.1563,105.75 Q190.1094,105.3906 189.9219,105.2031 Q189.5938,104.8281 188.9844,104.6094 Q188.375,104.3906 187.75,104.3906 Q186.9844,104.3906 186.3438,104.7188 Q185.7188,105.0469 185.2188,105.7969 Q184.7344,106.5469 184.7344,107.5781 L184.7344,108.6719 Q184.7344,109.9063 185.625,110.7344 Q186.5156,111.5469 188.1094,111.5469 Q189.0469,111.5469 189.7031,111.2969 Q190.0938,111.1406 190.5156,110.7031 Q190.7813,110.4375 190.9219,110.3594 Q191.0781,110.2813 191.2813,110.2813 Q191.6094,110.2813 191.8594,110.5469 Q192.125,110.7969 192.125,111.1406 Q192.125,111.4844 191.7813,111.8906 Q191.2813,112.4688 190.4844,112.7969 Q189.4063,113.25 188.1094,113.25 Q186.5938,113.25 185.3906,112.625 Q184.4063,112.125 183.7188,111.0625 Q183.0313,109.9844 183.0313,108.7031 L183.0313,107.5469 Q183.0313,106.2188 183.6406,105.0781 Q184.2656,103.9219 185.3594,103.3125 Q186.4531,102.6875 187.6875,102.6875 Q188.4219,102.6875 189.0625,102.8594 Q189.7188,103.0156 190.2656,103.375 Z " fill="#000000"/><text fill="#000000" font-family="sans-serif" font-size="14" lengthAdjust="spacing" textLength="93" x="201.5" y="113.2285">VehicleService</text><line style="stroke:#181818;stroke-width:0.5;" x1="173.5" x2="296.5" y1="123.5" y2="123.5"/><line style="stroke:#181818;stroke-width:0.5;" x1="173.5" x2="296.5" y1="131.5" y2="131.5"/></g><!--link RegistrationRequestReceiver to ServiceRegister--><g id="link_RegistrationRequestReceiver_ServiceRegister"><path codeLine="14" d="M1088,145.12 C1088,165.15 1088,185.56 1088,204.28 " fill="none" id="RegistrationRequestReceiver-to-ServiceRegister" style="stroke:#181818;stroke-width:1.0;"/><polygon fill="#181818" points="1088,210.28,1092,201.28,1088,205.28,1084,201.28,1088,210.28" style="stroke:#181818;stroke-width:1.0;"/></g><!--link RegistrationRequester to RSUServiceconfiguration--><g id="link_RegistrationRequester_RSUServiceconfiguration"><path codeLine="29" d="M828,264.12 C828,282.25 828,299.62 828,317.77 " fill="none" id="RegistrationRequester-to-RSUServiceconfiguration" style="stroke:#181818;stroke-width:1.0;"/><polygon fill="#181818" points="828,323.77,832,314.77,828,318.77,824,314.77,828,323.77" style="stroke:#181818;stroke-width:1.0;"/></g><!--link RSUService to RegistrationRequester--><g id="link_RSUService_RegistrationRequester"><path codeLine="30" d="M828,139.62 C828,158.26 828,178.59 828,198.63 " fill="none" id="RSUService-to-RegistrationRequester" style="stroke:#181818;stroke-width:1.0;"/><polygon fill="#181818" points="828,204.63,832,195.63,828,199.63,824,195.63,828,204.63" style="stroke:#181818;stroke-width:1.0;"/></g><!--link DiscoveryRequestReceiver to ServiceDiscovery--><g id="link_DiscoveryRequestReceiver_ServiceDiscovery"><path codeLine="40" d="M575,145.12 C575,165.15 575,185.56 575,204.28 " fill="none" id="DiscoveryRequestReceiver-to-ServiceDiscovery" style="stroke:#181818;stroke-width:1.0;"/><polygon fill="#181818" points="575,210.28,579,201.28,575,205.28,571,201.28,575,210.28" style="stroke:#181818;stroke-width:1.0;"/></g><!--link VehicleService to DiscoveryRequester--><g id="link_VehicleService_DiscoveryRequester"><path codeLine="58" d="M255.15,139.62 C271.41,158.26 290.4173,180.0673 307.8873,200.1073 " fill="none" id="VehicleService-to-DiscoveryRequester" style="stroke:#181818;stroke-width:1.0;"/><polygon fill="#181818" points="311.83,204.63,308.9311,195.2174,308.5444,200.8611,302.9008,200.4744,311.83,204.63" style="stroke:#181818;stroke-width:1.0;"/></g><!--link DiscoveryRequester to ConfigurationOfTheBaseQuery--><g id="link_DiscoveryRequester_ConfigurationOfTheBaseQuery"><path codeLine="59" d="M328.68,264.12 C323.41,282.25 318.2931,299.858 313.0231,318.008 " fill="none" id="DiscoveryRequester-to-ConfigurationOfTheBaseQuery" style="stroke:#181818;stroke-width:1.0;"/><polygon fill="#181818" points="311.35,323.77,317.7009,316.2423,312.7442,318.9683,310.0182,314.0116,311.35,323.77" style="stroke:#181818;stroke-width:1.0;"/></g><!--link VehicleService to ConfigurationOfheMap--><g id="link_VehicleService_ConfigurationOfheMap"><path codeLine="60" d="M215.05,139.62 C198.95,158.26 180.1395,180.0471 162.8495,200.0871 " fill="none" id="VehicleService-to-ConfigurationOfheMap" style="stroke:#181818;stroke-width:1.0;"/><polygon fill="#181818" points="158.93,204.63,167.8378,200.4287,162.1962,200.8443,161.7806,195.2027,158.93,204.63" style="stroke:#181818;stroke-width:1.0;"/></g><!--SRC=[ZLBBReCm4BpxAxZrH95wh2AaDbLlLLHeUxUS3LWnZzhhI0ZnxmLi20-JnZSpE-EP7HvIn58z1q4fQ8uw4u-io08cg5B-aTD4qemGKb9sfWbuBngBZ28SuqeXP3KXNdi6D0PvuGnK10bNA2iBTwSN70OC3h8UuMOvQIKeyYAFu5U3mWWOy0j8RxUB3l5JBmOo39qgj_Y-7owT669p3Hh5tzPzgw8PTXyiXnNvYIVQQBTczhFxEnSmUB9-RA9Hm0MkxLw3xWM771UYRaONRSEfOOsO6NM9aCaQXaRVk695kxkg9gis5zWiruZTrQ6bRf8cnOqpP6ht1rBE1CoRc_LpEANmGSjxQdFJlr9ufGe-TVls_UKl8_rJhY7PDAw_PWxrYra_uLocNUEDL5iFkFOuU6h87m00]--></g></svg>