<?xml version="1.0" encoding="us-ascii" standalone="no"?><svg xmlns="http://www.w3.org/2000/svg" xmlns:xlink="http://www.w3.org/1999/xlink" contentStyleType="text/css" height="493px" preserveAspectRatio="none" style="width:1497px;height:493px;background:#FFFFFF;" version="1.1" viewBox="0 0 1497 493" width="1497px" zoomAndPan="magnify"><defs/><g><rect fill="#F8F8FF" height="481.7891" style="stroke:#181818;stroke-width:0.5;" width="1071.5" x="11" y="6"/><text fill="#000000" font-family="sans-serif" font-size="13" font-weight="bold" lengthAdjust="spacing" textLength="115" x="489.25" y="19.4951">AutomatedSystem</text><rect fill="#20B2AA" height="460.4375" style="stroke:#181818;stroke-width:0.5;" width="1071.5" x="11" y="27.3516"/><text fill="#000000" font-family="sans-serif" font-size="13" font-weight="bold" lengthAdjust="spacing" textLength="48" x="522.75" y="40.8467">Vehicle</text><rect fill="#ADD8E6" height="439.0859" style="stroke:#181818;stroke-width:0.5;" width="462.5" x="11" y="48.7031"/><text fill="#000000" font-family="sans-serif" font-size="13" font-weight="bold" lengthAdjust="spacing" textLength="129" x="177.75" y="62.1982">VehicleServiceNode</text><rect fill="#90EE90" height="439.0859" style="stroke:#181818;stroke-width:0.5;" width="501.5" x="581" y="48.7031"/><text fill="#000000" font-family="sans-serif" font-size="13" font-weight="bold" lengthAdjust="spacing" textLength="257" x="703.25" y="62.1982">ArrowheadCommunicaterDiscoveryNode</text><rect fill="#FFFFE0" height="481.7891" style="stroke:#181818;stroke-width:0.5;" width="121" x="1370" y="6"/><text fill="#000000" font-family="sans-serif" font-size="13" font-weight="bold" lengthAdjust="spacing" textLength="70" x="1395.5" y="19.4951">Arrowhead</text><line style="stroke:#000000;stroke-width:0.5;stroke-dasharray:5.0,5.0;" x1="68.5" x2="68.5" y1="101.6641" y2="449.1797"/><rect fill="#000000" height="339.5156" style="stroke:#000000;stroke-width:1.0;" width="10" x="63.5" y="109.6641"/><line style="stroke:#000000;stroke-width:0.5;stroke-dasharray:5.0,5.0;" x1="398.5" x2="398.5" y1="101.6641" y2="449.1797"/><rect fill="#000000" height="255.8125" style="stroke:#000000;stroke-width:1.0;" width="10" x="393.5" y="132.0156"/><line style="stroke:#000000;stroke-width:0.5;stroke-dasharray:5.0,5.0;" x1="677.5" x2="677.5" y1="101.6641" y2="449.1797"/><rect fill="#000000" height="195.1094" style="stroke:#000000;stroke-width:1.0;" width="10" x="672.5" y="162.3672"/><line style="stroke:#000000;stroke-width:0.5;stroke-dasharray:5.0,5.0;" x1="995.5" x2="995.5" y1="101.6641" y2="449.1797"/><rect fill="#000000" height="134.4063" style="stroke:#000000;stroke-width:1.0;" width="10" x="990.5" y="192.7188"/><line style="stroke:#000000;stroke-width:0.5;stroke-dasharray:5.0,5.0;" x1="1430.5" x2="1430.5" y1="101.6641" y2="449.1797"/><rect fill="#000000" height="30.3516" style="stroke:#000000;stroke-width:1.0;" width="10" x="1425.5" y="223.0703"/><rect fill="#000000" height="31.6094" rx="2.5" ry="2.5" style="stroke:#000000;stroke-width:0.5;" width="107" x="15" y="69.0547"/><text fill="#FFFFFF" font-family="sans-serif" font-size="14" lengthAdjust="spacing" textLength="93" x="22" y="90.5879">VehicleService</text><rect fill="#000000" height="31.6094" rx="2.5" ry="2.5" style="stroke:#000000;stroke-width:0.5;" width="142" x="327.5" y="69.0547"/><text fill="#FFFFFF" font-family="sans-serif" font-size="14" lengthAdjust="spacing" textLength="128" x="334.5" y="90.5879">DiscoveryRequester</text><rect fill="#000000" height="31.6094" rx="2.5" ry="2.5" style="stroke:#000000;stroke-width:0.5;" width="185" x="585" y="69.0547"/><text fill="#FFFFFF" font-family="sans-serif" font-size="14" lengthAdjust="spacing" textLength="171" x="592" y="90.5879">DiscoveryRequestReceiver</text><rect fill="#000000" height="31.6094" rx="2.5" ry="2.5" style="stroke:#000000;stroke-width:0.5;" width="166" x="912.5" y="69.0547"/><text fill="#FFFFFF" font-family="sans-serif" font-size="14" lengthAdjust="spacing" textLength="152" x="919.5" y="90.5879">DiscoveryServicesClient</text><rect fill="#000000" height="31.6094" rx="2.5" ry="2.5" style="stroke:#000000;stroke-width:0.5;" width="113" x="1374" y="69.0547"/><text fill="#FFFFFF" font-family="sans-serif" font-size="14" lengthAdjust="spacing" textLength="99" x="1381" y="90.5879">ServiceRegistry</text><rect fill="#000000" height="31.6094" rx="2.5" ry="2.5" style="stroke:#000000;stroke-width:0.5;" width="107" x="15" y="449.1797"/><text fill="#FFFFFF" font-family="sans-serif" font-size="14" lengthAdjust="spacing" textLength="93" x="22" y="470.7129">VehicleService</text><rect fill="#000000" height="31.6094" rx="2.5" ry="2.5" style="stroke:#000000;stroke-width:0.5;" width="142" x="327.5" y="449.1797"/><text fill="#FFFFFF" font-family="sans-serif" font-size="14" lengthAdjust="spacing" textLength="128" x="334.5" y="470.7129">DiscoveryRequester</text><rect fill="#000000" height="31.6094" rx="2.5" ry="2.5" style="stroke:#000000;stroke-width:0.5;" width="185" x="585" y="449.1797"/><text fill="#FFFFFF" font-family="sans-serif" font-size="14" lengthAdjust="spacing" textLength="171" x="592" y="470.7129">DiscoveryRequestReceiver</text><rect fill="#000000" height="31.6094" rx="2.5" ry="2.5" style="stroke:#000000;stroke-width:0.5;" width="166" x="912.5" y="449.1797"/><text fill="#FFFFFF" font-family="sans-serif" font-size="14" lengthAdjust="spacing" textLength="152" x="919.5" y="470.7129">DiscoveryServicesClient</text><rect fill="#000000" height="31.6094" rx="2.5" ry="2.5" style="stroke:#000000;stroke-width:0.5;" width="113" x="1374" y="449.1797"/><text fill="#FFFFFF" font-family="sans-serif" font-size="14" lengthAdjust="spacing" textLength="99" x="1381" y="470.7129">ServiceRegistry</text><polygon fill="#000000" points="381.5,128.0156,391.5,132.0156,381.5,136.0156,385.5,132.0156" style="stroke:#000000;stroke-width:1.0;"/><line style="stroke:#000000;stroke-width:1.0;" x1="73.5" x2="387.5" y1="132.0156" y2="132.0156"/><text fill="#000000" font-family="sans-serif" font-size="13" font-weight="bold" lengthAdjust="spacing" textLength="301" x="80.5" y="127.1592">requestForNextRSUsServices(ServicesLocation)</text><polygon fill="#000000" points="660.5,158.3672,670.5,162.3672,660.5,166.3672,664.5,162.3672" style="stroke:#000000;stroke-width:1.0;"/><line style="stroke:#000000;stroke-width:1.0;" x1="403.5" x2="666.5" y1="162.3672" y2="162.3672"/><text fill="#000000" font-family="sans-serif" font-size="13" font-weight="bold" lengthAdjust="spacing" textLength="250" x="410.5" y="157.5107">sends request {Body: ServicesLocation}</text><polygon fill="#000000" points="978.5,188.7188,988.5,192.7188,978.5,196.7188,982.5,192.7188" style="stroke:#000000;stroke-width:1.0;"/><line style="stroke:#000000;stroke-width:1.0;" x1="682.5" x2="984.5" y1="192.7188" y2="192.7188"/><text fill="#000000" font-family="sans-serif" font-size="13" font-weight="bold" lengthAdjust="spacing" textLength="289" x="689.5" y="187.8623">obtainServicesTopicNames(ServicesLocation)</text><polygon fill="#000000" points="1413.5,219.0703,1423.5,223.0703,1413.5,227.0703,1417.5,223.0703" style="stroke:#000000;stroke-width:1.0;"/><line style="stroke:#000000;stroke-width:1.0;" x1="1000.5" x2="1419.5" y1="223.0703" y2="223.0703"/><text fill="#000000" font-family="sans-serif" font-size="13" font-weight="bold" lengthAdjust="spacing" textLength="406" x="1007.5" y="218.2139">sends POST request for RSUs Services {Body: ServicesLocation}</text><polygon fill="#000000" points="1011.5,249.4219,1001.5,253.4219,1011.5,257.4219,1007.5,253.4219" style="stroke:#000000;stroke-width:1.0;"/><line style="stroke:#000000;stroke-width:1.0;stroke-dasharray:2.0,2.0;" x1="1005.5" x2="1424.5" y1="253.4219" y2="253.4219"/><text fill="#000000" font-family="sans-serif" font-size="13" font-weight="bold" lengthAdjust="spacing" textLength="398" x="1017.5" y="248.5654">sends 200 OK with RSUs Services found {Body: ServicesFound}</text><line style="stroke:#000000;stroke-width:1.0;" x1="1000.5" x2="1042.5" y1="283.7734" y2="283.7734"/><line style="stroke:#000000;stroke-width:1.0;" x1="1042.5" x2="1042.5" y1="283.7734" y2="296.7734"/><line style="stroke:#000000;stroke-width:1.0;" x1="1001.5" x2="1042.5" y1="296.7734" y2="296.7734"/><polygon fill="#000000" points="1011.5,292.7734,1001.5,296.7734,1011.5,300.7734,1007.5,296.7734" style="stroke:#000000;stroke-width:1.0;"/><text fill="#000000" font-family="sans-serif" font-size="13" font-weight="bold" lengthAdjust="spacing" textLength="265" x="1007.5" y="278.917">fitersServicesTopicNames(ServicesFound)</text><polygon fill="#000000" points="693.5,323.125,683.5,327.125,693.5,331.125,689.5,327.125" style="stroke:#000000;stroke-width:1.0;"/><line style="stroke:#000000;stroke-width:1.0;stroke-dasharray:2.0,2.0;" x1="687.5" x2="989.5" y1="327.125" y2="327.125"/><text fill="#000000" font-family="sans-serif" font-size="13" font-weight="bold" lengthAdjust="spacing" textLength="129" x="699.5" y="322.2686">servicesTopicNames</text><polygon fill="#000000" points="414.5,353.4766,404.5,357.4766,414.5,361.4766,410.5,357.4766" style="stroke:#000000;stroke-width:1.0;"/><line style="stroke:#000000;stroke-width:1.0;stroke-dasharray:2.0,2.0;" x1="408.5" x2="671.5" y1="357.4766" y2="357.4766"/><text fill="#000000" font-family="sans-serif" font-size="13" font-weight="bold" lengthAdjust="spacing" textLength="217" x="420.5" y="352.6201">sends services Topic Names found</text><polygon fill="#000000" points="84.5,383.8281,74.5,387.8281,84.5,391.8281,80.5,387.8281" style="stroke:#000000;stroke-width:1.0;"/><line style="stroke:#000000;stroke-width:1.0;stroke-dasharray:2.0,2.0;" x1="78.5" x2="392.5" y1="387.8281" y2="387.8281"/><text fill="#000000" font-family="sans-serif" font-size="13" font-weight="bold" lengthAdjust="spacing" textLength="177" x="90.5" y="382.9717">services Topic Names found</text><line style="stroke:#000000;stroke-width:1.0;stroke-dasharray:2.0,2.0;" x1="73.5" x2="115.5" y1="418.1797" y2="418.1797"/><line style="stroke:#000000;stroke-width:1.0;stroke-dasharray:2.0,2.0;" x1="115.5" x2="115.5" y1="418.1797" y2="431.1797"/><line style="stroke:#000000;stroke-width:1.0;stroke-dasharray:2.0,2.0;" x1="74.5" x2="115.5" y1="431.1797" y2="431.1797"/><polygon fill="#000000" points="84.5,427.1797,74.5,431.1797,84.5,435.1797,80.5,431.1797" style="stroke:#000000;stroke-width:1.0;"/><text fill="#000000" font-family="sans-serif" font-size="13" font-weight="bold" lengthAdjust="spacing" textLength="266" x="80.5" y="413.3232">subscribes to Services Topic Names found</text><!--SRC=[dLJDZjem4BxxATpjfNjOQTLJbKEbPIjwA68hictLet46Cjh4Gsq7DbtnxdKIOXAJ02gHa3CpcUzdRB_RQB7E1RT0VxdL1J1cNb1jX1OvT_yM9Mw4iloDSVUR2FcorbIev94oqdoIkK2J8Ps03gDJKhQ9_KhH0jjtsnluKu2ISEZze3NjmWOpNC4C5GotzzbHMcr5ICG3LedObXau1LbInokMIthbDm-5fLnOIEBIMCXl-Flf9_TCMLrMb_o456K6BZN3TMfZ45yrW6egmgeOz1Obp2dn7qoo0dnjr-_-9uCbNz18se8k5vMHZg7sPQ2I2ZcWKGjEGJYNyhnGA9qsxRjqQJKYhW5TW0JSTg07Ymyop6E6eEmmJV_Y5ttIBRVVa6MqOrsSG_i5hD5ONHux26bnwrI6ThB-Ex_xFE1cn7Mpd9AUmwjTn3zCA-H3kvYHSn59tHwn1kR2JcD3cAsPaJiRAZ4jFd-RK596FCJSZsFwiR2nJ0-_Fv-8qz8AL6tqcJOevoA_KdOmR3QIg0W4WsjrVt-AdxtubJkqbVLU_XLsX1k21G5-TqvzG-BZ_Jr_-iPtQDC0VrNTD26BQHNSimJ6IPmnOfJBojrMsfoPH8rxEzxxmZOB-tO5N9xeoPuQEKYDeoqQh-5uZTUOEOXwSIiV0FjdEVfFc0eWl1M6cXTB8pKkNKjBnorn2lKF]--></g></svg>