<?xml version="1.0" encoding="us-ascii" standalone="no"?><svg xmlns="http://www.w3.org/2000/svg" xmlns:xlink="http://www.w3.org/1999/xlink" contentStyleType="text/css" height="351px" preserveAspectRatio="none" style="width:916px;height:351px;background:#FFFFFF;" version="1.1" viewBox="0 0 916 351" width="916px" zoomAndPan="magnify"><defs/><g><rect fill="#F8F8FF" height="339.0313" style="stroke:#181818;stroke-width:0.5;" width="899.5" x="11" y="6"/><text fill="#000000" font-family="sans-serif" font-size="13" font-weight="bold" lengthAdjust="spacing" textLength="115" x="403.25" y="19.4951">AutomatedSystem</text><rect fill="#20B2AA" height="317.6797" style="stroke:#181818;stroke-width:0.5;" width="525.5" x="11" y="27.3516"/><text fill="#000000" font-family="sans-serif" font-size="13" font-weight="bold" lengthAdjust="spacing" textLength="48" x="249.75" y="40.8467">Vehicle</text><rect fill="#FFFFE0" height="317.6797" style="stroke:#181818;stroke-width:0.5;" width="121" x="789.5" y="27.3516"/><text fill="#000000" font-family="sans-serif" font-size="13" font-weight="bold" lengthAdjust="spacing" textLength="70" x="815" y="40.8467">Arrowhead</text><line style="stroke:#000000;stroke-width:0.5;stroke-dasharray:5.0,5.0;" x1="85" x2="85" y1="80.3125" y2="306.4219"/><rect fill="#000000" height="218.1094" style="stroke:#000000;stroke-width:1.0;" width="10" x="80" y="88.3125"/><line style="stroke:#000000;stroke-width:0.5;stroke-dasharray:5.0,5.0;" x1="415" x2="415" y1="80.3125" y2="306.4219"/><rect fill="#000000" height="134.4063" style="stroke:#000000;stroke-width:1.0;" width="10" x="410" y="110.6641"/><line style="stroke:#000000;stroke-width:0.5;stroke-dasharray:5.0,5.0;" x1="850" x2="850" y1="80.3125" y2="306.4219"/><rect fill="#000000" height="30.3516" style="stroke:#000000;stroke-width:1.0;" width="10" x="845" y="141.0156"/><rect fill="#000000" height="31.6094" rx="2.5" ry="2.5" style="stroke:#000000;stroke-width:0.5;" width="140" x="15" y="47.7031"/><text fill="#FFFFFF" font-family="sans-serif" font-size="14" lengthAdjust="spacing" textLength="126" x="22" y="69.2363">VehicleServiceNode</text><rect fill="#000000" height="31.6094" rx="2.5" ry="2.5" style="stroke:#000000;stroke-width:0.5;" width="235" x="297.5" y="47.7031"/><text fill="#FFFFFF" font-family="sans-serif" font-size="14" lengthAdjust="spacing" textLength="221" x="304.5" y="69.2363">ArrowheadCommunicaterDiscovery</text><rect fill="#000000" height="31.6094" rx="2.5" ry="2.5" style="stroke:#000000;stroke-width:0.5;" width="113" x="793.5" y="47.7031"/><text fill="#FFFFFF" font-family="sans-serif" font-size="14" lengthAdjust="spacing" textLength="99" x="800.5" y="69.2363">ServiceRegistry</text><rect fill="#000000" height="31.6094" rx="2.5" ry="2.5" style="stroke:#000000;stroke-width:0.5;" width="140" x="15" y="306.4219"/><text fill="#FFFFFF" font-family="sans-serif" font-size="14" lengthAdjust="spacing" textLength="126" x="22" y="327.9551">VehicleServiceNode</text><rect fill="#000000" height="31.6094" rx="2.5" ry="2.5" style="stroke:#000000;stroke-width:0.5;" width="235" x="297.5" y="306.4219"/><text fill="#FFFFFF" font-family="sans-serif" font-size="14" lengthAdjust="spacing" textLength="221" x="304.5" y="327.9551">ArrowheadCommunicaterDiscovery</text><rect fill="#000000" height="31.6094" rx="2.5" ry="2.5" style="stroke:#000000;stroke-width:0.5;" width="113" x="793.5" y="306.4219"/><text fill="#FFFFFF" font-family="sans-serif" font-size="14" lengthAdjust="spacing" textLength="99" x="800.5" y="327.9551">ServiceRegistry</text><polygon fill="#000000" points="398,106.6641,408,110.6641,398,114.6641,402,110.6641" style="stroke:#000000;stroke-width:1.0;"/><line style="stroke:#000000;stroke-width:1.0;" x1="90" x2="404" y1="110.6641" y2="110.6641"/><text fill="#000000" font-family="sans-serif" font-size="13" font-weight="bold" lengthAdjust="spacing" textLength="301" x="97" y="105.8076">requestForNextRSUsServices(ServicesLocation)</text><polygon fill="#000000" points="833,137.0156,843,141.0156,833,145.0156,837,141.0156" style="stroke:#000000;stroke-width:1.0;"/><line style="stroke:#000000;stroke-width:1.0;" x1="420" x2="839" y1="141.0156" y2="141.0156"/><text fill="#000000" font-family="sans-serif" font-size="13" font-weight="bold" lengthAdjust="spacing" textLength="406" x="427" y="136.1592">sends POST request for RSUs Services {Body: ServicesLocation}</text><polygon fill="#000000" points="431,167.3672,421,171.3672,431,175.3672,427,171.3672" style="stroke:#000000;stroke-width:1.0;"/><line style="stroke:#000000;stroke-width:1.0;stroke-dasharray:2.0,2.0;" x1="425" x2="844" y1="171.3672" y2="171.3672"/><text fill="#000000" font-family="sans-serif" font-size="13" font-weight="bold" lengthAdjust="spacing" textLength="398" x="437" y="166.5107">sends 200 OK with RSUs Services found {Body: ServicesFound}</text><line style="stroke:#000000;stroke-width:1.0;" x1="420" x2="462" y1="201.7188" y2="201.7188"/><line style="stroke:#000000;stroke-width:1.0;" x1="462" x2="462" y1="201.7188" y2="214.7188"/><line style="stroke:#000000;stroke-width:1.0;" x1="421" x2="462" y1="214.7188" y2="214.7188"/><polygon fill="#000000" points="431,210.7188,421,214.7188,431,218.7188,427,214.7188" style="stroke:#000000;stroke-width:1.0;"/><text fill="#000000" font-family="sans-serif" font-size="13" font-weight="bold" lengthAdjust="spacing" textLength="265" x="427" y="196.8623">fitersServicesTopicNames(ServicesFound)</text><polygon fill="#000000" points="101,241.0703,91,245.0703,101,249.0703,97,245.0703" style="stroke:#000000;stroke-width:1.0;"/><line style="stroke:#000000;stroke-width:1.0;stroke-dasharray:2.0,2.0;" x1="95" x2="409" y1="245.0703" y2="245.0703"/><text fill="#000000" font-family="sans-serif" font-size="13" font-weight="bold" lengthAdjust="spacing" textLength="220" x="107" y="240.2139">sends Services Topic Names found</text><line style="stroke:#000000;stroke-width:1.0;" x1="90" x2="132" y1="275.4219" y2="275.4219"/><line style="stroke:#000000;stroke-width:1.0;" x1="132" x2="132" y1="275.4219" y2="288.4219"/><line style="stroke:#000000;stroke-width:1.0;" x1="91" x2="132" y1="288.4219" y2="288.4219"/><polygon fill="#000000" points="101,284.4219,91,288.4219,101,292.4219,97,288.4219" style="stroke:#000000;stroke-width:1.0;"/><text fill="#000000" font-family="sans-serif" font-size="13" font-weight="bold" lengthAdjust="spacing" textLength="266" x="97" y="270.5654">subscribes to Services Topic Names found</text><!--SRC=[ZPF1JkD038RlUOfPk2m79CG9SLY9WiA1ggm82zhZTCPjB99nyJWjNTHttqdQHD6q9RHIbTh_-F_iSNuiMCzBhGJednAk84dy6xg5Pbsgy2jeSA6TgCz4XSz8cxSvK-NiBHN4QbI4m3P3R87ZQ4fEjh7N70MIJR-yX_SAd85TxHjcMiK5nZY3CJeuNBxB7iLg5J58PrWdCbaN43eeR02SqeSwkQc4IYrWixKNA4_KQNeLlcdI76maBv2ZAI2anZZF9GDzpm2k4VG7jzDbm4iqC24BUv8690STwCkoScY2Cz-XDxG4NZToSBQsxVbtXrg2lr0KjDehlZD-WZbwYQjr3ze8BeFj8Tpza3h_DG1zhRY-NIyfyGG-v2dxutS5_C_sOKpX498xw_aFpEBhTCqLzNiTrinPhtu_Piyjavg5FQY9Mh5NdoEoGHkJRNfayI2Z_-hy6qFPibnUNAZ71xL2oIECMRt3CKnQ1pU9XQCetnZB4Dail1NSNT4pBT1CTDcxh8RYRDWgUEqlJDjvrsXZe1g7RTFzzWPsuCX27dIjfjumJeEBq5Vk_m40]--></g></svg>