<?xml version="1.0" encoding="us-ascii" standalone="no"?><svg xmlns="http://www.w3.org/2000/svg" xmlns:xlink="http://www.w3.org/1999/xlink" contentStyleType="text/css" height="568px" preserveAspectRatio="none" style="width:1516px;height:568px;background:#FFFFFF;" version="1.1" viewBox="0 0 1516 568" width="1516px" zoomAndPan="magnify"><defs/><g><!--cluster AutomatedSystem--><g id="cluster_AutomatedSystem"><rect fill="#F8F8FF" height="555" rx="2.5" ry="2.5" style="stroke:#000000;stroke-width:1.0;" width="1503" x="7" y="7"/><rect fill="#F8F8FF" height="10" style="stroke:#000000;stroke-width:1.0;" width="15" x="1490" y="12"/><rect fill="#F8F8FF" height="2" style="stroke:#000000;stroke-width:1.0;" width="4" x="1488" y="14"/><rect fill="#F8F8FF" height="2" style="stroke:#000000;stroke-width:1.0;" width="4" x="1488" y="18"/><text fill="#000000" font-family="Arial" font-size="15" font-style="italic" lengthAdjust="spacing" textLength="138" x="689.5" y="34.0698">&#171;AutomatedSystem&#187;</text><text fill="#000000" font-family="Arial" font-size="15" font-weight="bold" lengthAdjust="spacing" textLength="126" x="695.5" y="51.3184">AutomatedSystem</text></g><!--cluster Arrowhead--><g id="cluster_Arrowhead"><rect fill="#FFFAF0" height="256" rx="2.5" ry="2.5" style="stroke:#000000;stroke-width:1.0;" width="207" x="630" y="290"/><rect fill="#FFFAF0" height="10" style="stroke:#000000;stroke-width:1.0;" width="15" x="817" y="295"/><rect fill="#FFFAF0" height="2" style="stroke:#000000;stroke-width:1.0;" width="4" x="815" y="297"/><rect fill="#FFFAF0" height="2" style="stroke:#000000;stroke-width:1.0;" width="4" x="815" y="301"/><text fill="#000000" font-family="Arial" font-size="15" font-style="italic" lengthAdjust="spacing" textLength="85" x="691" y="317.0698">&#171;Arrowhead&#187;</text><text fill="#000000" font-family="Arial" font-size="15" font-weight="bold" lengthAdjust="spacing" textLength="76" x="695.5" y="334.3184">Arrowhead</text></g><!--cluster ServiceRegistry--><g id="cluster_ServiceRegistry"><rect fill="#FFDAB9" height="131.5" rx="2.5" ry="2.5" style="stroke:#000000;stroke-width:1.0;" width="124" x="697.875" y="398.5"/><rect fill="#FFDAB9" height="10" style="stroke:#000000;stroke-width:1.0;" width="15" x="801.875" y="403.5"/><rect fill="#FFDAB9" height="2" style="stroke:#000000;stroke-width:1.0;" width="4" x="799.875" y="405.5"/><rect fill="#FFDAB9" height="2" style="stroke:#000000;stroke-width:1.0;" width="4" x="799.875" y="409.5"/><text fill="#000000" font-family="Arial" font-size="15" font-style="italic" lengthAdjust="spacing" textLength="103" x="708.375" y="425.5698">&#171;HTTP Server&#187;</text><text fill="#000000" font-family="Arial" font-size="15" font-weight="bold" lengthAdjust="spacing" textLength="114" x="702.875" y="442.8184">ServiceRegistry</text></g><!--cluster Vehicle--><g id="cluster_Vehicle"><rect fill="#FFFAF0" height="375" rx="2.5" ry="2.5" style="stroke:#000000;stroke-width:1.0;" width="611" x="883" y="74"/><rect fill="#FFFAF0" height="10" style="stroke:#000000;stroke-width:1.0;" width="15" x="1474" y="79"/><rect fill="#FFFAF0" height="2" style="stroke:#000000;stroke-width:1.0;" width="4" x="1472" y="81"/><rect fill="#FFFAF0" height="2" style="stroke:#000000;stroke-width:1.0;" width="4" x="1472" y="85"/><text fill="#000000" font-family="Arial" font-size="15" font-style="italic" lengthAdjust="spacing" textLength="64" x="1156.5" y="101.0698">&#171;Vehicle&#187;</text><text fill="#000000" font-family="Arial" font-size="15" font-weight="bold" lengthAdjust="spacing" textLength="52" x="1162.5" y="118.3184">Vehicle</text></g><!--cluster ArrowheadCommunicaterDiscover--><g id="cluster_ArrowheadCommunicaterDiscover"><rect fill="#B0C4DE" height="143" rx="2.5" ry="2.5" style="stroke:#000000;stroke-width:1.0;" width="275" x="1203" y="290"/><rect fill="#B0C4DE" height="10" style="stroke:#000000;stroke-width:1.0;" width="15" x="1458" y="295"/><rect fill="#B0C4DE" height="2" style="stroke:#000000;stroke-width:1.0;" width="4" x="1456" y="297"/><rect fill="#B0C4DE" height="2" style="stroke:#000000;stroke-width:1.0;" width="4" x="1456" y="301"/><text fill="#000000" font-family="Arial" font-size="15" font-style="italic" lengthAdjust="spacing" textLength="96" x="1292.5" y="317.0698">&#171;ROS2 Node&#187;</text><text fill="#000000" font-family="Arial" font-size="15" font-weight="bold" lengthAdjust="spacing" textLength="242" x="1219.5" y="334.3184">ArrowheadCommunicaterDiscover</text></g><!--cluster VehicleServiceNode--><g id="cluster_VehicleServiceNode"><rect fill="#B0C4DE" height="154.5" rx="2.5" ry="2.5" style="stroke:#000000;stroke-width:1.0;" width="156" x="949" y="170"/><rect fill="#B0C4DE" height="10" style="stroke:#000000;stroke-width:1.0;" width="15" x="1085" y="175"/><rect fill="#B0C4DE" height="2" style="stroke:#000000;stroke-width:1.0;" width="4" x="1083" y="177"/><rect fill="#B0C4DE" height="2" style="stroke:#000000;stroke-width:1.0;" width="4" x="1083" y="181"/><text fill="#000000" font-family="Arial" font-size="15" font-style="italic" lengthAdjust="spacing" textLength="96" x="979" y="197.0698">&#171;ROS2 Node&#187;</text><text fill="#000000" font-family="Arial" font-size="15" font-weight="bold" lengthAdjust="spacing" textLength="145" x="954.5" y="214.3184">VehicleServiceNode</text></g><!--cluster RSU--><g id="cluster_RSU"><rect fill="#FFFAF0" height="472" rx="2.5" ry="2.5" style="stroke:#000000;stroke-width:1.0;" width="477" x="23" y="74"/><rect fill="#FFFAF0" height="10" style="stroke:#000000;stroke-width:1.0;" width="15" x="480" y="79"/><rect fill="#FFFAF0" height="2" style="stroke:#000000;stroke-width:1.0;" width="4" x="478" y="81"/><rect fill="#FFFAF0" height="2" style="stroke:#000000;stroke-width:1.0;" width="4" x="478" y="85"/><text fill="#000000" font-family="Arial" font-size="15" font-style="italic" lengthAdjust="spacing" textLength="48" x="237.5" y="101.0698">&#171;RSU&#187;</text><text fill="#000000" font-family="Arial" font-size="15" font-weight="bold" lengthAdjust="spacing" textLength="32" x="245.5" y="118.3184">RSU</text></g><!--cluster RSUServiceNode--><g id="cluster_RSUServiceNode"><rect fill="#B0C4DE" height="131.5" rx="2.5" ry="2.5" style="stroke:#000000;stroke-width:1.0;" width="141" x="39" y="398.5"/><rect fill="#B0C4DE" height="10" style="stroke:#000000;stroke-width:1.0;" width="15" x="160" y="403.5"/><rect fill="#B0C4DE" height="2" style="stroke:#000000;stroke-width:1.0;" width="4" x="158" y="405.5"/><rect fill="#B0C4DE" height="2" style="stroke:#000000;stroke-width:1.0;" width="4" x="158" y="409.5"/><text fill="#000000" font-family="Arial" font-size="15" font-style="italic" lengthAdjust="spacing" textLength="96" x="61.5" y="425.5698">&#171;ROS2 Node&#187;</text><text fill="#000000" font-family="Arial" font-size="15" font-weight="bold" lengthAdjust="spacing" textLength="125" x="47" y="442.8184">RSUServiceNode</text></g><!--cluster ArrowheadCommunicaterRegister--><g id="cluster_ArrowheadCommunicaterRegister"><rect fill="#B0C4DE" height="131.5" rx="2.5" ry="2.5" style="stroke:#000000;stroke-width:1.0;" width="250" x="221" y="398.5"/><rect fill="#B0C4DE" height="10" style="stroke:#000000;stroke-width:1.0;" width="15" x="451" y="403.5"/><rect fill="#B0C4DE" height="2" style="stroke:#000000;stroke-width:1.0;" width="4" x="449" y="405.5"/><rect fill="#B0C4DE" height="2" style="stroke:#000000;stroke-width:1.0;" width="4" x="449" y="409.5"/><text fill="#000000" font-family="Arial" font-size="15" font-style="italic" lengthAdjust="spacing" textLength="96" x="298" y="425.5698">&#171;ROS2 Node&#187;</text><text fill="#000000" font-family="Arial" font-size="15" font-weight="bold" lengthAdjust="spacing" textLength="239" x="226.5" y="442.8184">ArrowheadCommunicaterRegister</text></g><!--entity ServiceRegistry_API--><g id="elem_ServiceRegistry_API"><ellipse cx="648" cy="170" fill="#F1F1F1" rx="8" ry="8" style="stroke:#181818;stroke-width:0.5;"/><text fill="#000000" font-family="sans-serif" font-size="14" lengthAdjust="spacing" textLength="128" x="584" y="201.5332">ServiceRegistry_API</text></g><text fill="#000000" font-family="sans-serif" font-size="14" lengthAdjust="spacing" textLength="4" x="646" y="268.9238">&#160;</text><rect fill="#F1F1F1" height="12" style="stroke:#181818;stroke-width:1.5;" width="12" x="642" y="284"/><text fill="#000000" font-family="sans-serif" font-size="14" lengthAdjust="spacing" textLength="4" x="714" y="377.4238">&#160;</text><rect fill="#F1F1F1" height="12" style="stroke:#181818;stroke-width:1.5;" width="12" x="710" y="392.5"/><!--entity DRR_API--><g id="elem_DRR_API"><ellipse cx="1171" cy="290" fill="#F1F1F1" rx="8" ry="8" style="stroke:#181818;stroke-width:0.5;"/><text fill="#000000" font-family="sans-serif" font-size="14" lengthAdjust="spacing" textLength="59" x="1141.5" y="321.5332">DRR_API</text></g><text fill="#000000" font-family="sans-serif" font-size="14" lengthAdjust="spacing" textLength="4" x="899" y="52.9238">&#160;</text><rect fill="#F1F1F1" height="12" style="stroke:#181818;stroke-width:1.5;" width="12" x="895" y="68"/><text fill="#000000" font-family="sans-serif" font-size="14" lengthAdjust="spacing" textLength="4" x="1219" y="268.9238">&#160;</text><rect fill="#F1F1F1" height="12" style="stroke:#181818;stroke-width:1.5;" width="12" x="1215" y="284"/><text fill="#000000" font-family="sans-serif" font-size="14" lengthAdjust="spacing" textLength="4" x="1266" y="268.9238">&#160;</text><rect fill="#F1F1F1" height="12" style="stroke:#181818;stroke-width:1.5;" width="12" x="1262" y="284"/><text fill="#000000" font-family="sans-serif" font-size="14" lengthAdjust="spacing" textLength="4" x="1085" y="148.9238">&#160;</text><rect fill="#F1F1F1" height="12" style="stroke:#181818;stroke-width:1.5;" width="12" x="1081" y="164"/><!--entity RRR_API--><g id="elem_RRR_API"><ellipse cx="219" cy="290" fill="#F1F1F1" rx="8" ry="8" style="stroke:#181818;stroke-width:0.5;"/><text fill="#000000" font-family="sans-serif" font-size="14" lengthAdjust="spacing" textLength="59" x="189.5" y="321.5332">RRR_API</text></g><text fill="#000000" font-family="sans-serif" font-size="14" lengthAdjust="spacing" textLength="4" x="480" y="52.9238">&#160;</text><rect fill="#F1F1F1" height="12" style="stroke:#181818;stroke-width:1.5;" width="12" x="476" y="68"/><text fill="#000000" font-family="sans-serif" font-size="14" lengthAdjust="spacing" textLength="4" x="160" y="377.4238">&#160;</text><rect fill="#F1F1F1" height="12" style="stroke:#181818;stroke-width:1.5;" width="12" x="156" y="392.5"/><text fill="#000000" font-family="sans-serif" font-size="14" lengthAdjust="spacing" textLength="4" x="451" y="377.4238">&#160;</text><rect fill="#F1F1F1" height="12" style="stroke:#181818;stroke-width:1.5;" width="12" x="447" y="392.5"/><text fill="#000000" font-family="sans-serif" font-size="14" lengthAdjust="spacing" textLength="4" x="363" y="377.4238">&#160;</text><rect fill="#F1F1F1" height="12" style="stroke:#181818;stroke-width:1.5;" width="12" x="359" y="392.5"/><!--link ServiceRegistryPort to ArrowheadPort--><g id="link_ServiceRegistryPort_ArrowheadPort"><path d="M714.37,392.25 C712.63,386.98 709.63,378.69 706,372 C689.32,341.3 662.85,308.62 652.43,296.19 " fill="none" id="ServiceRegistryPort-ArrowheadPort" style="stroke:#0000FF;stroke-width:1.0;"/></g><!--link VehiclePort to ArrowheadCommunicaterDiscoverPort--><g id="link_VehiclePort_ArrowheadCommunicaterDiscoverPort"><path d="M907.21,74.89 C937.49,74.65 1071.35,77.33 1151,140 C1200.86,179.24 1216.89,262.47 1220.26,283.89 " fill="none" id="VehiclePort-ArrowheadCommunicaterDiscoverPort" style="stroke:#0000FF;stroke-width:1.0;"/></g><!--link VehicleServicePort to DRR_API--><g id="link_VehicleServicePort_DRR_API"><path d="M1088.13,176.18 C1089.59,182.2 1092.49,192.27 1097,200 C1112.55,226.65 1123.45,228.12 1143,252 C1150.96,261.72 1153.7193,265.2665 1159.2593,272.8465 " fill="none" id="VehicleServicePort-to-DRR_API" style="stroke:#0000FF;stroke-width:1.0;"/><path d="M1170.1716,273.4445 A9,9 0 0 0 1156.5157 283.4252" fill="none" style="stroke:#0000FF;stroke-width:1.5;"/></g><!--link ArrowheadCommunicaterDiscoverPort2 to DRR_API--><g id="link_ArrowheadCommunicaterDiscoverPort2_DRR_API"><path d="M1266.37,283.93 C1262.38,270.47 1250.71,238.36 1227.5,226 C1217.3,220.57 1211.7,220.57 1201.5,226 C1181.29,236.76 1174.35,265.67 1172.06,280.67 " fill="none" id="ArrowheadCommunicaterDiscoverPort2-DRR_API" style="stroke:#0000FF;stroke-width:1.0;"/></g><!--link ArrowheadCommunicaterRegisterPort to RSUPort--><g id="link_ArrowheadCommunicaterRegisterPort_RSUPort"><path d="M455.3,392.32 C460.39,380.56 472.52,350.8 477,324.5 C493.53,227.55 484.68,106.36 482.46,80.15 " fill="none" id="ArrowheadCommunicaterRegisterPort-RSUPort" style="stroke:#0000FF;stroke-width:1.0;"/></g><!--link RRR_API to ArrowheadCommunicaterRegisterPort2--><g id="link_RRR_API_ArrowheadCommunicaterRegisterPort2"><path d="M228.13,297.66 C255.48,317.61 336.2,376.49 358.96,393.1 " fill="none" id="RRR_API-ArrowheadCommunicaterRegisterPort2" style="stroke:#0000FF;stroke-width:1.0;"/></g><!--reverse link RRR_API to RSUServicePort--><g id="link_RRR_API_RSUServicePort"><path d="M209.9993,307.8156 C198.9093,328.5256 174.24,374.63 164.9,392.09 " fill="none" id="RRR_API-backto-RSUServicePort" style="stroke:#0000FF;stroke-width:1.0;"/><path d="M205.8113,297.7212 A9,9 0 0 0 220.7225 305.706" fill="none" style="stroke:#0000FF;stroke-width:1.5;"/></g><!--link VehiclePort to ServiceRegistry_API--><g id="link_VehiclePort_ServiceRegistry_API"><path d="M894.75,77.32 C860.66,89.99 706.6844,147.1986 666.3744,162.1686 " fill="none" id="VehiclePort-to-ServiceRegistry_API" style="stroke:#0000FF;stroke-width:1.0;"/><path d="M662.8299,172.5065 A9,9 0 0 0 656.9413 156.6502" fill="none" style="stroke:#0000FF;stroke-width:1.5;"/></g><!--link RSUPort to ServiceRegistry_API--><g id="link_RSUPort_ServiceRegistry_API"><path d="M488.3,78.57 C513.77,92.99 600.3983,142.0425 630.2783,158.9625 " fill="none" id="RSUPort-to-ServiceRegistry_API" style="stroke:#0000FF;stroke-width:1.0;"/><path d="M640.4687,155.014 A9,9 0 0 0 632.1342 169.7325" fill="none" style="stroke:#0000FF;stroke-width:1.5;"/></g><!--link ServiceRegistry_API to ArrowheadPort--><g id="link_ServiceRegistry_API_ArrowheadPort"><path d="M648,179.11 C648,201.81 648,265.54 648,283.96 " fill="none" id="ServiceRegistry_API-ArrowheadPort" style="stroke:#0000FF;stroke-width:1.0;"/></g><!--SRC=[bLJHRfim57ttLror3-kBbovQfNMAAf5aQ7j98yZsMhdW9LO18sCsPH7_FZiuOC1D0da9vfnxxpa-zeUTb7dnTJB94vB9Caq-HZoTH0af2XmpiXKaHQXuOrbEr5zG7tEUqKp20G7uF9CX-qVXqmDIhtCIlMq5BxDumHCkPZElb3mbaiRXlf0qVNg2M_-B-laky2-wOr52Zo3Vz_nx5oW8Vvu7U4BmlpjAulEmxvlD6a8g_b1H0vVU_D6f8NWEfx3YyN6m-VtYy_ARWXdnAv9Iy0GZYQPo4LDnfC5hekgejUCufwMIeWgXriAUFU0mxA1d0ilsHXzqj1gSVd8kBDXQlv42Rk2cXRJbj0KieW7TiaAAFVISEJIKfdAFuQol7nSEu-vW3Q6gkLLVhSa4MEcmb4PCw8_B87ZnrZzw3XZ21VtDE0kUfcN68cM-MB8Yuae_T7PVDHwwSPPlznxFd3fjlTmGbpcsrIFBvQ411cXsIoiTg1wCtkMycm073EExPhjig5a3dD3V4b_X3ReO7NLJWBalXf49d95Hu0jnKOXHJhLuP-7gwaZMnyWHoUjoTQAFJwJD7978JaDrx8sr8vdJEio18p4zPpNkRhYjok1kFEhjxzrDBSU-D7HMNK3J_Im6TUIrnzA9hT1_]--></g></svg>