<?xml version="1.0" encoding="us-ascii" standalone="no"?><svg xmlns="http://www.w3.org/2000/svg" xmlns:xlink="http://www.w3.org/1999/xlink" contentStyleType="text/css" height="526px" preserveAspectRatio="none" style="width:1409px;height:526px;background:#FFFFFF;" version="1.1" viewBox="0 0 1409 526" width="1409px" zoomAndPan="magnify"><defs/><g><rect fill="#F8F8FF" height="514.3984" style="stroke:#181818;stroke-width:0.5;" width="1392.5" x="11" y="6"/><text fill="#000000" font-family="sans-serif" font-size="13" font-weight="bold" lengthAdjust="spacing" textLength="115" x="649.75" y="19.4951">AutomatedSystem</text><rect fill="#20B2AA" height="493.0469" style="stroke:#181818;stroke-width:0.5;" width="911.5" x="11" y="27.3516"/><text fill="#000000" font-family="sans-serif" font-size="13" font-weight="bold" lengthAdjust="spacing" textLength="27" x="453.25" y="40.8467">RSU</text><rect fill="#ADD8E6" height="471.6953" style="stroke:#181818;stroke-width:0.5;" width="388.5" x="11" y="48.7031"/><text fill="#000000" font-family="sans-serif" font-size="13" font-weight="bold" lengthAdjust="spacing" textLength="108" x="151.25" y="62.1982">RSUServiceNode</text><rect fill="#90EE90" height="471.6953" style="stroke:#181818;stroke-width:0.5;" width="470" x="452.5" y="48.7031"/><text fill="#000000" font-family="sans-serif" font-size="13" font-weight="bold" lengthAdjust="spacing" textLength="215" x="580" y="62.1982">ArrowheadCommunicaterRegister</text><rect fill="#FFFFE0" height="493.0469" style="stroke:#181818;stroke-width:0.5;" width="121" x="1282.5" y="27.3516"/><text fill="#000000" font-family="sans-serif" font-size="13" font-weight="bold" lengthAdjust="spacing" textLength="70" x="1308" y="40.8467">Arrowhead</text><line style="stroke:#000000;stroke-width:0.5;stroke-dasharray:5.0,5.0;" x1="59.5" x2="59.5" y1="101.6641" y2="481.7891"/><rect fill="#000000" height="372.125" style="stroke:#000000;stroke-width:1.0;" width="10" x="54.5" y="109.6641"/><line style="stroke:#000000;stroke-width:0.5;stroke-dasharray:5.0,5.0;" x1="317.5" x2="317.5" y1="101.6641" y2="481.7891"/><rect fill="#000000" height="288.4219" style="stroke:#000000;stroke-width:1.0;" width="10" x="312.5" y="132.0156"/><line style="stroke:#000000;stroke-width:0.5;stroke-dasharray:5.0,5.0;" x1="562.5" x2="562.5" y1="101.6641" y2="481.7891"/><rect fill="#000000" height="227.7188" style="stroke:#000000;stroke-width:1.0;" width="10" x="557.5" y="162.3672"/><line style="stroke:#000000;stroke-width:0.5;stroke-dasharray:5.0,5.0;" x1="840" x2="840" y1="170.3672" y2="481.7891"/><rect fill="#000000" height="134.4063" style="stroke:#000000;stroke-width:1.0;" width="10" x="835" y="225.3281"/><line style="stroke:#000000;stroke-width:0.5;stroke-dasharray:5.0,5.0;" x1="1343" x2="1343" y1="101.6641" y2="481.7891"/><rect fill="#000000" height="30.3516" style="stroke:#000000;stroke-width:1.0;" width="10" x="1338" y="255.6797"/><rect fill="#000000" height="31.6094" rx="2.5" ry="2.5" style="stroke:#000000;stroke-width:0.5;" width="89" x="15" y="69.0547"/><text fill="#FFFFFF" font-family="sans-serif" font-size="14" lengthAdjust="spacing" textLength="75" x="22" y="90.5879">RSUService</text><rect fill="#000000" height="31.6094" rx="2.5" ry="2.5" style="stroke:#000000;stroke-width:0.5;" width="156" x="239.5" y="69.0547"/><text fill="#FFFFFF" font-family="sans-serif" font-size="14" lengthAdjust="spacing" textLength="142" x="246.5" y="90.5879">RegistrationRequester</text><rect fill="#000000" height="31.6094" rx="2.5" ry="2.5" style="stroke:#000000;stroke-width:0.5;" width="212" x="456.5" y="69.0547"/><text fill="#FFFFFF" font-family="sans-serif" font-size="14" lengthAdjust="spacing" textLength="198" x="463.5" y="90.5879">RegistrationRequesterReceiver</text><rect fill="#000000" height="31.6094" rx="2.5" ry="2.5" style="stroke:#000000;stroke-width:0.5;" width="113" x="1286.5" y="69.0547"/><text fill="#FFFFFF" font-family="sans-serif" font-size="14" lengthAdjust="spacing" textLength="99" x="1293.5" y="90.5879">ServiceRegistry</text><rect fill="#000000" height="31.6094" rx="2.5" ry="2.5" style="stroke:#000000;stroke-width:0.5;" width="89" x="15" y="481.7891"/><text fill="#FFFFFF" font-family="sans-serif" font-size="14" lengthAdjust="spacing" textLength="75" x="22" y="503.3223">RSUService</text><rect fill="#000000" height="31.6094" rx="2.5" ry="2.5" style="stroke:#000000;stroke-width:0.5;" width="156" x="239.5" y="481.7891"/><text fill="#FFFFFF" font-family="sans-serif" font-size="14" lengthAdjust="spacing" textLength="142" x="246.5" y="503.3223">RegistrationRequester</text><rect fill="#000000" height="31.6094" rx="2.5" ry="2.5" style="stroke:#000000;stroke-width:0.5;" width="212" x="456.5" y="481.7891"/><text fill="#FFFFFF" font-family="sans-serif" font-size="14" lengthAdjust="spacing" textLength="198" x="463.5" y="503.3223">RegistrationRequesterReceiver</text><rect fill="#000000" height="31.6094" rx="2.5" ry="2.5" style="stroke:#000000;stroke-width:0.5;" width="157" x="761.5" y="481.7891"/><text fill="#FFFFFF" font-family="sans-serif" font-size="14" lengthAdjust="spacing" textLength="143" x="768.5" y="503.3223">RegisterServicesClient</text><rect fill="#000000" height="31.6094" rx="2.5" ry="2.5" style="stroke:#000000;stroke-width:0.5;" width="113" x="1286.5" y="481.7891"/><text fill="#FFFFFF" font-family="sans-serif" font-size="14" lengthAdjust="spacing" textLength="99" x="1293.5" y="503.3223">ServiceRegistry</text><polygon fill="#000000" points="300.5,128.0156,310.5,132.0156,300.5,136.0156,304.5,132.0156" style="stroke:#000000;stroke-width:1.0;"/><line style="stroke:#000000;stroke-width:1.0;" x1="64.5" x2="306.5" y1="132.0156" y2="132.0156"/><text fill="#000000" font-family="sans-serif" font-size="13" font-weight="bold" lengthAdjust="spacing" textLength="229" x="71.5" y="127.1592">requestROS2ServerForRegistration()</text><polygon fill="#000000" points="545.5,158.3672,555.5,162.3672,545.5,166.3672,549.5,162.3672" style="stroke:#000000;stroke-width:1.0;"/><line style="stroke:#000000;stroke-width:1.0;" x1="322.5" x2="551.5" y1="162.3672" y2="162.3672"/><text fill="#000000" font-family="sans-serif" font-size="13" font-weight="bold" lengthAdjust="spacing" textLength="216" x="329.5" y="157.5107">sends request to register a service</text><rect fill="#000000" height="31.6094" rx="2.5" ry="2.5" style="stroke:#000000;stroke-width:0.5;" width="157" x="761.5" y="170.3672"/><text fill="#FFFFFF" font-family="sans-serif" font-size="14" lengthAdjust="spacing" textLength="143" x="768.5" y="191.9004">RegisterServicesClient</text><polygon fill="#000000" points="749.5,188.7188,759.5,192.7188,749.5,196.7188,753.5,192.7188" style="stroke:#000000;stroke-width:1.0;"/><line style="stroke:#000000;stroke-width:1.0;" x1="567.5" x2="755.5" y1="192.7188" y2="192.7188"/><text fill="#000000" font-family="sans-serif" font-size="13" font-weight="bold" lengthAdjust="spacing" textLength="175" x="574.5" y="187.8623">creates(ServiceInformation)</text><polygon fill="#000000" points="823,221.3281,833,225.3281,823,229.3281,827,225.3281" style="stroke:#000000;stroke-width:1.0;"/><line style="stroke:#000000;stroke-width:1.0;" x1="567.5" x2="829" y1="225.3281" y2="225.3281"/><text fill="#000000" font-family="sans-serif" font-size="13" font-weight="bold" lengthAdjust="spacing" textLength="104" x="574.5" y="220.4717">registerService()</text><polygon fill="#000000" points="1326,251.6797,1336,255.6797,1326,259.6797,1330,255.6797" style="stroke:#000000;stroke-width:1.0;"/><line style="stroke:#000000;stroke-width:1.0;" x1="845" x2="1332" y1="255.6797" y2="255.6797"/><text fill="#000000" font-family="sans-serif" font-size="13" font-weight="bold" lengthAdjust="spacing" textLength="474" x="852" y="250.8232">sends POST request to register the RSU service {Body: ServiceInformation}</text><polygon fill="#000000" points="856,282.0313,846,286.0313,856,290.0313,852,286.0313" style="stroke:#000000;stroke-width:1.0;"/><line style="stroke:#000000;stroke-width:1.0;stroke-dasharray:2.0,2.0;" x1="850" x2="1337" y1="286.0313" y2="286.0313"/><text fill="#000000" font-family="sans-serif" font-size="13" font-weight="bold" lengthAdjust="spacing" textLength="433" x="862" y="281.1748">sends 201 Created with RSU Service created {Body: ServiceCreated}</text><line style="stroke:#000000;stroke-width:1.0;" x1="845" x2="887" y1="316.3828" y2="316.3828"/><line style="stroke:#000000;stroke-width:1.0;" x1="887" x2="887" y1="316.3828" y2="329.3828"/><line style="stroke:#000000;stroke-width:1.0;" x1="846" x2="887" y1="329.3828" y2="329.3828"/><polygon fill="#000000" points="856,325.3828,846,329.3828,856,333.3828,852,329.3828" style="stroke:#000000;stroke-width:1.0;"/><text fill="#000000" font-family="sans-serif" font-size="13" font-weight="bold" lengthAdjust="spacing" textLength="104" x="852" y="311.5264">filtersServiceID()</text><polygon fill="#000000" points="578.5,355.7344,568.5,359.7344,578.5,363.7344,574.5,359.7344" style="stroke:#000000;stroke-width:1.0;"/><line style="stroke:#000000;stroke-width:1.0;stroke-dasharray:2.0,2.0;" x1="572.5" x2="834" y1="359.7344" y2="359.7344"/><text fill="#000000" font-family="sans-serif" font-size="13" font-weight="bold" lengthAdjust="spacing" textLength="58" x="584.5" y="354.8779">serviceID</text><polygon fill="#000000" points="333.5,386.0859,323.5,390.0859,333.5,394.0859,329.5,390.0859" style="stroke:#000000;stroke-width:1.0;"/><line style="stroke:#000000;stroke-width:1.0;stroke-dasharray:2.0,2.0;" x1="327.5" x2="556.5" y1="390.0859" y2="390.0859"/><text fill="#000000" font-family="sans-serif" font-size="13" font-weight="bold" lengthAdjust="spacing" textLength="126" x="339.5" y="385.2295">sends the service ID</text><polygon fill="#000000" points="75.5,416.4375,65.5,420.4375,75.5,424.4375,71.5,420.4375" style="stroke:#000000;stroke-width:1.0;"/><line style="stroke:#000000;stroke-width:1.0;stroke-dasharray:2.0,2.0;" x1="69.5" x2="311.5" y1="420.4375" y2="420.4375"/><text fill="#000000" font-family="sans-serif" font-size="13" font-weight="bold" lengthAdjust="spacing" textLength="58" x="81.5" y="415.5811">serviceID</text><line style="stroke:#000000;stroke-width:1.0;" x1="64.5" x2="106.5" y1="450.7891" y2="450.7891"/><line style="stroke:#000000;stroke-width:1.0;" x1="106.5" x2="106.5" y1="450.7891" y2="463.7891"/><line style="stroke:#000000;stroke-width:1.0;" x1="65.5" x2="106.5" y1="463.7891" y2="463.7891"/><polygon fill="#000000" points="75.5,459.7891,65.5,463.7891,75.5,467.7891,71.5,463.7891" style="stroke:#000000;stroke-width:1.0;"/><text fill="#000000" font-family="sans-serif" font-size="13" font-weight="bold" lengthAdjust="spacing" textLength="137" x="71.5" y="445.9326">starts the RSU service</text><!--SRC=[dLJBRjim4BppAzZaOXy2j3aLFXI8NRWeO2I1rQBeaH7N5X69T5QKNJVmlvSIHJqeKMWY0mQrt9sT6IxruO1idp6gGVsb6WiW97yMyi2GPTJyQn6B0vEQlX9gdYMBd_Ue2ibNAbL8bwa9s1s57D2FhfNKDlOh4Hh8fGkVmqi1CeOQ-mvHdNo0ZTZ1HaWOXszsWxHSXa-aQLXkHFgSWb6GyfBWa_f3h-uAhJAcWKVdN4DsHQ_NdyrlJQhAAcKR_JJXZTWdEWBs3G6atUrcH8174SEzuk2Ibsa1JLxvT6rkIy8fi1UvHgQ5ajlIGaCGcsoGl6pkCQca9i2CFrbMI14RQMY101qnA-5DRRSGWpXssezN0TQYybKgGEfnjhsNFcr7yJUagJeHlqkDNbCyzz6Q1OkrE1hXNPFR9RtvCgvnGT4kjm_HRPaCk5ROJPtDEzYZfqD6my6MpjQ5kIEIvuu0rSeihQ6KcJshORftSqGaHcYp1aSoMTmozUiMrCBciph-NUuKPXNCdBmV5VlneSK30MGyNZRnviFP-lWG_HZrLYVLa3Y7wUjISLCrL7XfMVapIBm0lPbGQ_dSVln4LvMRd9w4JYeERZpZUgFFfKw_40vX9c5ZGdns8ZNHt0d-Efk7KVvdY6kOBilfKmnEJFYMMW_BetF7DjOmU3i2DxJirtmZ9gKCxtp_sz95qURZbVjZHiW_]--></g></svg>