<?xml version="1.0" encoding="us-ascii" standalone="no"?><svg xmlns="http://www.w3.org/2000/svg" xmlns:xlink="http://www.w3.org/1999/xlink" contentStyleType="text/css" height="808px" preserveAspectRatio="none" style="width:1587px;height:808px;background:#FFFFFF;" version="1.1" viewBox="0 0 1587 808" width="1587px" zoomAndPan="magnify"><defs/><g><!--cluster AutomatedSystem--><g id="cluster_AutomatedSystem"><path d="M8.5,6 L134.5,6 A3.75,3.75 0 0 1 137,8.5 L144,29.6094 L1577.5,29.6094 A2.5,2.5 0 0 1 1580,32.1094 L1580,798.5 A2.5,2.5 0 0 1 1577.5,801 L8.5,801 A2.5,2.5 0 0 1 6,798.5 L6,8.5 A2.5,2.5 0 0 1 8.5,6 " fill="none" style="stroke:#000000;stroke-width:1.5;"/><line style="stroke:#000000;stroke-width:1.5;" x1="6" x2="144" y1="29.6094" y2="29.6094"/><text fill="#000000" font-family="sans-serif" font-size="14" font-weight="bold" lengthAdjust="spacing" textLength="125" x="10" y="22.5332">AutomatedSystem</text></g><!--cluster ServicesRegistry--><g id="cluster_ServicesRegistry"><path d="M1302.5,71 L1423.5,71 A3.75,3.75 0 0 1 1426,73.5 L1433,94.6094 L1553.5,94.6094 A2.5,2.5 0 0 1 1556,97.1094 L1556,422.5 A2.5,2.5 0 0 1 1553.5,425 L1302.5,425 A2.5,2.5 0 0 1 1300,422.5 L1300,73.5 A2.5,2.5 0 0 1 1302.5,71 " fill="none" style="stroke:#000000;stroke-width:1.5;"/><line style="stroke:#000000;stroke-width:1.5;" x1="1300" x2="1433" y1="94.6094" y2="94.6094"/><text fill="#000000" font-family="sans-serif" font-size="14" font-weight="bold" lengthAdjust="spacing" textLength="120" x="1304" y="87.5332">ServicesRegistry</text></g><!--cluster RSU--><g id="cluster_RSU"><path d="M958.5,50 L988.5,50 A3.75,3.75 0 0 1 991,52.5 L998,73.6094 L1273.5,73.6094 A2.5,2.5 0 0 1 1276,76.1094 L1276,638.5 A2.5,2.5 0 0 1 1273.5,641 L958.5,641 A2.5,2.5 0 0 1 956,638.5 L956,52.5 A2.5,2.5 0 0 1 958.5,50 " fill="none" style="stroke:#000000;stroke-width:1.5;"/><line style="stroke:#000000;stroke-width:1.5;" x1="956" x2="998" y1="73.6094" y2="73.6094"/><text fill="#000000" font-family="sans-serif" font-size="14" font-weight="bold" lengthAdjust="spacing" textLength="29" x="960" y="66.5332">RSU</text></g><!--cluster ServicesDiscovery--><g id="cluster_ServicesDiscovery"><path d="M566.5,71 L699.5,71 A3.75,3.75 0 0 1 702,73.5 L709,94.6094 L929.5,94.6094 A2.5,2.5 0 0 1 932,97.1094 L932,405 A2.5,2.5 0 0 1 929.5,407.5 L566.5,407.5 A2.5,2.5 0 0 1 564,405 L564,73.5 A2.5,2.5 0 0 1 566.5,71 " fill="none" style="stroke:#000000;stroke-width:1.5;"/><line style="stroke:#000000;stroke-width:1.5;" x1="564" x2="709" y1="94.6094" y2="94.6094"/><text fill="#000000" font-family="sans-serif" font-size="14" font-weight="bold" lengthAdjust="spacing" textLength="132" x="568" y="87.5332">ServicesDiscovery</text></g><!--cluster Vehicle--><g id="cluster_Vehicle"><path d="M32.5,76 L85.5,76 A3.75,3.75 0 0 1 88,78.5 L95,99.6094 L537.5,99.6094 A2.5,2.5 0 0 1 540,102.1094 L540,774.5 A2.5,2.5 0 0 1 537.5,777 L32.5,777 A2.5,2.5 0 0 1 30,774.5 L30,78.5 A2.5,2.5 0 0 1 32.5,76 " fill="none" style="stroke:#000000;stroke-width:1.5;"/><line style="stroke:#000000;stroke-width:1.5;" x1="30" x2="95" y1="99.6094" y2="99.6094"/><text fill="#000000" font-family="sans-serif" font-size="14" font-weight="bold" lengthAdjust="spacing" textLength="52" x="34" y="92.5332">Vehicle</text></g><!--class ServiceRegister--><g id="elem_ServiceRegister"><rect codeLine="8" fill="#F1F1F1" height="100.8281" id="ServiceRegister" rx="2.5" ry="2.5" style="stroke:#181818;stroke-width:0.5;" width="223" x="1316.5" y="308"/><ellipse cx="1373.75" cy="324" fill="#ADD1B2" rx="11" ry="11" style="stroke:#181818;stroke-width:1.0;"/><path d="M1376.5156,319.875 Q1376.6719,319.6563 1376.8594,319.5469 Q1377.0469,319.4375 1377.2656,319.4375 Q1377.6406,319.4375 1377.875,319.7031 Q1378.1094,319.9531 1378.1094,320.5625 L1378.1094,322.0156 Q1378.1094,322.625 1377.875,322.8906 Q1377.6406,323.1563 1377.2656,323.1563 Q1376.9219,323.1563 1376.7188,322.9531 Q1376.5156,322.7656 1376.4063,322.25 Q1376.3594,321.8906 1376.1719,321.7031 Q1375.8438,321.3281 1375.2344,321.1094 Q1374.625,320.8906 1374,320.8906 Q1373.2344,320.8906 1372.5938,321.2188 Q1371.9688,321.5469 1371.4688,322.2969 Q1370.9844,323.0469 1370.9844,324.0781 L1370.9844,325.1719 Q1370.9844,326.4063 1371.875,327.2344 Q1372.7656,328.0469 1374.3594,328.0469 Q1375.2969,328.0469 1375.9531,327.7969 Q1376.3438,327.6406 1376.7656,327.2031 Q1377.0313,326.9375 1377.1719,326.8594 Q1377.3281,326.7813 1377.5313,326.7813 Q1377.8594,326.7813 1378.1094,327.0469 Q1378.375,327.2969 1378.375,327.6406 Q1378.375,327.9844 1378.0313,328.3906 Q1377.5313,328.9688 1376.7344,329.2969 Q1375.6563,329.75 1374.3594,329.75 Q1372.8438,329.75 1371.6406,329.125 Q1370.6563,328.625 1369.9688,327.5625 Q1369.2813,326.4844 1369.2813,325.2031 L1369.2813,324.0469 Q1369.2813,322.7188 1369.8906,321.5781 Q1370.5156,320.4219 1371.6094,319.8125 Q1372.7031,319.1875 1373.9375,319.1875 Q1374.6719,319.1875 1375.3125,319.3594 Q1375.9688,319.5156 1376.5156,319.875 Z " fill="#000000"/><text fill="#000000" font-family="sans-serif" font-size="14" lengthAdjust="spacing" textLength="100" x="1394.25" y="329.7285">ServiceRegister</text><line style="stroke:#181818;stroke-width:0.5;" x1="1317.5" x2="1538.5" y1="340" y2="340"/><line style="stroke:#181818;stroke-width:0.5;" x1="1317.5" x2="1538.5" y1="348" y2="348"/><ellipse cx="1327.5" cy="362.3047" fill="#84BE84" rx="3" ry="3" style="stroke:#038048;stroke-width:1.0;"/><text fill="#000000" font-family="sans-serif" font-size="14" lengthAdjust="spacing" textLength="105" x="1336.5" y="366.5332">registerService()</text><ellipse cx="1327.5" cy="379.9141" fill="#84BE84" rx="3" ry="3" style="stroke:#038048;stroke-width:1.0;"/><text fill="#000000" font-family="sans-serif" font-size="14" lengthAdjust="spacing" textLength="197" x="1336.5" y="384.1426">updateExpirationDay(serviceId)</text><ellipse cx="1327.5" cy="397.5234" fill="#84BE84" rx="3" ry="3" style="stroke:#038048;stroke-width:1.0;"/><text fill="#000000" font-family="sans-serif" font-size="14" lengthAdjust="spacing" textLength="96" x="1336.5" y="401.752">deleteService()</text></g><!--class RegistrationRequestReceiver--><g id="elem_RegistrationRequestReceiver"><rect codeLine="14" fill="#F1F1F1" height="76.3125" id="RegistrationRequestReceiver" rx="2.5" ry="2.5" style="stroke:#181818;stroke-width:0.5;" width="217" x="1319.5" y="107"/><ellipse cx="1334.5" cy="128.3516" fill="#ADD1B2" rx="11" ry="11" style="stroke:#181818;stroke-width:1.0;"/><path d="M1337.2656,124.2266 Q1337.4219,124.0078 1337.6094,123.8984 Q1337.7969,123.7891 1338.0156,123.7891 Q1338.3906,123.7891 1338.625,124.0547 Q1338.8594,124.3047 1338.8594,124.9141 L1338.8594,126.3672 Q1338.8594,126.9766 1338.625,127.2422 Q1338.3906,127.5078 1338.0156,127.5078 Q1337.6719,127.5078 1337.4688,127.3047 Q1337.2656,127.1172 1337.1563,126.6016 Q1337.1094,126.2422 1336.9219,126.0547 Q1336.5938,125.6797 1335.9844,125.4609 Q1335.375,125.2422 1334.75,125.2422 Q1333.9844,125.2422 1333.3438,125.5703 Q1332.7188,125.8984 1332.2188,126.6484 Q1331.7344,127.3984 1331.7344,128.4297 L1331.7344,129.5234 Q1331.7344,130.7578 1332.625,131.5859 Q1333.5156,132.3984 1335.1094,132.3984 Q1336.0469,132.3984 1336.7031,132.1484 Q1337.0938,131.9922 1337.5156,131.5547 Q1337.7813,131.2891 1337.9219,131.2109 Q1338.0781,131.1328 1338.2813,131.1328 Q1338.6094,131.1328 1338.8594,131.3984 Q1339.125,131.6484 1339.125,131.9922 Q1339.125,132.3359 1338.7813,132.7422 Q1338.2813,133.3203 1337.4844,133.6484 Q1336.4063,134.1016 1335.1094,134.1016 Q1333.5938,134.1016 1332.3906,133.4766 Q1331.4063,132.9766 1330.7188,131.9141 Q1330.0313,130.8359 1330.0313,129.5547 L1330.0313,128.3984 Q1330.0313,127.0703 1330.6406,125.9297 Q1331.2656,124.7734 1332.3594,124.1641 Q1333.4531,123.5391 1334.6875,123.5391 Q1335.4219,123.5391 1336.0625,123.7109 Q1336.7188,123.8672 1337.2656,124.2266 Z " fill="#000000"/><text fill="#000000" font-family="sans-serif" font-size="12" font-style="italic" lengthAdjust="spacing" textLength="86" x="1398" y="124.457">&#171;ROS2 Server&#187;</text><text fill="#000000" font-family="sans-serif" font-size="14" lengthAdjust="spacing" textLength="185" x="1348.5" y="141.627">RegistrationRequestReceiver</text><line style="stroke:#181818;stroke-width:0.5;" x1="1320.5" x2="1535.5" y1="149.7031" y2="149.7031"/><line style="stroke:#181818;stroke-width:0.5;" x1="1320.5" x2="1535.5" y1="157.7031" y2="157.7031"/><ellipse cx="1330.5" cy="172.0078" fill="#84BE84" rx="3" ry="3" style="stroke:#038048;stroke-width:1.0;"/><text fill="#000000" font-family="sans-serif" font-size="14" lengthAdjust="spacing" textLength="159" x="1339.5" y="176.2363">analyzeRequest(request)</text></g><!--class RSUServiceconfiguration--><g id="elem_RSUServiceconfiguration"><rect codeLine="24" fill="#F1F1F1" height="111.5313" id="RSUServiceconfiguration" rx="2.5" ry="2.5" style="stroke:#181818;stroke-width:0.5;" width="189" x="1021.5" y="513"/><ellipse cx="1036.5" cy="534.3516" fill="#F1F1F1" rx="11" ry="11" style="stroke:#181818;stroke-width:1.0;"/><path d="M1034.6094,538.9141 Q1034.3906,539.1797 1034.25,539.2578 Q1034.1094,539.3359 1033.9219,539.3359 Q1033.5313,539.3359 1033.2813,539.0703 Q1033.0469,538.8047 1033.0469,538.2109 L1033.0469,537.0547 Q1033.0469,536.4453 1033.2813,536.1953 Q1033.5313,535.9297 1033.9219,535.9297 Q1034.2188,535.9297 1034.4219,536.0859 Q1034.625,536.2422 1034.7344,536.6172 Q1034.8438,536.9766 1034.9531,537.1172 Q1035.2031,537.3672 1035.8125,537.6328 Q1036.4219,537.8984 1037.1563,537.8984 Q1038.2969,537.8984 1039.0156,537.3672 Q1039.4844,537.0391 1039.4844,536.5703 Q1039.4844,536.2578 1039.2656,535.9766 Q1039.0469,535.6953 1038.5313,535.5234 Q1038.2031,535.3984 1037.0469,535.1797 Q1035.6563,534.9141 1034.9375,534.5547 Q1034.2188,534.1953 1033.7969,533.5391 Q1033.3906,532.8672 1033.3906,532.0859 Q1033.3906,530.8672 1034.4063,529.9609 Q1035.4375,529.0391 1037.0781,529.0391 Q1037.7344,529.0391 1038.2813,529.1797 Q1038.8438,529.3203 1039.3125,529.6172 Q1039.6406,529.3047 1039.9688,529.3047 Q1040.3438,529.3047 1040.5781,529.5703 Q1040.8125,529.8203 1040.8125,530.4297 L1040.8125,531.7109 Q1040.8125,532.3203 1040.5781,532.5859 Q1040.3438,532.8359 1039.9688,532.8359 Q1039.6563,532.8359 1039.4219,532.6484 Q1039.2344,532.5078 1039.1406,532.0859 Q1039.0625,531.6641 1038.9219,531.4766 Q1038.6719,531.1641 1038.1875,530.9609 Q1037.7188,530.7422 1037.0781,530.7422 Q1036.1563,530.7422 1035.625,531.1641 Q1035.0938,531.5859 1035.0938,532.0547 Q1035.0938,532.3672 1035.3125,532.6641 Q1035.5313,532.9609 1035.9531,533.1328 Q1036.2344,533.2422 1037.5313,533.5078 Q1038.8438,533.7578 1039.5469,534.0703 Q1040.25,534.3672 1040.7188,535.0234 Q1041.1875,535.6797 1041.1875,536.5859 Q1041.1875,537.8516 1040.2969,538.6016 Q1039.1094,539.6016 1037.2813,539.6016 Q1036.5781,539.6016 1035.9063,539.4297 Q1035.25,539.2578 1034.6094,538.9141 Z " fill="#000000"/><text fill="#000000" font-family="sans-serif" font-size="12" font-style="italic" lengthAdjust="spacing" textLength="111" x="1073.5" y="530.457">&#171;Configuration File&#187;</text><text fill="#000000" font-family="sans-serif" font-size="14" lengthAdjust="spacing" textLength="157" x="1050.5" y="547.627">RSUServiceconfiguration</text><line style="stroke:#181818;stroke-width:0.5;" x1="1022.5" x2="1209.5" y1="555.7031" y2="555.7031"/><text fill="#000000" font-family="sans-serif" font-size="14" lengthAdjust="spacing" textLength="107" x="1027.5" y="574.2363">serviceValidation</text><text fill="#000000" font-family="sans-serif" font-size="14" lengthAdjust="spacing" textLength="96" x="1027.5" y="591.8457">serverAddrPort</text><text fill="#000000" font-family="sans-serif" font-size="14" lengthAdjust="spacing" textLength="77" x="1027.5" y="609.4551">ServiceData</text><line style="stroke:#181818;stroke-width:0.5;" x1="1022.5" x2="1209.5" y1="616.5313" y2="616.5313"/></g><!--class RSUService--><g id="elem_RSUService"><rect codeLine="30" fill="#F1F1F1" height="118.4375" id="RSUService" rx="2.5" ry="2.5" style="stroke:#181818;stroke-width:0.5;" width="184" x="1024" y="86"/><ellipse cx="1074.25" cy="102" fill="#ADD1B2" rx="11" ry="11" style="stroke:#181818;stroke-width:1.0;"/><path d="M1077.0156,97.875 Q1077.1719,97.6563 1077.3594,97.5469 Q1077.5469,97.4375 1077.7656,97.4375 Q1078.1406,97.4375 1078.375,97.7031 Q1078.6094,97.9531 1078.6094,98.5625 L1078.6094,100.0156 Q1078.6094,100.625 1078.375,100.8906 Q1078.1406,101.1563 1077.7656,101.1563 Q1077.4219,101.1563 1077.2188,100.9531 Q1077.0156,100.7656 1076.9063,100.25 Q1076.8594,99.8906 1076.6719,99.7031 Q1076.3438,99.3281 1075.7344,99.1094 Q1075.125,98.8906 1074.5,98.8906 Q1073.7344,98.8906 1073.0938,99.2188 Q1072.4688,99.5469 1071.9688,100.2969 Q1071.4844,101.0469 1071.4844,102.0781 L1071.4844,103.1719 Q1071.4844,104.4063 1072.375,105.2344 Q1073.2656,106.0469 1074.8594,106.0469 Q1075.7969,106.0469 1076.4531,105.7969 Q1076.8438,105.6406 1077.2656,105.2031 Q1077.5313,104.9375 1077.6719,104.8594 Q1077.8281,104.7813 1078.0313,104.7813 Q1078.3594,104.7813 1078.6094,105.0469 Q1078.875,105.2969 1078.875,105.6406 Q1078.875,105.9844 1078.5313,106.3906 Q1078.0313,106.9688 1077.2344,107.2969 Q1076.1563,107.75 1074.8594,107.75 Q1073.3438,107.75 1072.1406,107.125 Q1071.1563,106.625 1070.4688,105.5625 Q1069.7813,104.4844 1069.7813,103.2031 L1069.7813,102.0469 Q1069.7813,100.7188 1070.3906,99.5781 Q1071.0156,98.4219 1072.1094,97.8125 Q1073.2031,97.1875 1074.4375,97.1875 Q1075.1719,97.1875 1075.8125,97.3594 Q1076.4688,97.5156 1077.0156,97.875 Z " fill="#000000"/><text fill="#000000" font-family="sans-serif" font-size="14" lengthAdjust="spacing" textLength="75" x="1094.75" y="107.7285">RSUService</text><line style="stroke:#181818;stroke-width:0.5;" x1="1025" x2="1207" y1="118" y2="118"/><rect fill="none" height="6" style="stroke:#C82930;stroke-width:1.0;" width="6" x="1032" y="129.3047"/><text fill="#000000" font-family="sans-serif" font-size="14" lengthAdjust="spacing" textLength="137" x="1044" y="136.5332">registrationRequester</text><rect fill="none" height="6" style="stroke:#C82930;stroke-width:1.0;" width="6" x="1032" y="146.9141"/><text fill="#000000" font-family="sans-serif" font-size="14" lengthAdjust="spacing" textLength="158" x="1044" y="154.1426">timerToKeepServiceAlive</text><rect fill="none" height="6" style="stroke:#C82930;stroke-width:1.0;" width="6" x="1032" y="164.5234"/><text fill="#000000" font-family="sans-serif" font-size="14" lengthAdjust="spacing" textLength="58" x="1044" y="171.752">publisher</text><line style="stroke:#181818;stroke-width:0.5;" x1="1025" x2="1207" y1="178.8281" y2="178.8281"/><rect fill="#F24D5C" height="6" style="stroke:#C82930;stroke-width:1.0;" width="6" x="1032" y="190.1328"/><text fill="#000000" font-family="sans-serif" font-size="14" lengthAdjust="spacing" textLength="55" x="1044" y="197.3613">service()</text></g><!--class RegistrationRequester--><g id="elem_RegistrationRequester"><rect codeLine="39" fill="#F1F1F1" height="146.75" id="RegistrationRequester" rx="2.5" ry="2.5" style="stroke:#181818;stroke-width:0.5;" width="287" x="972.5" y="285"/><ellipse cx="1040.75" cy="306.3516" fill="#ADD1B2" rx="11" ry="11" style="stroke:#181818;stroke-width:1.0;"/><path d="M1043.5156,302.2266 Q1043.6719,302.0078 1043.8594,301.8984 Q1044.0469,301.7891 1044.2656,301.7891 Q1044.6406,301.7891 1044.875,302.0547 Q1045.1094,302.3047 1045.1094,302.9141 L1045.1094,304.3672 Q1045.1094,304.9766 1044.875,305.2422 Q1044.6406,305.5078 1044.2656,305.5078 Q1043.9219,305.5078 1043.7188,305.3047 Q1043.5156,305.1172 1043.4063,304.6016 Q1043.3594,304.2422 1043.1719,304.0547 Q1042.8438,303.6797 1042.2344,303.4609 Q1041.625,303.2422 1041,303.2422 Q1040.2344,303.2422 1039.5938,303.5703 Q1038.9688,303.8984 1038.4688,304.6484 Q1037.9844,305.3984 1037.9844,306.4297 L1037.9844,307.5234 Q1037.9844,308.7578 1038.875,309.5859 Q1039.7656,310.3984 1041.3594,310.3984 Q1042.2969,310.3984 1042.9531,310.1484 Q1043.3438,309.9922 1043.7656,309.5547 Q1044.0313,309.2891 1044.1719,309.2109 Q1044.3281,309.1328 1044.5313,309.1328 Q1044.8594,309.1328 1045.1094,309.3984 Q1045.375,309.6484 1045.375,309.9922 Q1045.375,310.3359 1045.0313,310.7422 Q1044.5313,311.3203 1043.7344,311.6484 Q1042.6563,312.1016 1041.3594,312.1016 Q1039.8438,312.1016 1038.6406,311.4766 Q1037.6563,310.9766 1036.9688,309.9141 Q1036.2813,308.8359 1036.2813,307.5547 L1036.2813,306.3984 Q1036.2813,305.0703 1036.8906,303.9297 Q1037.5156,302.7734 1038.6094,302.1641 Q1039.7031,301.5391 1040.9375,301.5391 Q1041.6719,301.5391 1042.3125,301.7109 Q1042.9688,301.8672 1043.5156,302.2266 Z " fill="#000000"/><text fill="#000000" font-family="sans-serif" font-size="12" font-style="italic" lengthAdjust="spacing" textLength="82" x="1091.25" y="302.457">&#171;ROS2 Client&#187;</text><text fill="#000000" font-family="sans-serif" font-size="14" lengthAdjust="spacing" textLength="142" x="1061.25" y="319.627">RegistrationRequester</text><line style="stroke:#181818;stroke-width:0.5;" x1="973.5" x2="1258.5" y1="327.7031" y2="327.7031"/><rect fill="none" height="6" style="stroke:#C82930;stroke-width:1.0;" width="6" x="980.5" y="339.0078"/><text fill="#000000" font-family="sans-serif" font-size="14" lengthAdjust="spacing" textLength="157" x="992.5" y="346.2363">RSUServiceconfiguration</text><line style="stroke:#181818;stroke-width:0.5;" x1="973.5" x2="1258.5" y1="353.3125" y2="353.3125"/><ellipse cx="983.5" cy="367.6172" fill="#84BE84" rx="3" ry="3" style="stroke:#038048;stroke-width:1.0;"/><text fill="#000000" font-family="sans-serif" font-size="14" lengthAdjust="spacing" textLength="101" x="992.5" y="371.8457">getTopicName()</text><ellipse cx="983.5" cy="385.2266" fill="#84BE84" rx="3" ry="3" style="stroke:#038048;stroke-width:1.0;"/><text fill="#000000" font-family="sans-serif" font-size="14" lengthAdjust="spacing" textLength="236" x="992.5" y="389.4551">requestROS2ServerForRegistration()</text><ellipse cx="983.5" cy="402.8359" fill="#84BE84" rx="3" ry="3" style="stroke:#038048;stroke-width:1.0;"/><text fill="#000000" font-family="sans-serif" font-size="14" lengthAdjust="spacing" textLength="261" x="992.5" y="407.0645">requestROS2ServerForUpdate(serviceId)</text><ellipse cx="983.5" cy="420.4453" fill="#84BE84" rx="3" ry="3" style="stroke:#038048;stroke-width:1.0;"/><text fill="#000000" font-family="sans-serif" font-size="14" lengthAdjust="spacing" textLength="228" x="992.5" y="424.6738">requestROS2ServerForElimination()</text></g><!--class ServiceDiscovery--><g id="elem_ServiceDiscovery"><rect codeLine="52" fill="#F1F1F1" height="65.6094" id="ServiceDiscovery" rx="2.5" ry="2.5" style="stroke:#181818;stroke-width:0.5;" width="336" x="580" y="325.5"/><ellipse cx="689.25" cy="341.5" fill="#ADD1B2" rx="11" ry="11" style="stroke:#181818;stroke-width:1.0;"/><path d="M692.0156,337.375 Q692.1719,337.1563 692.3594,337.0469 Q692.5469,336.9375 692.7656,336.9375 Q693.1406,336.9375 693.375,337.2031 Q693.6094,337.4531 693.6094,338.0625 L693.6094,339.5156 Q693.6094,340.125 693.375,340.3906 Q693.1406,340.6563 692.7656,340.6563 Q692.4219,340.6563 692.2188,340.4531 Q692.0156,340.2656 691.9063,339.75 Q691.8594,339.3906 691.6719,339.2031 Q691.3438,338.8281 690.7344,338.6094 Q690.125,338.3906 689.5,338.3906 Q688.7344,338.3906 688.0938,338.7188 Q687.4688,339.0469 686.9688,339.7969 Q686.4844,340.5469 686.4844,341.5781 L686.4844,342.6719 Q686.4844,343.9063 687.375,344.7344 Q688.2656,345.5469 689.8594,345.5469 Q690.7969,345.5469 691.4531,345.2969 Q691.8438,345.1406 692.2656,344.7031 Q692.5313,344.4375 692.6719,344.3594 Q692.8281,344.2813 693.0313,344.2813 Q693.3594,344.2813 693.6094,344.5469 Q693.875,344.7969 693.875,345.1406 Q693.875,345.4844 693.5313,345.8906 Q693.0313,346.4688 692.2344,346.7969 Q691.1563,347.25 689.8594,347.25 Q688.3438,347.25 687.1406,346.625 Q686.1563,346.125 685.4688,345.0625 Q684.7813,343.9844 684.7813,342.7031 L684.7813,341.5469 Q684.7813,340.2188 685.3906,339.0781 Q686.0156,337.9219 687.1094,337.3125 Q688.2031,336.6875 689.4375,336.6875 Q690.1719,336.6875 690.8125,336.8594 Q691.4688,337.0156 692.0156,337.375 Z " fill="#000000"/><text fill="#000000" font-family="sans-serif" font-size="14" lengthAdjust="spacing" textLength="109" x="709.75" y="347.2285">ServiceDiscovery</text><line style="stroke:#181818;stroke-width:0.5;" x1="581" x2="915" y1="357.5" y2="357.5"/><line style="stroke:#181818;stroke-width:0.5;" x1="581" x2="915" y1="365.5" y2="365.5"/><ellipse cx="591" cy="379.8047" fill="#84BE84" rx="3" ry="3" style="stroke:#038048;stroke-width:1.0;"/><text fill="#000000" font-family="sans-serif" font-size="14" lengthAdjust="spacing" textLength="310" x="600" y="384.0332">getTopicNamesOfCloseServices(servicesToFind)</text></g><!--class DiscoveryRequestReceiver--><g id="elem_DiscoveryRequestReceiver"><rect codeLine="56" fill="#F1F1F1" height="76.3125" id="DiscoveryRequestReceiver" rx="2.5" ry="2.5" style="stroke:#181818;stroke-width:0.5;" width="206" x="645" y="107"/><ellipse cx="661.35" cy="128.3516" fill="#ADD1B2" rx="11" ry="11" style="stroke:#181818;stroke-width:1.0;"/><path d="M664.1156,124.2266 Q664.2719,124.0078 664.4594,123.8984 Q664.6469,123.7891 664.8656,123.7891 Q665.2406,123.7891 665.475,124.0547 Q665.7094,124.3047 665.7094,124.9141 L665.7094,126.3672 Q665.7094,126.9766 665.475,127.2422 Q665.2406,127.5078 664.8656,127.5078 Q664.5219,127.5078 664.3188,127.3047 Q664.1156,127.1172 664.0063,126.6016 Q663.9594,126.2422 663.7719,126.0547 Q663.4438,125.6797 662.8344,125.4609 Q662.225,125.2422 661.6,125.2422 Q660.8344,125.2422 660.1938,125.5703 Q659.5688,125.8984 659.0688,126.6484 Q658.5844,127.3984 658.5844,128.4297 L658.5844,129.5234 Q658.5844,130.7578 659.475,131.5859 Q660.3656,132.3984 661.9594,132.3984 Q662.8969,132.3984 663.5531,132.1484 Q663.9438,131.9922 664.3656,131.5547 Q664.6313,131.2891 664.7719,131.2109 Q664.9281,131.1328 665.1313,131.1328 Q665.4594,131.1328 665.7094,131.3984 Q665.975,131.6484 665.975,131.9922 Q665.975,132.3359 665.6313,132.7422 Q665.1313,133.3203 664.3344,133.6484 Q663.2563,134.1016 661.9594,134.1016 Q660.4438,134.1016 659.2406,133.4766 Q658.2563,132.9766 657.5688,131.9141 Q656.8813,130.8359 656.8813,129.5547 L656.8813,128.3984 Q656.8813,127.0703 657.4906,125.9297 Q658.1156,124.7734 659.2094,124.1641 Q660.3031,123.5391 661.5375,123.5391 Q662.2719,123.5391 662.9125,123.7109 Q663.5688,123.8672 664.1156,124.2266 Z " fill="#000000"/><text fill="#000000" font-family="sans-serif" font-size="12" font-style="italic" lengthAdjust="spacing" textLength="86" x="718.15" y="124.457">&#171;ROS2 Server&#187;</text><text fill="#000000" font-family="sans-serif" font-size="14" lengthAdjust="spacing" textLength="171" x="675.65" y="141.627">DiscoveryRequestReceiver</text><line style="stroke:#181818;stroke-width:0.5;" x1="646" x2="850" y1="149.7031" y2="149.7031"/><line style="stroke:#181818;stroke-width:0.5;" x1="646" x2="850" y1="157.7031" y2="157.7031"/><ellipse cx="656" cy="172.0078" fill="#84BE84" rx="3" ry="3" style="stroke:#038048;stroke-width:1.0;"/><text fill="#000000" font-family="sans-serif" font-size="14" lengthAdjust="spacing" textLength="180" x="665" y="176.2363">respondToRequest(request)</text></g><!--class ConfigurationOfheMap--><g id="elem_ConfigurationOfheMap"><rect codeLine="66" fill="#F1F1F1" height="76.3125" id="ConfigurationOfheMap" rx="2.5" ry="2.5" style="stroke:#181818;stroke-width:0.5;" width="175" x="46.5" y="531"/><ellipse cx="61.5" cy="552.3516" fill="#F1F1F1" rx="11" ry="11" style="stroke:#181818;stroke-width:1.0;"/><path d="M59.6094,556.9141 Q59.3906,557.1797 59.25,557.2578 Q59.1094,557.3359 58.9219,557.3359 Q58.5313,557.3359 58.2813,557.0703 Q58.0469,556.8047 58.0469,556.2109 L58.0469,555.0547 Q58.0469,554.4453 58.2813,554.1953 Q58.5313,553.9297 58.9219,553.9297 Q59.2188,553.9297 59.4219,554.0859 Q59.625,554.2422 59.7344,554.6172 Q59.8438,554.9766 59.9531,555.1172 Q60.2031,555.3672 60.8125,555.6328 Q61.4219,555.8984 62.1563,555.8984 Q63.2969,555.8984 64.0156,555.3672 Q64.4844,555.0391 64.4844,554.5703 Q64.4844,554.2578 64.2656,553.9766 Q64.0469,553.6953 63.5313,553.5234 Q63.2031,553.3984 62.0469,553.1797 Q60.6563,552.9141 59.9375,552.5547 Q59.2188,552.1953 58.7969,551.5391 Q58.3906,550.8672 58.3906,550.0859 Q58.3906,548.8672 59.4063,547.9609 Q60.4375,547.0391 62.0781,547.0391 Q62.7344,547.0391 63.2813,547.1797 Q63.8438,547.3203 64.3125,547.6172 Q64.6406,547.3047 64.9688,547.3047 Q65.3438,547.3047 65.5781,547.5703 Q65.8125,547.8203 65.8125,548.4297 L65.8125,549.7109 Q65.8125,550.3203 65.5781,550.5859 Q65.3438,550.8359 64.9688,550.8359 Q64.6563,550.8359 64.4219,550.6484 Q64.2344,550.5078 64.1406,550.0859 Q64.0625,549.6641 63.9219,549.4766 Q63.6719,549.1641 63.1875,548.9609 Q62.7188,548.7422 62.0781,548.7422 Q61.1563,548.7422 60.625,549.1641 Q60.0938,549.5859 60.0938,550.0547 Q60.0938,550.3672 60.3125,550.6641 Q60.5313,550.9609 60.9531,551.1328 Q61.2344,551.2422 62.5313,551.5078 Q63.8438,551.7578 64.5469,552.0703 Q65.25,552.3672 65.7188,553.0234 Q66.1875,553.6797 66.1875,554.5859 Q66.1875,555.8516 65.2969,556.6016 Q64.1094,557.6016 62.2813,557.6016 Q61.5781,557.6016 60.9063,557.4297 Q60.25,557.2578 59.6094,556.9141 Z " fill="#000000"/><text fill="#000000" font-family="sans-serif" font-size="12" font-style="italic" lengthAdjust="spacing" textLength="111" x="91.5" y="548.457">&#171;Configuration File&#187;</text><text fill="#000000" font-family="sans-serif" font-size="14" lengthAdjust="spacing" textLength="143" x="75.5" y="565.627">ConfigurationOfheMap</text><line style="stroke:#181818;stroke-width:0.5;" x1="47.5" x2="220.5" y1="573.7031" y2="573.7031"/><text fill="#000000" font-family="sans-serif" font-size="14" lengthAdjust="spacing" textLength="68" x="52.5" y="592.2363">jsonOfMap</text><line style="stroke:#181818;stroke-width:0.5;" x1="47.5" x2="220.5" y1="599.3125" y2="599.3125"/></g><!--class ConfigurationOfTheBaseQuery--><g id="elem_ConfigurationOfTheBaseQuery"><rect codeLine="70" fill="#F1F1F1" height="76.3125" id="ConfigurationOfTheBaseQuery" rx="2.5" ry="2.5" style="stroke:#181818;stroke-width:0.5;" width="228" x="276" y="685"/><ellipse cx="291" cy="706.3516" fill="#F1F1F1" rx="11" ry="11" style="stroke:#181818;stroke-width:1.0;"/><path d="M289.1094,710.9141 Q288.8906,711.1797 288.75,711.2578 Q288.6094,711.3359 288.4219,711.3359 Q288.0313,711.3359 287.7813,711.0703 Q287.5469,710.8047 287.5469,710.2109 L287.5469,709.0547 Q287.5469,708.4453 287.7813,708.1953 Q288.0313,707.9297 288.4219,707.9297 Q288.7188,707.9297 288.9219,708.0859 Q289.125,708.2422 289.2344,708.6172 Q289.3438,708.9766 289.4531,709.1172 Q289.7031,709.3672 290.3125,709.6328 Q290.9219,709.8984 291.6563,709.8984 Q292.7969,709.8984 293.5156,709.3672 Q293.9844,709.0391 293.9844,708.5703 Q293.9844,708.2578 293.7656,707.9766 Q293.5469,707.6953 293.0313,707.5234 Q292.7031,707.3984 291.5469,707.1797 Q290.1563,706.9141 289.4375,706.5547 Q288.7188,706.1953 288.2969,705.5391 Q287.8906,704.8672 287.8906,704.0859 Q287.8906,702.8672 288.9063,701.9609 Q289.9375,701.0391 291.5781,701.0391 Q292.2344,701.0391 292.7813,701.1797 Q293.3438,701.3203 293.8125,701.6172 Q294.1406,701.3047 294.4688,701.3047 Q294.8438,701.3047 295.0781,701.5703 Q295.3125,701.8203 295.3125,702.4297 L295.3125,703.7109 Q295.3125,704.3203 295.0781,704.5859 Q294.8438,704.8359 294.4688,704.8359 Q294.1563,704.8359 293.9219,704.6484 Q293.7344,704.5078 293.6406,704.0859 Q293.5625,703.6641 293.4219,703.4766 Q293.1719,703.1641 292.6875,702.9609 Q292.2188,702.7422 291.5781,702.7422 Q290.6563,702.7422 290.125,703.1641 Q289.5938,703.5859 289.5938,704.0547 Q289.5938,704.3672 289.8125,704.6641 Q290.0313,704.9609 290.4531,705.1328 Q290.7344,705.2422 292.0313,705.5078 Q293.3438,705.7578 294.0469,706.0703 Q294.75,706.3672 295.2188,707.0234 Q295.6875,707.6797 295.6875,708.5859 Q295.6875,709.8516 294.7969,710.6016 Q293.6094,711.6016 291.7813,711.6016 Q291.0781,711.6016 290.4063,711.4297 Q289.75,711.2578 289.1094,710.9141 Z " fill="#000000"/><text fill="#000000" font-family="sans-serif" font-size="12" font-style="italic" lengthAdjust="spacing" textLength="111" x="347.5" y="702.457">&#171;Configuration File&#187;</text><text fill="#000000" font-family="sans-serif" font-size="14" lengthAdjust="spacing" textLength="196" x="305" y="719.627">ConfigurationOfTheBaseQuery</text><line style="stroke:#181818;stroke-width:0.5;" x1="277" x2="503" y1="727.7031" y2="727.7031"/><text fill="#000000" font-family="sans-serif" font-size="14" lengthAdjust="spacing" textLength="112" x="282" y="746.2363">jsonOfBaseQuery</text><line style="stroke:#181818;stroke-width:0.5;" x1="277" x2="503" y1="753.3125" y2="753.3125"/></g><!--class DiscoveryRequester--><g id="elem_DiscoveryRequester"><rect codeLine="74" fill="#F1F1F1" height="93.9219" id="DiscoveryRequester" rx="2.5" ry="2.5" style="stroke:#181818;stroke-width:0.5;" width="267" x="256.5" y="522"/><ellipse cx="321.75" cy="543.3516" fill="#ADD1B2" rx="11" ry="11" style="stroke:#181818;stroke-width:1.0;"/><path d="M324.5156,539.2266 Q324.6719,539.0078 324.8594,538.8984 Q325.0469,538.7891 325.2656,538.7891 Q325.6406,538.7891 325.875,539.0547 Q326.1094,539.3047 326.1094,539.9141 L326.1094,541.3672 Q326.1094,541.9766 325.875,542.2422 Q325.6406,542.5078 325.2656,542.5078 Q324.9219,542.5078 324.7188,542.3047 Q324.5156,542.1172 324.4063,541.6016 Q324.3594,541.2422 324.1719,541.0547 Q323.8438,540.6797 323.2344,540.4609 Q322.625,540.2422 322,540.2422 Q321.2344,540.2422 320.5938,540.5703 Q319.9688,540.8984 319.4688,541.6484 Q318.9844,542.3984 318.9844,543.4297 L318.9844,544.5234 Q318.9844,545.7578 319.875,546.5859 Q320.7656,547.3984 322.3594,547.3984 Q323.2969,547.3984 323.9531,547.1484 Q324.3438,546.9922 324.7656,546.5547 Q325.0313,546.2891 325.1719,546.2109 Q325.3281,546.1328 325.5313,546.1328 Q325.8594,546.1328 326.1094,546.3984 Q326.375,546.6484 326.375,546.9922 Q326.375,547.3359 326.0313,547.7422 Q325.5313,548.3203 324.7344,548.6484 Q323.6563,549.1016 322.3594,549.1016 Q320.8438,549.1016 319.6406,548.4766 Q318.6563,547.9766 317.9688,546.9141 Q317.2813,545.8359 317.2813,544.5547 L317.2813,543.3984 Q317.2813,542.0703 317.8906,540.9297 Q318.5156,539.7734 319.6094,539.1641 Q320.7031,538.5391 321.9375,538.5391 Q322.6719,538.5391 323.3125,538.7109 Q323.9688,538.8672 324.5156,539.2266 Z " fill="#000000"/><text fill="#000000" font-family="sans-serif" font-size="12" font-style="italic" lengthAdjust="spacing" textLength="82" x="365.25" y="539.457">&#171;ROS2 Client&#187;</text><text fill="#000000" font-family="sans-serif" font-size="14" lengthAdjust="spacing" textLength="128" x="342.25" y="556.627">DiscoveryRequester</text><line style="stroke:#181818;stroke-width:0.5;" x1="257.5" x2="522.5" y1="564.7031" y2="564.7031"/><rect fill="none" height="6" style="stroke:#C82930;stroke-width:1.0;" width="6" x="264.5" y="576.0078"/><text fill="#000000" font-family="sans-serif" font-size="14" lengthAdjust="spacing" textLength="116" x="276.5" y="583.2363">baseConfiguration</text><line style="stroke:#181818;stroke-width:0.5;" x1="257.5" x2="522.5" y1="590.3125" y2="590.3125"/><ellipse cx="267.5" cy="604.6172" fill="#84BE84" rx="3" ry="3" style="stroke:#038048;stroke-width:1.0;"/><text fill="#000000" font-family="sans-serif" font-size="14" lengthAdjust="spacing" textLength="241" x="276.5" y="608.8457">requestROS2ServerForServices(rsus)</text></g><!--class VehicleService--><g id="elem_VehicleService"><rect codeLine="79" fill="#F1F1F1" height="188.875" id="VehicleService" rx="2.5" ry="2.5" style="stroke:#181818;stroke-width:0.5;" width="227" x="109.5" y="264"/><ellipse cx="172.25" cy="280" fill="#ADD1B2" rx="11" ry="11" style="stroke:#181818;stroke-width:1.0;"/><path d="M175.0156,275.875 Q175.1719,275.6563 175.3594,275.5469 Q175.5469,275.4375 175.7656,275.4375 Q176.1406,275.4375 176.375,275.7031 Q176.6094,275.9531 176.6094,276.5625 L176.6094,278.0156 Q176.6094,278.625 176.375,278.8906 Q176.1406,279.1563 175.7656,279.1563 Q175.4219,279.1563 175.2188,278.9531 Q175.0156,278.7656 174.9063,278.25 Q174.8594,277.8906 174.6719,277.7031 Q174.3438,277.3281 173.7344,277.1094 Q173.125,276.8906 172.5,276.8906 Q171.7344,276.8906 171.0938,277.2188 Q170.4688,277.5469 169.9688,278.2969 Q169.4844,279.0469 169.4844,280.0781 L169.4844,281.1719 Q169.4844,282.4063 170.375,283.2344 Q171.2656,284.0469 172.8594,284.0469 Q173.7969,284.0469 174.4531,283.7969 Q174.8438,283.6406 175.2656,283.2031 Q175.5313,282.9375 175.6719,282.8594 Q175.8281,282.7813 176.0313,282.7813 Q176.3594,282.7813 176.6094,283.0469 Q176.875,283.2969 176.875,283.6406 Q176.875,283.9844 176.5313,284.3906 Q176.0313,284.9688 175.2344,285.2969 Q174.1563,285.75 172.8594,285.75 Q171.3438,285.75 170.1406,285.125 Q169.1563,284.625 168.4688,283.5625 Q167.7813,282.4844 167.7813,281.2031 L167.7813,280.0469 Q167.7813,278.7188 168.3906,277.5781 Q169.0156,276.4219 170.1094,275.8125 Q171.2031,275.1875 172.4375,275.1875 Q173.1719,275.1875 173.8125,275.3594 Q174.4688,275.5156 175.0156,275.875 Z " fill="#000000"/><text fill="#000000" font-family="sans-serif" font-size="14" lengthAdjust="spacing" textLength="93" x="192.75" y="285.7285">VehicleService</text><line style="stroke:#181818;stroke-width:0.5;" x1="110.5" x2="335.5" y1="296" y2="296"/><rect fill="none" height="6" style="stroke:#C82930;stroke-width:1.0;" width="6" x="117.5" y="307.3047"/><text fill="#000000" font-family="sans-serif" font-size="14" lengthAdjust="spacing" textLength="143" x="129.5" y="314.5332">ConfigurationOfheMap</text><rect fill="none" height="6" style="stroke:#C82930;stroke-width:1.0;" width="6" x="117.5" y="324.9141"/><text fill="#000000" font-family="sans-serif" font-size="14" lengthAdjust="spacing" textLength="126" x="129.5" y="332.1426">discoveryRequester</text><rect fill="none" height="6" style="stroke:#C82930;stroke-width:1.0;" width="6" x="117.5" y="342.5234"/><text fill="#000000" font-family="sans-serif" font-size="14" lengthAdjust="spacing" textLength="83" x="129.5" y="349.752">subscriptions</text><rect fill="none" height="6" style="stroke:#C82930;stroke-width:1.0;" width="6" x="117.5" y="360.1328"/><text fill="#000000" font-family="sans-serif" font-size="14" lengthAdjust="spacing" textLength="82" x="129.5" y="367.3613">totalDistance</text><rect fill="none" height="6" style="stroke:#C82930;stroke-width:1.0;" width="6" x="117.5" y="377.7422"/><text fill="#000000" font-family="sans-serif" font-size="14" lengthAdjust="spacing" textLength="201" x="129.5" y="384.9707">distanceToLookForOthersRSUs</text><rect fill="none" height="6" style="stroke:#C82930;stroke-width:1.0;" width="6" x="117.5" y="395.3516"/><text fill="#000000" font-family="sans-serif" font-size="14" lengthAdjust="spacing" textLength="166" x="129.5" y="402.5801">timerToUpdateCarPosition</text><line style="stroke:#181818;stroke-width:0.5;" x1="110.5" x2="335.5" y1="409.6563" y2="409.6563"/><rect fill="#F24D5C" height="6" style="stroke:#C82930;stroke-width:1.0;" width="6" x="117.5" y="420.9609"/><text fill="#000000" font-family="sans-serif" font-size="14" lengthAdjust="spacing" textLength="134" x="129.5" y="428.1895">checkForNearRSUs()</text><rect fill="#F24D5C" height="6" style="stroke:#C82930;stroke-width:1.0;" width="6" x="117.5" y="438.5703"/><text fill="#000000" font-family="sans-serif" font-size="14" lengthAdjust="spacing" textLength="55" x="129.5" y="445.7988">service()</text></g><!--class PoliceService--><g id="elem_PoliceService"><rect codeLine="91" fill="#F1F1F1" height="65.6094" id="PoliceService" rx="2.5" ry="2.5" style="stroke:#181818;stroke-width:0.5;" width="117" x="227.5" y="112"/><ellipse cx="242.5" cy="128" fill="#ADD1B2" rx="11" ry="11" style="stroke:#181818;stroke-width:1.0;"/><path d="M245.2656,123.875 Q245.4219,123.6563 245.6094,123.5469 Q245.7969,123.4375 246.0156,123.4375 Q246.3906,123.4375 246.625,123.7031 Q246.8594,123.9531 246.8594,124.5625 L246.8594,126.0156 Q246.8594,126.625 246.625,126.8906 Q246.3906,127.1563 246.0156,127.1563 Q245.6719,127.1563 245.4688,126.9531 Q245.2656,126.7656 245.1563,126.25 Q245.1094,125.8906 244.9219,125.7031 Q244.5938,125.3281 243.9844,125.1094 Q243.375,124.8906 242.75,124.8906 Q241.9844,124.8906 241.3438,125.2188 Q240.7188,125.5469 240.2188,126.2969 Q239.7344,127.0469 239.7344,128.0781 L239.7344,129.1719 Q239.7344,130.4063 240.625,131.2344 Q241.5156,132.0469 243.1094,132.0469 Q244.0469,132.0469 244.7031,131.7969 Q245.0938,131.6406 245.5156,131.2031 Q245.7813,130.9375 245.9219,130.8594 Q246.0781,130.7813 246.2813,130.7813 Q246.6094,130.7813 246.8594,131.0469 Q247.125,131.2969 247.125,131.6406 Q247.125,131.9844 246.7813,132.3906 Q246.2813,132.9688 245.4844,133.2969 Q244.4063,133.75 243.1094,133.75 Q241.5938,133.75 240.3906,133.125 Q239.4063,132.625 238.7188,131.5625 Q238.0313,130.4844 238.0313,129.2031 L238.0313,128.0469 Q238.0313,126.7188 238.6406,125.5781 Q239.2656,124.4219 240.3594,123.8125 Q241.4531,123.1875 242.6875,123.1875 Q243.4219,123.1875 244.0625,123.3594 Q244.7188,123.5156 245.2656,123.875 Z " fill="#000000"/><text fill="#000000" font-family="sans-serif" font-size="14" lengthAdjust="spacing" textLength="85" x="256.5" y="133.7285">PoliceService</text><line style="stroke:#181818;stroke-width:0.5;" x1="228.5" x2="343.5" y1="144" y2="144"/><line style="stroke:#181818;stroke-width:0.5;" x1="228.5" x2="343.5" y1="152" y2="152"/><rect fill="#F24D5C" height="6" style="stroke:#C82930;stroke-width:1.0;" width="6" x="235.5" y="163.3047"/><text fill="#000000" font-family="sans-serif" font-size="14" lengthAdjust="spacing" textLength="55" x="247.5" y="170.5332">service()</text></g><!--class TrafficService--><g id="elem_TrafficService"><rect codeLine="95" fill="#F1F1F1" height="65.6094" id="TrafficService" rx="2.5" ry="2.5" style="stroke:#181818;stroke-width:0.5;" width="119" x="73.5" y="112"/><ellipse cx="88.5" cy="128" fill="#ADD1B2" rx="11" ry="11" style="stroke:#181818;stroke-width:1.0;"/><path d="M91.2656,123.875 Q91.4219,123.6563 91.6094,123.5469 Q91.7969,123.4375 92.0156,123.4375 Q92.3906,123.4375 92.625,123.7031 Q92.8594,123.9531 92.8594,124.5625 L92.8594,126.0156 Q92.8594,126.625 92.625,126.8906 Q92.3906,127.1563 92.0156,127.1563 Q91.6719,127.1563 91.4688,126.9531 Q91.2656,126.7656 91.1563,126.25 Q91.1094,125.8906 90.9219,125.7031 Q90.5938,125.3281 89.9844,125.1094 Q89.375,124.8906 88.75,124.8906 Q87.9844,124.8906 87.3438,125.2188 Q86.7188,125.5469 86.2188,126.2969 Q85.7344,127.0469 85.7344,128.0781 L85.7344,129.1719 Q85.7344,130.4063 86.625,131.2344 Q87.5156,132.0469 89.1094,132.0469 Q90.0469,132.0469 90.7031,131.7969 Q91.0938,131.6406 91.5156,131.2031 Q91.7813,130.9375 91.9219,130.8594 Q92.0781,130.7813 92.2813,130.7813 Q92.6094,130.7813 92.8594,131.0469 Q93.125,131.2969 93.125,131.6406 Q93.125,131.9844 92.7813,132.3906 Q92.2813,132.9688 91.4844,133.2969 Q90.4063,133.75 89.1094,133.75 Q87.5938,133.75 86.3906,133.125 Q85.4063,132.625 84.7188,131.5625 Q84.0313,130.4844 84.0313,129.2031 L84.0313,128.0469 Q84.0313,126.7188 84.6406,125.5781 Q85.2656,124.4219 86.3594,123.8125 Q87.4531,123.1875 88.6875,123.1875 Q89.4219,123.1875 90.0625,123.3594 Q90.7188,123.5156 91.2656,123.875 Z " fill="#000000"/><text fill="#000000" font-family="sans-serif" font-size="14" lengthAdjust="spacing" textLength="87" x="102.5" y="133.7285">TrafficService</text><line style="stroke:#181818;stroke-width:0.5;" x1="74.5" x2="191.5" y1="144" y2="144"/><line style="stroke:#181818;stroke-width:0.5;" x1="74.5" x2="191.5" y1="152" y2="152"/><rect fill="#F24D5C" height="6" style="stroke:#C82930;stroke-width:1.0;" width="6" x="81.5" y="163.3047"/><text fill="#000000" font-family="sans-serif" font-size="14" lengthAdjust="spacing" textLength="55" x="93.5" y="170.5332">service()</text></g><!--link RegistrationRequestReceiver to ServiceRegister--><g id="link_RegistrationRequestReceiver_ServiceRegister"><path codeLine="18" d="M1428,183.33 C1428,217.95 1428,263.73 1428,301.84 " fill="none" id="RegistrationRequestReceiver-to-ServiceRegister" style="stroke:#181818;stroke-width:1.0;"/><polygon fill="#181818" points="1428,307.84,1432,298.84,1428,302.84,1424,298.84,1428,307.84" style="stroke:#181818;stroke-width:1.0;"/></g><!--link RegistrationRequester to RSUServiceconfiguration--><g id="link_RegistrationRequester_RSUServiceconfiguration"><path codeLine="47" d="M1116,432.13 C1116,458.57 1116,482.01 1116,506.71 " fill="none" id="RegistrationRequester-to-RSUServiceconfiguration" style="stroke:#181818;stroke-width:1.0;"/><polygon fill="#181818" points="1116,512.71,1120,503.71,1116,507.71,1112,503.71,1116,512.71" style="stroke:#181818;stroke-width:1.0;"/></g><!--link RSUService to RegistrationRequester--><g id="link_RSUService_RegistrationRequester"><path codeLine="48" d="M1116,204.07 C1116,229.02 1116,252.44 1116,278.82 " fill="none" id="RSUService-to-RegistrationRequester" style="stroke:#181818;stroke-width:1.0;"/><polygon fill="#181818" points="1116,284.82,1120,275.82,1116,279.82,1112,275.82,1116,284.82" style="stroke:#181818;stroke-width:1.0;"/></g><!--link DiscoveryRequestReceiver to ServiceDiscovery--><g id="link_DiscoveryRequestReceiver_ServiceDiscovery"><path codeLine="60" d="M748,183.33 C748,223.65 748,281.22 748,319.39 " fill="none" id="DiscoveryRequestReceiver-to-ServiceDiscovery" style="stroke:#181818;stroke-width:1.0;"/><polygon fill="#181818" points="748,325.39,752,316.39,748,320.39,744,316.39,748,325.39" style="stroke:#181818;stroke-width:1.0;"/></g><!--link TrafficService to VehicleService--><g id="link_TrafficService_VehicleService"><path codeLine="99" d="M146.67,178.12 C156.41,201 162.9851,216.4459 176.0251,247.1059 " fill="none" id="TrafficService-to-VehicleService" style="stroke:#181818;stroke-width:1.0;"/><polygon fill="none" points="183.07,263.67,181.5465,244.7576,170.5038,249.4542,183.07,263.67" style="stroke:#181818;stroke-width:1.0;"/></g><!--link PoliceService to VehicleService--><g id="link_PoliceService_VehicleService"><path codeLine="100" d="M276.43,178.12 C269.62,201 265.2171,215.7586 256.0871,246.4186 " fill="none" id="PoliceService-to-VehicleService" style="stroke:#181818;stroke-width:1.0;"/><polygon fill="none" points="250.95,263.67,261.8376,248.131,250.3367,244.7062,250.95,263.67" style="stroke:#181818;stroke-width:1.0;"/></g><!--link VehicleService to DiscoveryRequester--><g id="link_VehicleService_DiscoveryRequester"><path codeLine="101" d="M297.95,453.08 C317.03,476.89 332.9596,496.7766 349.1996,517.0566 " fill="none" id="VehicleService-to-DiscoveryRequester" style="stroke:#181818;stroke-width:1.0;"/><polygon fill="#181818" points="352.95,521.74,350.4466,512.2146,349.8246,517.8372,344.2021,517.2152,352.95,521.74" style="stroke:#181818;stroke-width:1.0;"/></g><!--link DiscoveryRequester to ConfigurationOfTheBaseQuery--><g id="link_DiscoveryRequester_ConfigurationOfTheBaseQuery"><path codeLine="102" d="M390,616.02 C390,638.04 390,658.05 390,678.8 " fill="none" id="DiscoveryRequester-to-ConfigurationOfTheBaseQuery" style="stroke:#181818;stroke-width:1.0;"/><polygon fill="#181818" points="390,684.8,394,675.8,390,679.8,386,675.8,390,684.8" style="stroke:#181818;stroke-width:1.0;"/></g><!--link VehicleService to ConfigurationOfheMap--><g id="link_VehicleService_ConfigurationOfheMap"><path codeLine="103" d="M183.06,453.08 C171.32,480.57 161.5055,503.5517 152.2255,525.2917 " fill="none" id="VehicleService-to-ConfigurationOfheMap" style="stroke:#181818;stroke-width:1.0;"/><polygon fill="#181818" points="149.87,530.81,157.0822,524.1029,151.833,526.2114,149.7245,520.9622,149.87,530.81" style="stroke:#181818;stroke-width:1.0;"/></g><!--SRC=[ZLHDZzem4BtdLt0hAqIHUgnMI1GMgTfssK9sxyOPY7UTsFKugrBAVw-JE8cJc8zS49utNs_cpQTOQubV9nF9IQgpX7-c8fbGJX374IDxHP8W22IXxsGFWrccHK8qH9i3QaYEGJ0mNsNTWFfW570DUuPQ7Qmv_ug05Q2qWphMvlmRAVjiKSExjZcJaSdyy4SoHJGJwO8SXbX2lqSTR0GSDFG3dReLsLABW6ludG7gDL1W7w06z_VhrUPBKJIewRHJBKa9F_m5wpHKvQytrQKau_6qIqlfU6fONszUB9KcIaPr_c1zg4XtR9-LiKt5yzR_9UFGBTnIzaeuYmfKpmfg5aNgMIZTCjcC2w99u3HeUQmhQhADLRzlqrrjrYm15Of706bzPznmqW1ajkKCOzS7wv7MRvvYV7chSSuvWrIxh8pFq5a3HdlGeP2CFf74tQQH7NeUjzoIfL1kyclObsAbVLliXJzmbh3KZMpRzZUShzQbrXfR2VLEord3IjuBXbIOYWx7e2VjZgt77gvsSowmaYPMlMCebYoDxlh3h2FUB4_37KgHHg7mYjD6FnlNKMID2LmUNY5cb4DRaYtXhNOn_2JogXxVCCSQf5kOFs0OmpU2y2iprTmOjyPV9_MYFBOcpjml3D-MrgDLcA5de9Q-_hdmKTXOerx9pbN8jaWLaxaZEWT6QC9Dgvga55gHYfTG_13YtLIyqkR6e943zevJgT0vCUSGMT5x0w4nqDpz2OZAdHsrEtUgr_-puCRIR_-2IwZ8RiVeZJvjjDddVzCEwGMiLSTPLFkf4CV2FmdFJkNe2tjyBi7PHJZbElmF]--></g></svg>