<?xml version="1.0" encoding="us-ascii" standalone="no"?><svg xmlns="http://www.w3.org/2000/svg" xmlns:xlink="http://www.w3.org/1999/xlink" contentStyleType="text/css" height="1240px" preserveAspectRatio="none" style="width:1583px;height:1240px;background:#FFFFFF;" version="1.1" viewBox="0 0 1583 1240" width="1583px" zoomAndPan="magnify"><defs/><g><!--cluster AutomatedSystem--><g id="cluster_AutomatedSystem"><rect fill="#F8F8FF" height="1227" rx="2.5" ry="2.5" style="stroke:#000000;stroke-width:1.0;" width="1558" x="7" y="7"/><rect fill="#F8F8FF" height="10" style="stroke:#000000;stroke-width:1.0;" width="15" x="1545" y="12"/><rect fill="#F8F8FF" height="2" style="stroke:#000000;stroke-width:1.0;" width="4" x="1543" y="14"/><rect fill="#F8F8FF" height="2" style="stroke:#000000;stroke-width:1.0;" width="4" x="1543" y="18"/><text fill="#000000" font-family="Arial" font-size="15" font-style="italic" lengthAdjust="spacing" textLength="138" x="717" y="34.0698">&#171;AutomatedSystem&#187;</text><text fill="#000000" font-family="Arial" font-size="15" font-weight="bold" lengthAdjust="spacing" textLength="126" x="723" y="51.3184">AutomatedSystem</text></g><!--cluster Arrowhead--><g id="cluster_Arrowhead"><rect fill="#FFFAF0" height="267.5" rx="2.5" ry="2.5" style="stroke:#000000;stroke-width:1.0;" width="207" x="1332" y="278.5"/><rect fill="#FFFAF0" height="10" style="stroke:#000000;stroke-width:1.0;" width="15" x="1519" y="283.5"/><rect fill="#FFFAF0" height="2" style="stroke:#000000;stroke-width:1.0;" width="4" x="1517" y="285.5"/><rect fill="#FFFAF0" height="2" style="stroke:#000000;stroke-width:1.0;" width="4" x="1517" y="289.5"/><text fill="#000000" font-family="Arial" font-size="15" font-style="italic" lengthAdjust="spacing" textLength="85" x="1393" y="305.5698">&#171;Arrowhead&#187;</text><text fill="#000000" font-family="Arial" font-size="15" font-weight="bold" lengthAdjust="spacing" textLength="76" x="1397.5" y="322.8184">Arrowhead</text></g><!--cluster ServiceRegistry--><g id="cluster_ServiceRegistry"><rect fill="#FFDAB9" height="143" rx="2.5" ry="2.5" style="stroke:#000000;stroke-width:1.0;" width="124" x="1399.875" y="387"/><rect fill="#FFDAB9" height="10" style="stroke:#000000;stroke-width:1.0;" width="15" x="1503.875" y="392"/><rect fill="#FFDAB9" height="2" style="stroke:#000000;stroke-width:1.0;" width="4" x="1501.875" y="394"/><rect fill="#FFDAB9" height="2" style="stroke:#000000;stroke-width:1.0;" width="4" x="1501.875" y="398"/><text fill="#000000" font-family="Arial" font-size="15" font-style="italic" lengthAdjust="spacing" textLength="103" x="1410.375" y="414.0698">&#171;HTTP Server&#187;</text><text fill="#000000" font-family="Arial" font-size="15" font-weight="bold" lengthAdjust="spacing" textLength="114" x="1404.875" y="431.3184">ServiceRegistry</text></g><!--cluster Vehicle--><g id="cluster_Vehicle"><rect fill="#FFFAF0" height="537" rx="2.5" ry="2.5" style="stroke:#000000;stroke-width:1.0;" width="1204" x="345" y="681"/><rect fill="#FFFAF0" height="10" style="stroke:#000000;stroke-width:1.0;" width="15" x="1529" y="686"/><rect fill="#FFFAF0" height="2" style="stroke:#000000;stroke-width:1.0;" width="4" x="1527" y="688"/><rect fill="#FFFAF0" height="2" style="stroke:#000000;stroke-width:1.0;" width="4" x="1527" y="692"/><text fill="#000000" font-family="Arial" font-size="15" font-style="italic" lengthAdjust="spacing" textLength="64" x="915" y="708.0698">&#171;Vehicle&#187;</text><text fill="#000000" font-family="Arial" font-size="15" font-weight="bold" lengthAdjust="spacing" textLength="52" x="921" y="725.3184">Vehicle</text></g><!--cluster ArrowheadCommunicaterDiscover--><g id="cluster_ArrowheadCommunicaterDiscover"><rect fill="#B0C4DE" height="256" rx="2.5" ry="2.5" style="stroke:#000000;stroke-width:1.0;" width="774" x="759" y="765.5"/><rect fill="#B0C4DE" height="10" style="stroke:#000000;stroke-width:1.0;" width="15" x="1513" y="770.5"/><rect fill="#B0C4DE" height="2" style="stroke:#000000;stroke-width:1.0;" width="4" x="1511" y="772.5"/><rect fill="#B0C4DE" height="2" style="stroke:#000000;stroke-width:1.0;" width="4" x="1511" y="776.5"/><text fill="#000000" font-family="Arial" font-size="15" font-style="italic" lengthAdjust="spacing" textLength="96" x="1098" y="792.5698">&#171;ROS2 Node&#187;</text><text fill="#000000" font-family="Arial" font-size="15" font-weight="bold" lengthAdjust="spacing" textLength="242" x="1025" y="809.8184">ArrowheadCommunicaterDiscover</text></g><!--cluster DiscoveryServicesClient--><g id="cluster_DiscoveryServicesClient"><rect fill="#FFDAB9" height="143" rx="2.5" ry="2.5" style="stroke:#000000;stroke-width:1.0;" width="209" x="775" y="862.5"/><rect fill="#FFDAB9" height="10" style="stroke:#000000;stroke-width:1.0;" width="15" x="964" y="867.5"/><rect fill="#FFDAB9" height="2" style="stroke:#000000;stroke-width:1.0;" width="4" x="962" y="869.5"/><rect fill="#FFDAB9" height="2" style="stroke:#000000;stroke-width:1.0;" width="4" x="962" y="873.5"/><text fill="#000000" font-family="Arial" font-size="15" font-style="italic" lengthAdjust="spacing" textLength="96" x="831.5" y="889.5698">&#171;HTTP Client&#187;</text><text fill="#000000" font-family="Arial" font-size="15" font-weight="bold" lengthAdjust="spacing" textLength="176" x="791.5" y="906.8184">DiscoveryServicesClient</text></g><!--cluster DiscoveryRequestReceiver--><g id="cluster_DiscoveryRequestReceiver"><rect fill="#EEE8AA" height="143" rx="2.5" ry="2.5" style="stroke:#000000;stroke-width:1.0;" width="229" x="1288" y="862.5"/><rect fill="#EEE8AA" height="10" style="stroke:#000000;stroke-width:1.0;" width="15" x="1497" y="867.5"/><rect fill="#EEE8AA" height="2" style="stroke:#000000;stroke-width:1.0;" width="4" x="1495" y="869.5"/><rect fill="#EEE8AA" height="2" style="stroke:#000000;stroke-width:1.0;" width="4" x="1495" y="873.5"/><text fill="#000000" font-family="Arial" font-size="15" font-style="italic" lengthAdjust="spacing" textLength="105" x="1350" y="889.5698">&#171;ROS2 Server&#187;</text><text fill="#000000" font-family="Arial" font-size="15" font-weight="bold" lengthAdjust="spacing" textLength="196" x="1304.5" y="906.8184">DiscoveryRequestReceiver</text></g><!--cluster VehicleServiceNode--><g id="cluster_VehicleServiceNode"><rect fill="#B0C4DE" height="339.5" rx="2.5" ry="2.5" style="stroke:#000000;stroke-width:1.0;" width="391" x="361" y="862.5"/><rect fill="#B0C4DE" height="10" style="stroke:#000000;stroke-width:1.0;" width="15" x="732" y="867.5"/><rect fill="#B0C4DE" height="2" style="stroke:#000000;stroke-width:1.0;" width="4" x="730" y="869.5"/><rect fill="#B0C4DE" height="2" style="stroke:#000000;stroke-width:1.0;" width="4" x="730" y="873.5"/><text fill="#000000" font-family="Arial" font-size="15" font-style="italic" lengthAdjust="spacing" textLength="96" x="508.5" y="889.5698">&#171;ROS2 Node&#187;</text><text fill="#000000" font-family="Arial" font-size="15" font-weight="bold" lengthAdjust="spacing" textLength="145" x="484" y="906.8184">VehicleServiceNode</text></g><!--cluster DiscoveryRequester--><g id="cluster_DiscoveryRequester"><rect fill="#EEE8AA" height="119" rx="2.5" ry="2.5" style="stroke:#000000;stroke-width:1.0;" width="180" x="541" y="1067"/><rect fill="#EEE8AA" height="10" style="stroke:#000000;stroke-width:1.0;" width="15" x="701" y="1072"/><rect fill="#EEE8AA" height="2" style="stroke:#000000;stroke-width:1.0;" width="4" x="699" y="1074"/><rect fill="#EEE8AA" height="2" style="stroke:#000000;stroke-width:1.0;" width="4" x="699" y="1078"/><text fill="#000000" font-family="Arial" font-size="15" font-style="italic" lengthAdjust="spacing" textLength="98" x="582" y="1094.0698">&#171;ROS2 Client&#187;</text><text fill="#000000" font-family="Arial" font-size="15" font-weight="bold" lengthAdjust="spacing" textLength="146" x="558" y="1111.3184">DiscoveryRequester</text></g><!--cluster VehicleService--><g id="cluster_VehicleService"><rect fill="#B0E0E6" height="119" rx="2.5" ry="2.5" style="stroke:#000000;stroke-width:1.0;" width="117" x="377" y="1067"/><rect fill="#B0E0E6" height="10" style="stroke:#000000;stroke-width:1.0;" width="15" x="474" y="1072"/><rect fill="#B0E0E6" height="2" style="stroke:#000000;stroke-width:1.0;" width="4" x="472" y="1074"/><rect fill="#B0E0E6" height="2" style="stroke:#000000;stroke-width:1.0;" width="4" x="472" y="1078"/><text fill="#000000" font-family="Arial" font-size="15" font-style="italic" lengthAdjust="spacing" textLength="66" x="402.5" y="1094.0698">&#171;Service&#187;</text><text fill="#000000" font-family="Arial" font-size="15" font-weight="bold" lengthAdjust="spacing" textLength="107" x="382" y="1111.3184">VehicleService</text></g><!--cluster RSU--><g id="cluster_RSU"><rect fill="#FFFAF0" height="585" rx="2.5" ry="2.5" style="stroke:#000000;stroke-width:1.0;" width="1204" x="23" y="74"/><rect fill="#FFFAF0" height="10" style="stroke:#000000;stroke-width:1.0;" width="15" x="1207" y="79"/><rect fill="#FFFAF0" height="2" style="stroke:#000000;stroke-width:1.0;" width="4" x="1205" y="81"/><rect fill="#FFFAF0" height="2" style="stroke:#000000;stroke-width:1.0;" width="4" x="1205" y="85"/><text fill="#000000" font-family="Arial" font-size="15" font-style="italic" lengthAdjust="spacing" textLength="48" x="601" y="101.0698">&#171;RSU&#187;</text><text fill="#000000" font-family="Arial" font-size="15" font-weight="bold" lengthAdjust="spacing" textLength="32" x="609" y="118.3184">RSU</text></g><!--cluster RSUServiceNode--><g id="cluster_RSUServiceNode"><rect fill="#B0C4DE" height="364.5" rx="2.5" ry="2.5" style="stroke:#000000;stroke-width:1.0;" width="386" x="39" y="278.5"/><rect fill="#B0C4DE" height="10" style="stroke:#000000;stroke-width:1.0;" width="15" x="405" y="283.5"/><rect fill="#B0C4DE" height="2" style="stroke:#000000;stroke-width:1.0;" width="4" x="403" y="285.5"/><rect fill="#B0C4DE" height="2" style="stroke:#000000;stroke-width:1.0;" width="4" x="403" y="289.5"/><text fill="#000000" font-family="Arial" font-size="15" font-style="italic" lengthAdjust="spacing" textLength="96" x="184" y="305.5698">&#171;ROS2 Node&#187;</text><text fill="#000000" font-family="Arial" font-size="15" font-weight="bold" lengthAdjust="spacing" textLength="125" x="169.5" y="322.8184">RSUServiceNode</text></g><!--cluster RegistrationRequester--><g id="cluster_RegistrationRequester"><rect fill="#EEE8AA" height="131.5" rx="2.5" ry="2.5" style="stroke:#000000;stroke-width:1.0;" width="210" x="199" y="495.5"/><rect fill="#EEE8AA" height="10" style="stroke:#000000;stroke-width:1.0;" width="15" x="389" y="500.5"/><rect fill="#EEE8AA" height="2" style="stroke:#000000;stroke-width:1.0;" width="4" x="387" y="502.5"/><rect fill="#EEE8AA" height="2" style="stroke:#000000;stroke-width:1.0;" width="4" x="387" y="506.5"/><text fill="#000000" font-family="Arial" font-size="15" font-style="italic" lengthAdjust="spacing" textLength="98" x="255" y="522.5698">&#171;ROS2 Client&#187;</text><text fill="#000000" font-family="Arial" font-size="15" font-weight="bold" lengthAdjust="spacing" textLength="162" x="223" y="539.8184">RegistrationRequester</text></g><!--cluster RSUService--><g id="cluster_RSUService"><rect fill="#B0E0E6" height="131.5" rx="2.5" ry="2.5" style="stroke:#000000;stroke-width:1.0;" width="97" x="55" y="495.5"/><rect fill="#B0E0E6" height="10" style="stroke:#000000;stroke-width:1.0;" width="15" x="132" y="500.5"/><rect fill="#B0E0E6" height="2" style="stroke:#000000;stroke-width:1.0;" width="4" x="130" y="502.5"/><rect fill="#B0E0E6" height="2" style="stroke:#000000;stroke-width:1.0;" width="4" x="130" y="506.5"/><text fill="#000000" font-family="Arial" font-size="15" font-style="italic" lengthAdjust="spacing" textLength="66" x="70.5" y="522.5698">&#171;Service&#187;</text><text fill="#000000" font-family="Arial" font-size="15" font-weight="bold" lengthAdjust="spacing" textLength="87" x="60" y="539.8184">RSUService</text></g><!--cluster ArrowheadCommunicaterRegister--><g id="cluster_ArrowheadCommunicaterRegister"><rect fill="#B0C4DE" height="267.5" rx="2.5" ry="2.5" style="stroke:#000000;stroke-width:1.0;" width="778" x="433" y="170"/><rect fill="#B0C4DE" height="10" style="stroke:#000000;stroke-width:1.0;" width="15" x="1191" y="175"/><rect fill="#B0C4DE" height="2" style="stroke:#000000;stroke-width:1.0;" width="4" x="1189" y="177"/><rect fill="#B0C4DE" height="2" style="stroke:#000000;stroke-width:1.0;" width="4" x="1189" y="181"/><text fill="#000000" font-family="Arial" font-size="15" font-style="italic" lengthAdjust="spacing" textLength="96" x="774" y="197.0698">&#171;ROS2 Node&#187;</text><text fill="#000000" font-family="Arial" font-size="15" font-weight="bold" lengthAdjust="spacing" textLength="239" x="702.5" y="214.3184">ArrowheadCommunicaterRegister</text></g><!--cluster RegisterServicesClient--><g id="cluster_RegisterServicesClient"><rect fill="#FFDAB9" height="143" rx="2.5" ry="2.5" style="stroke:#000000;stroke-width:1.0;" width="199" x="449" y="278.5"/><rect fill="#FFDAB9" height="10" style="stroke:#000000;stroke-width:1.0;" width="15" x="628" y="283.5"/><rect fill="#FFDAB9" height="2" style="stroke:#000000;stroke-width:1.0;" width="4" x="626" y="285.5"/><rect fill="#FFDAB9" height="2" style="stroke:#000000;stroke-width:1.0;" width="4" x="626" y="289.5"/><text fill="#000000" font-family="Arial" font-size="15" font-style="italic" lengthAdjust="spacing" textLength="96" x="500.5" y="305.5698">&#171;HTTP Client&#187;</text><text fill="#000000" font-family="Arial" font-size="15" font-weight="bold" lengthAdjust="spacing" textLength="166" x="465.5" y="322.8184">RegisterServicesClient</text></g><!--cluster RegistrationRequestReceiver--><g id="cluster_RegistrationRequestReceiver"><rect fill="#EEE8AA" height="143" rx="2.5" ry="2.5" style="stroke:#000000;stroke-width:1.0;" width="245" x="950" y="278.5"/><rect fill="#EEE8AA" height="10" style="stroke:#000000;stroke-width:1.0;" width="15" x="1175" y="283.5"/><rect fill="#EEE8AA" height="2" style="stroke:#000000;stroke-width:1.0;" width="4" x="1173" y="285.5"/><rect fill="#EEE8AA" height="2" style="stroke:#000000;stroke-width:1.0;" width="4" x="1173" y="289.5"/><text fill="#000000" font-family="Arial" font-size="15" font-style="italic" lengthAdjust="spacing" textLength="105" x="1020" y="305.5698">&#171;ROS2 Server&#187;</text><text fill="#000000" font-family="Arial" font-size="15" font-weight="bold" lengthAdjust="spacing" textLength="212" x="966.5" y="322.8184">RegistrationRequestReceiver</text></g><!--entity ServiceRegistry_API--><g id="elem_ServiceRegistry_API"><ellipse cx="1350" cy="170" fill="#F1F1F1" rx="8" ry="8" style="stroke:#181818;stroke-width:0.5;"/><text fill="#000000" font-family="sans-serif" font-size="14" lengthAdjust="spacing" textLength="128" x="1286" y="201.5332">ServiceRegistry_API</text></g><text fill="#000000" font-family="sans-serif" font-size="14" lengthAdjust="spacing" textLength="4" x="1348" y="257.4238">&#160;</text><rect fill="#F1F1F1" height="12" style="stroke:#181818;stroke-width:1.5;" width="12" x="1344" y="272.5"/><text fill="#000000" font-family="sans-serif" font-size="14" lengthAdjust="spacing" textLength="4" x="1416" y="365.9238">&#160;</text><rect fill="#F1F1F1" height="12" style="stroke:#181818;stroke-width:1.5;" width="12" x="1412" y="381"/><!--entity DRR_API--><g id="elem_DRR_API"><ellipse cx="742" cy="765.5" fill="#F1F1F1" rx="8" ry="8" style="stroke:#181818;stroke-width:0.5;"/><text fill="#000000" font-family="sans-serif" font-size="14" lengthAdjust="spacing" textLength="59" x="712.5" y="797.0332">DRR_API</text></g><text fill="#000000" font-family="sans-serif" font-size="14" lengthAdjust="spacing" textLength="4" x="959" y="659.9238">&#160;</text><rect fill="#F1F1F1" height="12" style="stroke:#181818;stroke-width:1.5;" width="12" x="955" y="675"/><!--entity DSC_API--><g id="elem_DSC_API"><ellipse cx="1136" cy="971" fill="#F1F1F1" rx="8" ry="8" style="stroke:#181818;stroke-width:0.5;"/><text fill="#000000" font-family="sans-serif" font-size="14" lengthAdjust="spacing" textLength="58" x="1107" y="1002.5332">DSC_API</text></g><text fill="#000000" font-family="sans-serif" font-size="14" lengthAdjust="spacing" textLength="4" x="959" y="744.4238">&#160;</text><rect fill="#F1F1F1" height="12" style="stroke:#181818;stroke-width:1.5;" width="12" x="955" y="759.5"/><text fill="#000000" font-family="sans-serif" font-size="14" lengthAdjust="spacing" textLength="4" x="1091" y="744.4238">&#160;</text><rect fill="#F1F1F1" height="12" style="stroke:#181818;stroke-width:1.5;" width="12" x="1087" y="759.5"/><text fill="#000000" font-family="sans-serif" font-size="14" lengthAdjust="spacing" textLength="4" x="917" y="841.4238">&#160;</text><rect fill="#F1F1F1" height="12" style="stroke:#181818;stroke-width:1.5;" width="12" x="913" y="856.5"/><text fill="#000000" font-family="sans-serif" font-size="14" lengthAdjust="spacing" textLength="4" x="964" y="841.4238">&#160;</text><rect fill="#F1F1F1" height="12" style="stroke:#181818;stroke-width:1.5;" width="12" x="960" y="856.5"/><text fill="#000000" font-family="sans-serif" font-size="14" lengthAdjust="spacing" textLength="4" x="1304" y="841.4238">&#160;</text><rect fill="#F1F1F1" height="12" style="stroke:#181818;stroke-width:1.5;" width="12" x="1300" y="856.5"/><text fill="#000000" font-family="sans-serif" font-size="14" lengthAdjust="spacing" textLength="4" x="1351" y="841.4238">&#160;</text><rect fill="#F1F1F1" height="12" style="stroke:#181818;stroke-width:1.5;" width="12" x="1347" y="856.5"/><!--entity DR_API--><g id="elem_DR_API"><ellipse cx="461" cy="971" fill="#F1F1F1" rx="8" ry="8" style="stroke:#181818;stroke-width:0.5;"/><text fill="#000000" font-family="sans-serif" font-size="14" lengthAdjust="spacing" textLength="49" x="436.5" y="1002.5332">DR_API</text></g><text fill="#000000" font-family="sans-serif" font-size="14" lengthAdjust="spacing" textLength="4" x="732" y="841.4238">&#160;</text><rect fill="#F1F1F1" height="12" style="stroke:#181818;stroke-width:1.5;" width="12" x="728" y="856.5"/><text fill="#000000" font-family="sans-serif" font-size="14" lengthAdjust="spacing" textLength="4" x="701" y="1045.9238">&#160;</text><rect fill="#F1F1F1" height="12" style="stroke:#181818;stroke-width:1.5;" width="12" x="697" y="1061"/><text fill="#000000" font-family="sans-serif" font-size="14" lengthAdjust="spacing" textLength="4" x="636" y="1045.9238">&#160;</text><rect fill="#F1F1F1" height="12" style="stroke:#181818;stroke-width:1.5;" width="12" x="632" y="1061"/><text fill="#000000" font-family="sans-serif" font-size="14" lengthAdjust="spacing" textLength="4" x="455" y="1045.9238">&#160;</text><rect fill="#F1F1F1" height="12" style="stroke:#181818;stroke-width:1.5;" width="12" x="451" y="1061"/><!--entity RRR_API--><g id="elem_RRR_API"><ellipse cx="416" cy="170" fill="#F1F1F1" rx="8" ry="8" style="stroke:#181818;stroke-width:0.5;"/><text fill="#000000" font-family="sans-serif" font-size="14" lengthAdjust="spacing" textLength="59" x="386.5" y="201.5332">RRR_API</text></g><text fill="#000000" font-family="sans-serif" font-size="14" lengthAdjust="spacing" textLength="4" x="623" y="52.9238">&#160;</text><rect fill="#F1F1F1" height="12" style="stroke:#181818;stroke-width:1.5;" width="12" x="619" y="68"/><!--entity RR_API--><g id="elem_RR_API"><ellipse cx="139" cy="387" fill="#F1F1F1" rx="8" ry="8" style="stroke:#181818;stroke-width:0.5;"/><text fill="#000000" font-family="sans-serif" font-size="14" lengthAdjust="spacing" textLength="49" x="114.5" y="418.5332">RR_API</text></g><text fill="#000000" font-family="sans-serif" font-size="14" lengthAdjust="spacing" textLength="4" x="403" y="257.4238">&#160;</text><rect fill="#F1F1F1" height="12" style="stroke:#181818;stroke-width:1.5;" width="12" x="399" y="272.5"/><text fill="#000000" font-family="sans-serif" font-size="14" lengthAdjust="spacing" textLength="4" x="302" y="474.4238">&#160;</text><rect fill="#F1F1F1" height="12" style="stroke:#181818;stroke-width:1.5;" width="12" x="298" y="489.5"/><text fill="#000000" font-family="sans-serif" font-size="14" lengthAdjust="spacing" textLength="4" x="126" y="474.4238">&#160;</text><rect fill="#F1F1F1" height="12" style="stroke:#181818;stroke-width:1.5;" width="12" x="122" y="489.5"/><!--entity RSC_API--><g id="elem_RSC_API"><ellipse cx="799" cy="387" fill="#F1F1F1" rx="8" ry="8" style="stroke:#181818;stroke-width:0.5;"/><text fill="#000000" font-family="sans-serif" font-size="14" lengthAdjust="spacing" textLength="58" x="770" y="418.5332">RSC_API</text></g><text fill="#000000" font-family="sans-serif" font-size="14" lengthAdjust="spacing" textLength="4" x="623" y="148.9238">&#160;</text><rect fill="#F1F1F1" height="12" style="stroke:#181818;stroke-width:1.5;" width="12" x="619" y="164"/><text fill="#000000" font-family="sans-serif" font-size="14" lengthAdjust="spacing" textLength="4" x="754" y="148.9238">&#160;</text><rect fill="#F1F1F1" height="12" style="stroke:#181818;stroke-width:1.5;" width="12" x="750" y="164"/><text fill="#000000" font-family="sans-serif" font-size="14" lengthAdjust="spacing" textLength="4" x="581" y="257.4238">&#160;</text><rect fill="#F1F1F1" height="12" style="stroke:#181818;stroke-width:1.5;" width="12" x="577" y="272.5"/><text fill="#000000" font-family="sans-serif" font-size="14" lengthAdjust="spacing" textLength="4" x="628" y="257.4238">&#160;</text><rect fill="#F1F1F1" height="12" style="stroke:#181818;stroke-width:1.5;" width="12" x="624" y="272.5"/><text fill="#000000" font-family="sans-serif" font-size="14" lengthAdjust="spacing" textLength="4" x="966" y="257.4238">&#160;</text><rect fill="#F1F1F1" height="12" style="stroke:#181818;stroke-width:1.5;" width="12" x="962" y="272.5"/><text fill="#000000" font-family="sans-serif" font-size="14" lengthAdjust="spacing" textLength="4" x="1013" y="257.4238">&#160;</text><rect fill="#F1F1F1" height="12" style="stroke:#181818;stroke-width:1.5;" width="12" x="1009" y="272.5"/><!--link ServiceRegistryPort to ArrowheadPort--><g id="link_ServiceRegistryPort_ArrowheadPort"><path d="M1417.41,380.93 C1416.38,373.52 1413.79,359.48 1408,349 C1392.79,321.47 1378.59,322.37 1360,297 C1357.1,293.05 1354.39,288.18 1352.52,284.59 " fill="none" id="ServiceRegistryPort-ArrowheadPort" style="stroke:#0000FF;stroke-width:1.0;"/></g><!--link VehiclePort to ArrowheadCommunicaterDiscoverPort--><g id="link_VehiclePort_ArrowheadCommunicaterDiscoverPort"><path d="M961,687.41 C961,702.47 961,744.7 961,759.39 " fill="none" id="VehiclePort-ArrowheadCommunicaterDiscoverPort" style="stroke:#0000FF;stroke-width:1.0;"/></g><!--link DiscoveryServicesClientPort to ArrowheadCommunicaterDiscoverPort--><g id="link_DiscoveryServicesClientPort_ArrowheadCommunicaterDiscoverPort"><path d="M921.27,856.37 C928.58,839.84 951.45,788.1 958.74,771.61 " fill="none" id="DiscoveryServicesClientPort-ArrowheadCommunicaterDiscoverPort" style="stroke:#0000FF;stroke-width:1.0;"/></g><!--link DiscoveryRequestReceiverPort2 to DSC_API--><g id="link_DiscoveryRequestReceiverPort2_DSC_API"><path d="M1346.82,868.8 C1342.34,872.49 1336.02,877.39 1330,881 C1262.63,921.41 1183.1672,952.4292 1154.6172,963.0992 " fill="none" id="DiscoveryRequestReceiverPort2-to-DSC_API" style="stroke:#0000FF;stroke-width:1.0;"/><path d="M1151.0941,973.4444 A9,9 0 0 0 1145.1727 957.6003" fill="none" style="stroke:#0000FF;stroke-width:1.5;"/></g><!--link DiscoveryServicesClientPort2 to DSC_API--><g id="link_DiscoveryServicesClientPort2_DSC_API"><path d="M968.01,868.58 C969.7,872.36 972.42,877.46 976,881 C1023.47,927.93 1100.73,957.75 1126.96,966.96 " fill="none" id="DiscoveryServicesClientPort2-DSC_API" style="stroke:#0000FF;stroke-width:1.0;"/></g><!--link VehicleServicePort to DiscoveryRequesterPort--><g id="link_VehicleServicePort_DiscoveryRequesterPort"><path d="M734.72,868.55 C737.39,888.49 745.7,963.48 729,1021.5 C724.5,1037.15 713.26,1053.04 707.13,1060.92 " fill="none" id="VehicleServicePort-DiscoveryRequesterPort" style="stroke:#0000FF;stroke-width:1.0;"/></g><!--reverse link DRR_API to VehicleServicePort--><g id="link_DRR_API_VehicleServicePort"><path d="M740.4817,784.5648 C738.8817,803.5848 735.75,840.73 734.43,856.37 " fill="none" id="DRR_API-backto-VehicleServicePort" style="stroke:#0000FF;stroke-width:1.0;"/><path d="M732.6345,776.9584 A9,9 0 0 0 749.4894 778.3763" fill="none" style="stroke:#0000FF;stroke-width:1.5;"/></g><!--link ArrowheadCommunicaterDiscoverPort2 to DiscoveryRequestReceiverPort--><g id="link_ArrowheadCommunicaterDiscoverPort2_DiscoveryRequestReceiverPort"><path d="M1099.26,766.8 C1126.49,768.46 1235.99,778.56 1296,836 C1301.77,841.52 1304.27,850.78 1305.31,856.49 " fill="none" id="ArrowheadCommunicaterDiscoverPort2-DiscoveryRequestReceiverPort" style="stroke:#0000FF;stroke-width:1.0;"/></g><!--link ArrowheadCommunicaterDiscoverPort2 to DRR_API--><g id="link_ArrowheadCommunicaterDiscoverPort2_DRR_API"><path d="M1086.96,761.97 C1069.22,751.83 1015.47,722.76 966.5,713 C881.94,696.15 848.61,672.48 772.5,713 C755.94,721.82 747.66,743.75 744.16,756.3 " fill="none" id="ArrowheadCommunicaterDiscoverPort2-DRR_API" style="stroke:#0000FF;stroke-width:1.0;"/></g><!--link DR_API to DiscoveryRequesterPort2--><g id="link_DR_API_DiscoveryRequesterPort2"><path d="M468.57,980.02 C479.04,990.71 498.92,1009.68 519,1021.5 C559.1,1045.11 613.94,1060.03 631.98,1064.55 " fill="none" id="DR_API-DiscoveryRequesterPort2" style="stroke:#0000FF;stroke-width:1.0;"/></g><!--reverse link DR_API to VehicleServiceNodePort--><g id="link_DR_API_VehicleServiceNodePort"><path d="M460.2355,990.001 C459.4355,1008.831 457.87,1045.45 457.22,1060.92 " fill="none" id="DR_API-backto-VehicleServiceNodePort" style="stroke:#0000FF;stroke-width:1.0;"/><path d="M452.0797,982.7264 A9,9 0 0 0 468.979 983.4444" fill="none" style="stroke:#0000FF;stroke-width:1.5;"/></g><!--link RSUServicePort to RegistrationRequesterPort--><g id="link_RSUServicePort_RegistrationRequesterPort"><path d="M406.47,284.62 C412.16,305.47 430.83,385.27 400,437.5 C379.31,472.55 327.96,488.45 310.18,493.04 " fill="none" id="RSUServicePort-RegistrationRequesterPort" style="stroke:#0000FF;stroke-width:1.0;"/></g><!--link RR_API to RegistrationRequesterPort--><g id="link_RR_API_RegistrationRequesterPort"><path d="M148.06,394.6 C161.44,404.27 187.33,422.75 210,437.5 C242.63,458.74 282.95,482.32 297.98,491.03 " fill="none" id="RR_API-RegistrationRequesterPort" style="stroke:#0000FF;stroke-width:1.0;"/></g><!--reverse link RR_API to RSUServiceNodePort--><g id="link_RR_API_RSUServiceNodePort"><path d="M137.1422,405.947 C135.0022,426.657 130.36,471.63 128.56,489.09 " fill="none" id="RR_API-backto-RSUServiceNodePort" style="stroke:#0000FF;stroke-width:1.0;"/><path d="M129.4412,398.1926 A9,9 0 0 0 146.2661 399.9312" fill="none" style="stroke:#0000FF;stroke-width:1.5;"/></g><!--link ArrowheadCommunicaterRegisterPort to RSUPort--><g id="link_ArrowheadCommunicaterRegisterPort_RSUPort"><path d="M625,163.92 C625,147.56 625,96.38 625,80.05 " fill="none" id="ArrowheadCommunicaterRegisterPort-RSUPort" style="stroke:#0000FF;stroke-width:1.0;"/></g><!--link RegisterServicesClientPort to ArrowheadCommunicaterRegisterPort--><g id="link_RegisterServicesClientPort_ArrowheadCommunicaterRegisterPort"><path d="M585.28,272.28 C590.69,259.85 604.59,227.5 615,200 C618.09,191.83 621.33,182.23 623.25,176.38 " fill="none" id="RegisterServicesClientPort-ArrowheadCommunicaterRegisterPort" style="stroke:#0000FF;stroke-width:1.0;"/></g><!--link ArrowheadCommunicaterRegisterPort2 to RegistrationRequestReceiverPort--><g id="link_ArrowheadCommunicaterRegisterPort2_RegistrationRequestReceiverPort"><path d="M756.36,176.3 C757.09,182.8 759.31,193.75 766,200 C830.59,260.37 892.17,192.99 958,252 C963.95,257.33 966.4,266.65 967.38,272.42 " fill="none" id="ArrowheadCommunicaterRegisterPort2-RegistrationRequestReceiverPort" style="stroke:#0000FF;stroke-width:1.0;"/></g><!--link RegistrationRequestReceiverPort2 to RSC_API--><g id="link_RegistrationRequestReceiverPort2_RSC_API"><path d="M1008.91,284.45 C1004.19,288.17 997.4,293.23 991,297 C923.88,336.51 845.5745,368.0069 817.4445,378.9069 " fill="none" id="RegistrationRequestReceiverPort2-to-RSC_API" style="stroke:#0000FF;stroke-width:1.0;"/><path d="M814.0459,389.2937 A9,9 0 0 0 807.9346 373.5219" fill="none" style="stroke:#0000FF;stroke-width:1.5;"/></g><!--link RegisterServicesClientPort2 to RSC_API--><g id="link_RegisterServicesClientPort2_RSC_API"><path d="M632.01,284.58 C633.7,288.36 636.42,293.45 640,297 C686.96,343.54 763.22,373.41 789.64,382.81 " fill="none" id="RegisterServicesClientPort2-RSC_API" style="stroke:#0000FF;stroke-width:1.0;"/></g><!--link ArrowheadCommunicaterRegisterPort2 to RRR_API--><g id="link_ArrowheadCommunicaterRegisterPort2_RRR_API"><path d="M749.58,165.63 C731.72,153.78 679.49,121.11 630.5,110 C550.75,91.92 517.41,69.27 446.5,110 C427.86,120.71 420.26,147.02 417.46,160.97 " fill="none" id="ArrowheadCommunicaterRegisterPort2-RRR_API" style="stroke:#0000FF;stroke-width:1.0;"/></g><!--reverse link RRR_API to RSUServicePort--><g id="link_RRR_API_RSUServicePort"><path d="M414.1422,188.947 C412.0022,209.657 407.36,254.63 405.56,272.09 " fill="none" id="RRR_API-backto-RSUServicePort" style="stroke:#0000FF;stroke-width:1.0;"/><path d="M406.4412,181.1926 A9,9 0 0 0 423.2661 182.9312" fill="none" style="stroke:#0000FF;stroke-width:1.5;"/></g><!--reverse link ServiceRegistry_API to VehiclePort--><g id="link_ServiceRegistry_API_VehiclePort"><path d="M1369.3582,172.3875 C1401.6082,174.9675 1498.33,187.46 1543,252 C1576.91,301.01 1548,326.4 1548,386 C1548,386 1548,386 1548,496.5 C1548,521.15 1542.34,530.72 1523,546 C1429.14,620.15 1022.38,672.44 967.2,679.25 " fill="none" id="ServiceRegistry_API-backto-VehiclePort" style="stroke:#0000FF;stroke-width:1.0;"/><path d="M1361.784,180.2658 A9,9 0 0 0 1363.1328 163.4052" fill="none" style="stroke:#0000FF;stroke-width:1.5;"/></g><!--link RSUPort to ServiceRegistry_API--><g id="link_RSUPort_ServiceRegistry_API"><path d="M631.18,75.42 C677.72,78.63 977.95,100.25 1219,140 C1265.2,147.62 1309.9246,158.6614 1331.1746,164.1214 " fill="none" id="RSUPort-to-ServiceRegistry_API" style="stroke:#0000FF;stroke-width:1.0;"/><path d="M1339.9833,157.6528 A9,9 0 0 0 1335.774 174.0351" fill="none" style="stroke:#0000FF;stroke-width:1.5;"/></g><!--link ServiceRegistry_API to ArrowheadPort--><g id="link_ServiceRegistry_API_ArrowheadPort"><path d="M1350,179 C1350,199.71 1350,254.63 1350,272.09 " fill="none" id="ServiceRegistry_API-ArrowheadPort" style="stroke:#0000FF;stroke-width:1.0;"/></g><!--SRC=[dLTDRvmm4BtpAwpqqFJW9aLjbLPH9B8VQYzfv4rxhIYukrO0RurfbAxslzU05sniWmbxsVM-D-EPUMCFhtUSxylF5nVxB2vubMTl4vfV95bSbZ0byPR5UH2KZwJOn-8h47_kQO4B3Wu106jQy0tvXy6x3u7uUHidZrj6go9Tq8oow-keuZIFEKutpoN7-SqDUBM-4f-r3Vm3xqYIuGQqNaVhIni8RRwF0oB6wDCEnwa2inhwjWd17KqRVxUNY_VBbO3Pa5yU7kx11hE_cBKsbz7j9oTmaH6H7GNeTDwRNArMLr7a1FOc9T26hAsHH4QpkbnzRAEfAtGNvnX4ZCHPJQGinQmXWL-Pi2BMcfoTbYeS78EWh_EWXi1IrKEz8w1eeoi2q0eYSVMpfqo1tTU_uXASWRCUqfkJiI6y9ILdps1GaqD7wImF65RxzMF3GQXlh2CSM-vn6AqKBb0ah4IQ45R_kKJePtJ_TP01IPY8lzlEWkPvLP1499yjIPbG4J_Gj7pGupivtonqvsO9RARLRSrdXjQCJpk4rHwgYHb4r6NbH7gMHIpRFW63HjJLqMtVmNQ5xCEp1rm_OyvKkRboeXayJYO4uJyLBZd22IQAGkpzOaOseFkdn48CNSonaCODmfG-5V2y4xN6RDTQ3OsLAb2wsioaL9_arPtbrMN8s8_QvDAQyono5x8lOIzglr9erHiaVO8Kkbd6WYL221rslSYYVEVcaUbzXeGszwgAp0vjVG6OuT_SeoF3MO9sAGi0vU9sjAMfnR66dDDMNQwQPZ75sow1Dn0wDX5CNerYN0DoQ3ElH6Iz4WLuuZeKY9cTYHoTsLlow4ev9CISq69sOrh9JgVrCzYRA8BJnWkrs7lmaA6UT9S41xxSKJUQivG5zPepFHfwynYJsYtuZKbetfXqCZr_J5APCyOapM6ReR41wGH_qNna9q_E0cwQUpeQSUKQZjHCU8hTbA9xFlBkOUyPQOBhDoPv2IDq71MZrz_C9hOFPCWoa25r81iHnqpr2wUCR7SSTfV8sD7PJ1F6RIF2r6-jzX0Ol1Bs7FLT3SBQA1HcRN2v1uayTvlKNu2R75cnn-0_]--></g></svg>