<?xml version="1.0" encoding="us-ascii" standalone="no"?><svg xmlns="http://www.w3.org/2000/svg" xmlns:xlink="http://www.w3.org/1999/xlink" contentStyleType="text/css" height="351px" preserveAspectRatio="none" style="width:890px;height:351px;background:#FFFFFF;" version="1.1" viewBox="0 0 890 351" width="890px" zoomAndPan="magnify"><defs/><g><rect fill="#F8F8FF" height="339.0313" style="stroke:#181818;stroke-width:0.5;" width="873.5" x="11" y="6"/><text fill="#000000" font-family="sans-serif" font-size="13" font-weight="bold" lengthAdjust="spacing" textLength="115" x="390.25" y="19.4951">AutomatedSystem</text><rect fill="#20B2AA" height="317.6797" style="stroke:#181818;stroke-width:0.5;" width="427" x="11" y="27.3516"/><text fill="#000000" font-family="sans-serif" font-size="13" font-weight="bold" lengthAdjust="spacing" textLength="27" x="211" y="40.8467">RSU</text><rect fill="#FFFFE0" height="317.6797" style="stroke:#181818;stroke-width:0.5;" width="121" x="763.5" y="27.3516"/><text fill="#000000" font-family="sans-serif" font-size="13" font-weight="bold" lengthAdjust="spacing" textLength="70" x="789" y="40.8467">Arrowhead</text><line style="stroke:#000000;stroke-width:0.5;stroke-dasharray:5.0,5.0;" x1="76" x2="76" y1="80.3125" y2="306.4219"/><rect fill="#000000" height="218.1094" style="stroke:#000000;stroke-width:1.0;" width="10" x="71" y="88.3125"/><line style="stroke:#000000;stroke-width:0.5;stroke-dasharray:5.0,5.0;" x1="321" x2="321" y1="80.3125" y2="306.4219"/><rect fill="#000000" height="134.4063" style="stroke:#000000;stroke-width:1.0;" width="10" x="316" y="110.6641"/><line style="stroke:#000000;stroke-width:0.5;stroke-dasharray:5.0,5.0;" x1="824" x2="824" y1="80.3125" y2="306.4219"/><rect fill="#000000" height="30.3516" style="stroke:#000000;stroke-width:1.0;" width="10" x="819" y="141.0156"/><rect fill="#000000" height="31.6094" rx="2.5" ry="2.5" style="stroke:#000000;stroke-width:0.5;" width="122" x="15" y="47.7031"/><text fill="#FFFFFF" font-family="sans-serif" font-size="14" lengthAdjust="spacing" textLength="108" x="22" y="69.2363">RSUServiceNode</text><rect fill="#000000" height="31.6094" rx="2.5" ry="2.5" style="stroke:#000000;stroke-width:0.5;" width="226" x="208" y="47.7031"/><text fill="#FFFFFF" font-family="sans-serif" font-size="14" lengthAdjust="spacing" textLength="212" x="215" y="69.2363">ArrowheadCommunicaterRegister</text><rect fill="#000000" height="31.6094" rx="2.5" ry="2.5" style="stroke:#000000;stroke-width:0.5;" width="113" x="767.5" y="47.7031"/><text fill="#FFFFFF" font-family="sans-serif" font-size="14" lengthAdjust="spacing" textLength="99" x="774.5" y="69.2363">ServiceRegistry</text><rect fill="#000000" height="31.6094" rx="2.5" ry="2.5" style="stroke:#000000;stroke-width:0.5;" width="122" x="15" y="306.4219"/><text fill="#FFFFFF" font-family="sans-serif" font-size="14" lengthAdjust="spacing" textLength="108" x="22" y="327.9551">RSUServiceNode</text><rect fill="#000000" height="31.6094" rx="2.5" ry="2.5" style="stroke:#000000;stroke-width:0.5;" width="226" x="208" y="306.4219"/><text fill="#FFFFFF" font-family="sans-serif" font-size="14" lengthAdjust="spacing" textLength="212" x="215" y="327.9551">ArrowheadCommunicaterRegister</text><rect fill="#000000" height="31.6094" rx="2.5" ry="2.5" style="stroke:#000000;stroke-width:0.5;" width="113" x="767.5" y="306.4219"/><text fill="#FFFFFF" font-family="sans-serif" font-size="14" lengthAdjust="spacing" textLength="99" x="774.5" y="327.9551">ServiceRegistry</text><polygon fill="#000000" points="304,106.6641,314,110.6641,304,114.6641,308,110.6641" style="stroke:#000000;stroke-width:1.0;"/><line style="stroke:#000000;stroke-width:1.0;" x1="81" x2="310" y1="110.6641" y2="110.6641"/><text fill="#000000" font-family="sans-serif" font-size="13" font-weight="bold" lengthAdjust="spacing" textLength="216" x="88" y="105.8076">sends request to register a service</text><polygon fill="#000000" points="807,137.0156,817,141.0156,807,145.0156,811,141.0156" style="stroke:#000000;stroke-width:1.0;"/><line style="stroke:#000000;stroke-width:1.0;" x1="326" x2="813" y1="141.0156" y2="141.0156"/><text fill="#000000" font-family="sans-serif" font-size="13" font-weight="bold" lengthAdjust="spacing" textLength="474" x="333" y="136.1592">sends POST request to register the RSU service {Body: ServiceInformation}</text><polygon fill="#000000" points="337,167.3672,327,171.3672,337,175.3672,333,171.3672" style="stroke:#000000;stroke-width:1.0;"/><line style="stroke:#000000;stroke-width:1.0;stroke-dasharray:2.0,2.0;" x1="331" x2="818" y1="171.3672" y2="171.3672"/><text fill="#000000" font-family="sans-serif" font-size="13" font-weight="bold" lengthAdjust="spacing" textLength="433" x="343" y="166.5107">sends 201 Created with RSU Service created {Body: ServiceCreated}</text><line style="stroke:#000000;stroke-width:1.0;" x1="326" x2="368" y1="201.7188" y2="201.7188"/><line style="stroke:#000000;stroke-width:1.0;" x1="368" x2="368" y1="201.7188" y2="214.7188"/><line style="stroke:#000000;stroke-width:1.0;" x1="327" x2="368" y1="214.7188" y2="214.7188"/><polygon fill="#000000" points="337,210.7188,327,214.7188,337,218.7188,333,214.7188" style="stroke:#000000;stroke-width:1.0;"/><text fill="#000000" font-family="sans-serif" font-size="13" font-weight="bold" lengthAdjust="spacing" textLength="104" x="333" y="196.8623">filtersServiceID()</text><polygon fill="#000000" points="92,241.0703,82,245.0703,92,249.0703,88,245.0703" style="stroke:#000000;stroke-width:1.0;"/><line style="stroke:#000000;stroke-width:1.0;stroke-dasharray:2.0,2.0;" x1="86" x2="315" y1="245.0703" y2="245.0703"/><text fill="#000000" font-family="sans-serif" font-size="13" font-weight="bold" lengthAdjust="spacing" textLength="126" x="98" y="240.2139">sends the service ID</text><line style="stroke:#000000;stroke-width:1.0;" x1="81" x2="123" y1="275.4219" y2="275.4219"/><line style="stroke:#000000;stroke-width:1.0;" x1="123" x2="123" y1="275.4219" y2="288.4219"/><line style="stroke:#000000;stroke-width:1.0;" x1="82" x2="123" y1="288.4219" y2="288.4219"/><polygon fill="#000000" points="92,284.4219,82,288.4219,92,292.4219,88,288.4219" style="stroke:#000000;stroke-width:1.0;"/><text fill="#000000" font-family="sans-serif" font-size="13" font-weight="bold" lengthAdjust="spacing" textLength="137" x="88" y="270.5654">starts the RSU service</text><!--SRC=[ZL9DJuD04BtlhnZhHGycwibuCB6Q6fD6JT4OZoixBPl2RXq6QpNzxmuKMg2r20aVysRVU_DnC2CzIJGm-czWob2fT6hTJ9DEG9viGplJZk57WLnz7Kudv3DdRdpi2Vgn15Q89uFKZWwyurNiDRACQbcdJ_4ZGnTYoNrDvETjWg4Tuz0wt4s_Hl-qLMMqZQm5So3WHOnIGMnoW-_-2thN6Vj4CvfWaJ8cFJWSNCWzKCN98cKKl4XuQ2SH1wZl2D4LOBrhaXCWVTeG7xp1BRXm4A4MsqcIEHkA8ermOaMJYcnq9bUhoQxFLE9l6CT-liLTwgxOQD5aMt_eaEsdgBQTDd_Xv6g_rqiPfZCfK3xIb86zVAuWq88LJ1kn_NMhlN3kfLLRfVxq63pljC1HKM1b17xwtiYfakRUZJt9iArtout7TlzKAm0d_stA-UaPt13csmHpor5XfMI3i0IQbihqfJBujw7EDdMu6zjOtcdLXTkZuqvE8MrkHbLZtk6gk_UtTTiTizvUj2q1bgrEspDKlm00]--></g></svg>