<?xml version="1.0" encoding="us-ascii" standalone="no"?><svg xmlns="http://www.w3.org/2000/svg" xmlns:xlink="http://www.w3.org/1999/xlink" contentStyleType="text/css" height="526px" preserveAspectRatio="none" style="width:1497px;height:526px;background:#FFFFFF;" version="1.1" viewBox="0 0 1497 526" width="1497px" zoomAndPan="magnify"><defs/><g><rect fill="#F8F8FF" height="514.3984" style="stroke:#181818;stroke-width:0.5;" width="1480" x="11" y="6"/><text fill="#000000" font-family="sans-serif" font-size="13" font-weight="bold" lengthAdjust="spacing" textLength="115" x="693.5" y="19.4951">AutomatedSystem</text><rect fill="#20B2AA" height="493.0469" style="stroke:#181818;stroke-width:0.5;" width="1071.5" x="11" y="27.3516"/><text fill="#000000" font-family="sans-serif" font-size="13" font-weight="bold" lengthAdjust="spacing" textLength="48" x="522.75" y="40.8467">Vehicle</text><rect fill="#ADD8E6" height="471.6953" style="stroke:#181818;stroke-width:0.5;" width="462.5" x="11" y="48.7031"/><text fill="#000000" font-family="sans-serif" font-size="13" font-weight="bold" lengthAdjust="spacing" textLength="129" x="177.75" y="62.1982">VehicleServiceNode</text><rect fill="#90EE90" height="471.6953" style="stroke:#181818;stroke-width:0.5;" width="501.5" x="581" y="48.7031"/><text fill="#000000" font-family="sans-serif" font-size="13" font-weight="bold" lengthAdjust="spacing" textLength="257" x="703.25" y="62.1982">ArrowheadCommunicaterDiscoveryNode</text><rect fill="#FFFFE0" height="493.0469" style="stroke:#181818;stroke-width:0.5;" width="121" x="1370" y="27.3516"/><text fill="#000000" font-family="sans-serif" font-size="13" font-weight="bold" lengthAdjust="spacing" textLength="70" x="1395.5" y="40.8467">Arrowhead</text><line style="stroke:#000000;stroke-width:0.5;stroke-dasharray:5.0,5.0;" x1="68.5" x2="68.5" y1="101.6641" y2="481.7891"/><rect fill="#000000" height="372.125" style="stroke:#000000;stroke-width:1.0;" width="10" x="63.5" y="109.6641"/><line style="stroke:#000000;stroke-width:0.5;stroke-dasharray:5.0,5.0;" x1="398.5" x2="398.5" y1="101.6641" y2="481.7891"/><rect fill="#000000" height="288.4219" style="stroke:#000000;stroke-width:1.0;" width="10" x="393.5" y="132.0156"/><line style="stroke:#000000;stroke-width:0.5;stroke-dasharray:5.0,5.0;" x1="677.5" x2="677.5" y1="101.6641" y2="481.7891"/><rect fill="#000000" height="227.7188" style="stroke:#000000;stroke-width:1.0;" width="10" x="672.5" y="162.3672"/><line style="stroke:#000000;stroke-width:0.5;stroke-dasharray:5.0,5.0;" x1="995.5" x2="995.5" y1="170.3672" y2="481.7891"/><rect fill="#000000" height="134.4063" style="stroke:#000000;stroke-width:1.0;" width="10" x="990.5" y="225.3281"/><line style="stroke:#000000;stroke-width:0.5;stroke-dasharray:5.0,5.0;" x1="1430.5" x2="1430.5" y1="101.6641" y2="481.7891"/><rect fill="#000000" height="30.3516" style="stroke:#000000;stroke-width:1.0;" width="10" x="1425.5" y="255.6797"/><rect fill="#000000" height="31.6094" rx="2.5" ry="2.5" style="stroke:#000000;stroke-width:0.5;" width="107" x="15" y="69.0547"/><text fill="#FFFFFF" font-family="sans-serif" font-size="14" lengthAdjust="spacing" textLength="93" x="22" y="90.5879">VehicleService</text><rect fill="#000000" height="31.6094" rx="2.5" ry="2.5" style="stroke:#000000;stroke-width:0.5;" width="142" x="327.5" y="69.0547"/><text fill="#FFFFFF" font-family="sans-serif" font-size="14" lengthAdjust="spacing" textLength="128" x="334.5" y="90.5879">DiscoveryRequester</text><rect fill="#000000" height="31.6094" rx="2.5" ry="2.5" style="stroke:#000000;stroke-width:0.5;" width="185" x="585" y="69.0547"/><text fill="#FFFFFF" font-family="sans-serif" font-size="14" lengthAdjust="spacing" textLength="171" x="592" y="90.5879">DiscoveryRequestReceiver</text><rect fill="#000000" height="31.6094" rx="2.5" ry="2.5" style="stroke:#000000;stroke-width:0.5;" width="113" x="1374" y="69.0547"/><text fill="#FFFFFF" font-family="sans-serif" font-size="14" lengthAdjust="spacing" textLength="99" x="1381" y="90.5879">ServiceRegistry</text><rect fill="#000000" height="31.6094" rx="2.5" ry="2.5" style="stroke:#000000;stroke-width:0.5;" width="107" x="15" y="481.7891"/><text fill="#FFFFFF" font-family="sans-serif" font-size="14" lengthAdjust="spacing" textLength="93" x="22" y="503.3223">VehicleService</text><rect fill="#000000" height="31.6094" rx="2.5" ry="2.5" style="stroke:#000000;stroke-width:0.5;" width="142" x="327.5" y="481.7891"/><text fill="#FFFFFF" font-family="sans-serif" font-size="14" lengthAdjust="spacing" textLength="128" x="334.5" y="503.3223">DiscoveryRequester</text><rect fill="#000000" height="31.6094" rx="2.5" ry="2.5" style="stroke:#000000;stroke-width:0.5;" width="185" x="585" y="481.7891"/><text fill="#FFFFFF" font-family="sans-serif" font-size="14" lengthAdjust="spacing" textLength="171" x="592" y="503.3223">DiscoveryRequestReceiver</text><rect fill="#000000" height="31.6094" rx="2.5" ry="2.5" style="stroke:#000000;stroke-width:0.5;" width="166" x="912.5" y="481.7891"/><text fill="#FFFFFF" font-family="sans-serif" font-size="14" lengthAdjust="spacing" textLength="152" x="919.5" y="503.3223">DiscoveryServicesClient</text><rect fill="#000000" height="31.6094" rx="2.5" ry="2.5" style="stroke:#000000;stroke-width:0.5;" width="113" x="1374" y="481.7891"/><text fill="#FFFFFF" font-family="sans-serif" font-size="14" lengthAdjust="spacing" textLength="99" x="1381" y="503.3223">ServiceRegistry</text><polygon fill="#000000" points="381.5,128.0156,391.5,132.0156,381.5,136.0156,385.5,132.0156" style="stroke:#000000;stroke-width:1.0;"/><line style="stroke:#000000;stroke-width:1.0;" x1="73.5" x2="387.5" y1="132.0156" y2="132.0156"/><text fill="#000000" font-family="sans-serif" font-size="13" font-weight="bold" lengthAdjust="spacing" textLength="301" x="80.5" y="127.1592">requestForNextRSUsServices(ServicesLocation)</text><polygon fill="#000000" points="660.5,158.3672,670.5,162.3672,660.5,166.3672,664.5,162.3672" style="stroke:#000000;stroke-width:1.0;"/><line style="stroke:#000000;stroke-width:1.0;" x1="403.5" x2="666.5" y1="162.3672" y2="162.3672"/><text fill="#000000" font-family="sans-serif" font-size="13" font-weight="bold" lengthAdjust="spacing" textLength="250" x="410.5" y="157.5107">sends request {Body: ServicesLocation}</text><rect fill="#000000" height="31.6094" rx="2.5" ry="2.5" style="stroke:#000000;stroke-width:0.5;" width="166" x="912.5" y="170.3672"/><text fill="#FFFFFF" font-family="sans-serif" font-size="14" lengthAdjust="spacing" textLength="152" x="919.5" y="191.9004">DiscoveryServicesClient</text><polygon fill="#000000" points="900.5,188.7188,910.5,192.7188,900.5,196.7188,904.5,192.7188" style="stroke:#000000;stroke-width:1.0;"/><line style="stroke:#000000;stroke-width:1.0;" x1="682.5" x2="906.5" y1="192.7188" y2="192.7188"/><text fill="#000000" font-family="sans-serif" font-size="13" font-weight="bold" lengthAdjust="spacing" textLength="172" x="689.5" y="187.8623">creates(SearchInformation)</text><polygon fill="#000000" points="978.5,221.3281,988.5,225.3281,978.5,229.3281,982.5,225.3281" style="stroke:#000000;stroke-width:1.0;"/><line style="stroke:#000000;stroke-width:1.0;" x1="682.5" x2="984.5" y1="225.3281" y2="225.3281"/><text fill="#000000" font-family="sans-serif" font-size="13" font-weight="bold" lengthAdjust="spacing" textLength="289" x="689.5" y="220.4717">obtainServicesTopicNames(ServicesLocation)</text><polygon fill="#000000" points="1413.5,251.6797,1423.5,255.6797,1413.5,259.6797,1417.5,255.6797" style="stroke:#000000;stroke-width:1.0;"/><line style="stroke:#000000;stroke-width:1.0;" x1="1000.5" x2="1419.5" y1="255.6797" y2="255.6797"/><text fill="#000000" font-family="sans-serif" font-size="13" font-weight="bold" lengthAdjust="spacing" textLength="406" x="1007.5" y="250.8232">sends POST request for RSUs Services {Body: ServicesLocation}</text><polygon fill="#000000" points="1011.5,282.0313,1001.5,286.0313,1011.5,290.0313,1007.5,286.0313" style="stroke:#000000;stroke-width:1.0;"/><line style="stroke:#000000;stroke-width:1.0;stroke-dasharray:2.0,2.0;" x1="1005.5" x2="1424.5" y1="286.0313" y2="286.0313"/><text fill="#000000" font-family="sans-serif" font-size="13" font-weight="bold" lengthAdjust="spacing" textLength="398" x="1017.5" y="281.1748">sends 200 OK with RSUs Services found {Body: ServicesFound}</text><line style="stroke:#000000;stroke-width:1.0;" x1="1000.5" x2="1042.5" y1="316.3828" y2="316.3828"/><line style="stroke:#000000;stroke-width:1.0;" x1="1042.5" x2="1042.5" y1="316.3828" y2="329.3828"/><line style="stroke:#000000;stroke-width:1.0;" x1="1001.5" x2="1042.5" y1="329.3828" y2="329.3828"/><polygon fill="#000000" points="1011.5,325.3828,1001.5,329.3828,1011.5,333.3828,1007.5,329.3828" style="stroke:#000000;stroke-width:1.0;"/><text fill="#000000" font-family="sans-serif" font-size="13" font-weight="bold" lengthAdjust="spacing" textLength="265" x="1007.5" y="311.5264">fitersServicesTopicNames(ServicesFound)</text><polygon fill="#000000" points="693.5,355.7344,683.5,359.7344,693.5,363.7344,689.5,359.7344" style="stroke:#000000;stroke-width:1.0;"/><line style="stroke:#000000;stroke-width:1.0;stroke-dasharray:2.0,2.0;" x1="687.5" x2="989.5" y1="359.7344" y2="359.7344"/><text fill="#000000" font-family="sans-serif" font-size="13" font-weight="bold" lengthAdjust="spacing" textLength="129" x="699.5" y="354.8779">servicesTopicNames</text><polygon fill="#000000" points="414.5,386.0859,404.5,390.0859,414.5,394.0859,410.5,390.0859" style="stroke:#000000;stroke-width:1.0;"/><line style="stroke:#000000;stroke-width:1.0;stroke-dasharray:2.0,2.0;" x1="408.5" x2="671.5" y1="390.0859" y2="390.0859"/><text fill="#000000" font-family="sans-serif" font-size="13" font-weight="bold" lengthAdjust="spacing" textLength="217" x="420.5" y="385.2295">sends services Topic Names found</text><polygon fill="#000000" points="84.5,416.4375,74.5,420.4375,84.5,424.4375,80.5,420.4375" style="stroke:#000000;stroke-width:1.0;"/><line style="stroke:#000000;stroke-width:1.0;stroke-dasharray:2.0,2.0;" x1="78.5" x2="392.5" y1="420.4375" y2="420.4375"/><text fill="#000000" font-family="sans-serif" font-size="13" font-weight="bold" lengthAdjust="spacing" textLength="129" x="90.5" y="415.5811">servicesTopicNames</text><line style="stroke:#000000;stroke-width:1.0;" x1="73.5" x2="115.5" y1="450.7891" y2="450.7891"/><line style="stroke:#000000;stroke-width:1.0;" x1="115.5" x2="115.5" y1="450.7891" y2="463.7891"/><line style="stroke:#000000;stroke-width:1.0;" x1="74.5" x2="115.5" y1="463.7891" y2="463.7891"/><polygon fill="#000000" points="84.5,459.7891,74.5,463.7891,84.5,467.7891,80.5,463.7891" style="stroke:#000000;stroke-width:1.0;"/><text fill="#000000" font-family="sans-serif" font-size="13" font-weight="bold" lengthAdjust="spacing" textLength="266" x="80.5" y="445.9326">subscribes to Services Topic Names found</text><!--SRC=[dLJDRvim5B_xh_2wotgeLEqqvJ2fwKHLBKgdq6tgqJ4lmIhuPSycQLRbVv-1u8A1D5gG8dX-_dtvuyE6n3eNt0B-vPOAOCmyAxqH97Bk_gsIQYEqvQ-CkzzKoESrOQ6JMyoG-3HpXNe4AG4Agn5gMzT-fye2ExJX3VmfG4iuOjyGuIu4cAaLp9I6ONW_EYghwGY5UC9o8BRx39o3BAdgfSebll2Bcy9YBYmayTvOo2_un-YBUo9MjLKjlo1LCWCtD5FhrCOWxWX0rnrXLmoqLHBccFW9qwm0tzlEkpjbiEMRCXAtGFj56QHJIBuDT58o1p8gmoa8brAU5rf9vuqyIbjMRU8SqWL8KDiMzM3pqOQvpHHeEoopyz7LsyXwWYp37GjfZkWBM2jZQTz5yoz2MhLrZiDeMVURNtqTI7R2gNwDaERmOXVnJzEO-jIypD0bgb1Vld4Dh17hruOucs0dxfpen3Jy_7MAoNx2Gyx3EATV8YO9EWt1ienDxCZhpfdm6hCCGP1Cx_KAAJ-cy7-0kBH2wQRwY1ibvo8_C-R04HiPA0K4kwR9-ST3_EZ3TcPukTG-xZFY3tSZ2mhywfJxMiJdwsl-y9tlb4q3_bLvouKgeh9uO0cCYpWHnAYMbRifoPnOYOhtSXpxdMqTuhODlB-YlJqrSd3hH1isNj7nYgyESv2rTtI63gqZxDuTPvjgtGRzswU7MIoD9BLqWYs-xOI-aNy0]--></g></svg>